G04 #@! TF.GenerationSoftware,KiCad,Pcbnew,(2018-01-07 revision 47989ccfc)-makepkg*
G04 #@! TF.CreationDate,2018-01-19T17:11:47+10:30*
G04 #@! TF.ProjectId,din_meter_atm90e36,64696E5F6D657465725F61746D393065,rev?*
G04 #@! TF.SameCoordinates,Original*
G04 #@! TF.FileFunction,Legend,Top*
G04 #@! TF.FilePolarity,Positive*
%FSLAX46Y46*%
G04 Gerber Fmt 4.6, Leading zero omitted, Abs format (unit mm)*
G04 Created by KiCad (PCBNEW (2018-01-07 revision 47989ccfc)-makepkg) date 01/19/18 17:11:47*
%MOMM*%
%LPD*%
G01*
G04 APERTURE LIST*
%ADD10C,0.100000*%
%ADD11C,0.120000*%
%ADD12C,0.150000*%
%ADD13C,0.125000*%
G04 APERTURE END LIST*
D10*
X135596428Y-59289190D02*
X135905952Y-59289190D01*
X135739285Y-59479666D01*
X135810714Y-59479666D01*
X135858333Y-59503476D01*
X135882142Y-59527285D01*
X135905952Y-59574904D01*
X135905952Y-59693952D01*
X135882142Y-59741571D01*
X135858333Y-59765380D01*
X135810714Y-59789190D01*
X135667857Y-59789190D01*
X135620238Y-59765380D01*
X135596428Y-59741571D01*
X136048809Y-59289190D02*
X136215476Y-59789190D01*
X136382142Y-59289190D01*
X136501190Y-59289190D02*
X136810714Y-59289190D01*
X136644047Y-59479666D01*
X136715476Y-59479666D01*
X136763095Y-59503476D01*
X136786904Y-59527285D01*
X136810714Y-59574904D01*
X136810714Y-59693952D01*
X136786904Y-59741571D01*
X136763095Y-59765380D01*
X136715476Y-59789190D01*
X136572619Y-59789190D01*
X136525000Y-59765380D01*
X136501190Y-59741571D01*
X136905952Y-59836809D02*
X137286904Y-59836809D01*
X137405952Y-59789190D02*
X137405952Y-59289190D01*
X138120523Y-59313000D02*
X138072904Y-59289190D01*
X138001476Y-59289190D01*
X137930047Y-59313000D01*
X137882428Y-59360619D01*
X137858619Y-59408238D01*
X137834809Y-59503476D01*
X137834809Y-59574904D01*
X137858619Y-59670142D01*
X137882428Y-59717761D01*
X137930047Y-59765380D01*
X138001476Y-59789190D01*
X138049095Y-59789190D01*
X138120523Y-59765380D01*
X138144333Y-59741571D01*
X138144333Y-59574904D01*
X138049095Y-59574904D01*
X138358619Y-59789190D02*
X138358619Y-59289190D01*
X138644333Y-59789190D01*
X138644333Y-59289190D01*
X138882428Y-59789190D02*
X138882428Y-59289190D01*
X139001476Y-59289190D01*
X139072904Y-59313000D01*
X139120523Y-59360619D01*
X139144333Y-59408238D01*
X139168142Y-59503476D01*
X139168142Y-59574904D01*
X139144333Y-59670142D01*
X139120523Y-59717761D01*
X139072904Y-59765380D01*
X139001476Y-59789190D01*
X138882428Y-59789190D01*
X139263380Y-59836809D02*
X139644333Y-59836809D01*
X139763380Y-59789190D02*
X139763380Y-59289190D01*
X140585095Y-59741571D02*
X140561285Y-59765380D01*
X140489857Y-59789190D01*
X140442238Y-59789190D01*
X140370809Y-59765380D01*
X140323190Y-59717761D01*
X140299380Y-59670142D01*
X140275571Y-59574904D01*
X140275571Y-59503476D01*
X140299380Y-59408238D01*
X140323190Y-59360619D01*
X140370809Y-59313000D01*
X140442238Y-59289190D01*
X140489857Y-59289190D01*
X140561285Y-59313000D01*
X140585095Y-59336809D01*
X140775571Y-59765380D02*
X140847000Y-59789190D01*
X140966047Y-59789190D01*
X141013666Y-59765380D01*
X141037476Y-59741571D01*
X141061285Y-59693952D01*
X141061285Y-59646333D01*
X141037476Y-59598714D01*
X141013666Y-59574904D01*
X140966047Y-59551095D01*
X140870809Y-59527285D01*
X140823190Y-59503476D01*
X140799380Y-59479666D01*
X140775571Y-59432047D01*
X140775571Y-59384428D01*
X140799380Y-59336809D01*
X140823190Y-59313000D01*
X140870809Y-59289190D01*
X140989857Y-59289190D01*
X141061285Y-59313000D01*
X141156523Y-59836809D02*
X141537476Y-59836809D01*
X141918428Y-59789190D02*
X141632714Y-59789190D01*
X141775571Y-59789190D02*
X141775571Y-59289190D01*
X141727952Y-59360619D01*
X141680333Y-59408238D01*
X141632714Y-59432047D01*
X142613095Y-59765380D02*
X142684523Y-59789190D01*
X142803571Y-59789190D01*
X142851190Y-59765380D01*
X142875000Y-59741571D01*
X142898809Y-59693952D01*
X142898809Y-59646333D01*
X142875000Y-59598714D01*
X142851190Y-59574904D01*
X142803571Y-59551095D01*
X142708333Y-59527285D01*
X142660714Y-59503476D01*
X142636904Y-59479666D01*
X142613095Y-59432047D01*
X142613095Y-59384428D01*
X142636904Y-59336809D01*
X142660714Y-59313000D01*
X142708333Y-59289190D01*
X142827380Y-59289190D01*
X142898809Y-59313000D01*
X143113095Y-59789190D02*
X143113095Y-59289190D01*
X144502238Y-59765380D02*
X144573666Y-59789190D01*
X144692714Y-59789190D01*
X144740333Y-59765380D01*
X144764142Y-59741571D01*
X144787952Y-59693952D01*
X144787952Y-59646333D01*
X144764142Y-59598714D01*
X144740333Y-59574904D01*
X144692714Y-59551095D01*
X144597476Y-59527285D01*
X144549857Y-59503476D01*
X144526047Y-59479666D01*
X144502238Y-59432047D01*
X144502238Y-59384428D01*
X144526047Y-59336809D01*
X144549857Y-59313000D01*
X144597476Y-59289190D01*
X144716523Y-59289190D01*
X144787952Y-59313000D01*
X145097476Y-59289190D02*
X145192714Y-59289190D01*
X145240333Y-59313000D01*
X145287952Y-59360619D01*
X145311761Y-59455857D01*
X145311761Y-59622523D01*
X145287952Y-59717761D01*
X145240333Y-59765380D01*
X145192714Y-59789190D01*
X145097476Y-59789190D01*
X145049857Y-59765380D01*
X145002238Y-59717761D01*
X144978428Y-59622523D01*
X144978428Y-59455857D01*
X145002238Y-59360619D01*
X145049857Y-59313000D01*
X145097476Y-59289190D01*
X146387380Y-59741571D02*
X146363571Y-59765380D01*
X146292142Y-59789190D01*
X146244523Y-59789190D01*
X146173095Y-59765380D01*
X146125476Y-59717761D01*
X146101666Y-59670142D01*
X146077857Y-59574904D01*
X146077857Y-59503476D01*
X146101666Y-59408238D01*
X146125476Y-59360619D01*
X146173095Y-59313000D01*
X146244523Y-59289190D01*
X146292142Y-59289190D01*
X146363571Y-59313000D01*
X146387380Y-59336809D01*
X146839761Y-59789190D02*
X146601666Y-59789190D01*
X146601666Y-59289190D01*
X147006428Y-59789190D02*
X147006428Y-59289190D01*
X147292142Y-59789190D02*
X147077857Y-59503476D01*
X147292142Y-59289190D02*
X147006428Y-59574904D01*
X148078095Y-59741571D02*
X148054285Y-59765380D01*
X147982857Y-59789190D01*
X147935238Y-59789190D01*
X147863809Y-59765380D01*
X147816190Y-59717761D01*
X147792380Y-59670142D01*
X147768571Y-59574904D01*
X147768571Y-59503476D01*
X147792380Y-59408238D01*
X147816190Y-59360619D01*
X147863809Y-59313000D01*
X147935238Y-59289190D01*
X147982857Y-59289190D01*
X148054285Y-59313000D01*
X148078095Y-59336809D01*
X148268571Y-59765380D02*
X148340000Y-59789190D01*
X148459047Y-59789190D01*
X148506666Y-59765380D01*
X148530476Y-59741571D01*
X148554285Y-59693952D01*
X148554285Y-59646333D01*
X148530476Y-59598714D01*
X148506666Y-59574904D01*
X148459047Y-59551095D01*
X148363809Y-59527285D01*
X148316190Y-59503476D01*
X148292380Y-59479666D01*
X148268571Y-59432047D01*
X148268571Y-59384428D01*
X148292380Y-59336809D01*
X148316190Y-59313000D01*
X148363809Y-59289190D01*
X148482857Y-59289190D01*
X148554285Y-59313000D01*
X148649523Y-59836809D02*
X149030476Y-59836809D01*
X149244761Y-59289190D02*
X149292380Y-59289190D01*
X149340000Y-59313000D01*
X149363809Y-59336809D01*
X149387619Y-59384428D01*
X149411428Y-59479666D01*
X149411428Y-59598714D01*
X149387619Y-59693952D01*
X149363809Y-59741571D01*
X149340000Y-59765380D01*
X149292380Y-59789190D01*
X149244761Y-59789190D01*
X149197142Y-59765380D01*
X149173333Y-59741571D01*
X149149523Y-59693952D01*
X149125714Y-59598714D01*
X149125714Y-59479666D01*
X149149523Y-59384428D01*
X149173333Y-59336809D01*
X149197142Y-59313000D01*
X149244761Y-59289190D01*
X151959571Y-59313000D02*
X151911952Y-59289190D01*
X151840523Y-59289190D01*
X151769095Y-59313000D01*
X151721476Y-59360619D01*
X151697666Y-59408238D01*
X151673857Y-59503476D01*
X151673857Y-59574904D01*
X151697666Y-59670142D01*
X151721476Y-59717761D01*
X151769095Y-59765380D01*
X151840523Y-59789190D01*
X151888142Y-59789190D01*
X151959571Y-59765380D01*
X151983380Y-59741571D01*
X151983380Y-59574904D01*
X151888142Y-59574904D01*
X152197666Y-59789190D02*
X152197666Y-59289190D01*
X152483380Y-59789190D01*
X152483380Y-59289190D01*
X152721476Y-59789190D02*
X152721476Y-59289190D01*
X152840523Y-59289190D01*
X152911952Y-59313000D01*
X152959571Y-59360619D01*
X152983380Y-59408238D01*
X153007190Y-59503476D01*
X153007190Y-59574904D01*
X152983380Y-59670142D01*
X152959571Y-59717761D01*
X152911952Y-59765380D01*
X152840523Y-59789190D01*
X152721476Y-59789190D01*
X153102428Y-59836809D02*
X153483380Y-59836809D01*
X153888142Y-59741571D02*
X153864333Y-59765380D01*
X153792904Y-59789190D01*
X153745285Y-59789190D01*
X153673857Y-59765380D01*
X153626238Y-59717761D01*
X153602428Y-59670142D01*
X153578619Y-59574904D01*
X153578619Y-59503476D01*
X153602428Y-59408238D01*
X153626238Y-59360619D01*
X153673857Y-59313000D01*
X153745285Y-59289190D01*
X153792904Y-59289190D01*
X153864333Y-59313000D01*
X153888142Y-59336809D01*
X154388476Y-59289190D02*
X154698000Y-59289190D01*
X154531333Y-59479666D01*
X154602761Y-59479666D01*
X154650380Y-59503476D01*
X154674190Y-59527285D01*
X154698000Y-59574904D01*
X154698000Y-59693952D01*
X154674190Y-59741571D01*
X154650380Y-59765380D01*
X154602761Y-59789190D01*
X154459904Y-59789190D01*
X154412285Y-59765380D01*
X154388476Y-59741571D01*
X154840857Y-59289190D02*
X155007523Y-59789190D01*
X155174190Y-59289190D01*
X155293238Y-59289190D02*
X155602761Y-59289190D01*
X155436095Y-59479666D01*
X155507523Y-59479666D01*
X155555142Y-59503476D01*
X155578952Y-59527285D01*
X155602761Y-59574904D01*
X155602761Y-59693952D01*
X155578952Y-59741571D01*
X155555142Y-59765380D01*
X155507523Y-59789190D01*
X155364666Y-59789190D01*
X155317047Y-59765380D01*
X155293238Y-59741571D01*
X155698000Y-59836809D02*
X156078952Y-59836809D01*
X156483714Y-59741571D02*
X156459904Y-59765380D01*
X156388476Y-59789190D01*
X156340857Y-59789190D01*
X156269428Y-59765380D01*
X156221809Y-59717761D01*
X156198000Y-59670142D01*
X156174190Y-59574904D01*
X156174190Y-59503476D01*
X156198000Y-59408238D01*
X156221809Y-59360619D01*
X156269428Y-59313000D01*
X156340857Y-59289190D01*
X156388476Y-59289190D01*
X156459904Y-59313000D01*
X156483714Y-59336809D01*
D11*
X155208000Y-82923000D02*
X155208000Y-88723000D01*
X147908000Y-82923000D02*
X147908000Y-88723000D01*
X147908000Y-88723000D02*
X155208000Y-88723000D01*
X155208000Y-82923000D02*
X147908000Y-82923000D01*
X134808000Y-88723000D02*
X134808000Y-82923000D01*
X146108000Y-88723000D02*
X134808000Y-88723000D01*
X146108000Y-82923000D02*
X146108000Y-88723000D01*
X134808000Y-82923000D02*
X146108000Y-82923000D01*
X147908000Y-79723000D02*
X147908000Y-82923000D01*
X146108000Y-79723000D02*
X147908000Y-79723000D01*
X146108000Y-82923000D02*
X146108000Y-79723000D01*
X135500000Y-79018000D02*
X136000000Y-79018000D01*
X136000000Y-78078000D02*
X135500000Y-78078000D01*
X141596000Y-79018000D02*
X142096000Y-79018000D01*
X142096000Y-78078000D02*
X141596000Y-78078000D01*
X144348000Y-76766000D02*
X144348000Y-76266000D01*
X143408000Y-76266000D02*
X143408000Y-76766000D01*
X140360000Y-76266000D02*
X140360000Y-76766000D01*
X141300000Y-76766000D02*
X141300000Y-76266000D01*
X138582000Y-76266000D02*
X138582000Y-76766000D01*
X139522000Y-76766000D02*
X139522000Y-76266000D01*
X136474000Y-76766000D02*
X136474000Y-76266000D01*
X135534000Y-76266000D02*
X135534000Y-76766000D01*
X134696000Y-76766000D02*
X134696000Y-76266000D01*
X133756000Y-76266000D02*
X133756000Y-76766000D01*
X130708000Y-76266000D02*
X130708000Y-76766000D01*
X131648000Y-76766000D02*
X131648000Y-76266000D01*
X132724000Y-76766000D02*
X132724000Y-76266000D01*
X131664000Y-76266000D02*
X131664000Y-76766000D01*
X132680000Y-76266000D02*
X132680000Y-76766000D01*
X133740000Y-76766000D02*
X133740000Y-76266000D01*
X137506000Y-76266000D02*
X137506000Y-76766000D01*
X138566000Y-76766000D02*
X138566000Y-76266000D01*
X141316000Y-76208000D02*
X141316000Y-76708000D01*
X142376000Y-76708000D02*
X142376000Y-76208000D01*
X143392000Y-76708000D02*
X143392000Y-76208000D01*
X142332000Y-76208000D02*
X142332000Y-76708000D01*
X140064000Y-78018000D02*
X139564000Y-78018000D01*
X139564000Y-79078000D02*
X140064000Y-79078000D01*
X138032000Y-78018000D02*
X137532000Y-78018000D01*
X137532000Y-79078000D02*
X138032000Y-79078000D01*
X137550000Y-76766000D02*
X137550000Y-76266000D01*
X136490000Y-76266000D02*
X136490000Y-76766000D01*
X146888000Y-76766000D02*
X146888000Y-76266000D01*
X145948000Y-76266000D02*
X145948000Y-76766000D01*
X148996000Y-76308000D02*
X148996000Y-76808000D01*
X149936000Y-76808000D02*
X149936000Y-76308000D01*
X151968000Y-76766000D02*
X151968000Y-76266000D01*
X151028000Y-76266000D02*
X151028000Y-76766000D01*
X154076000Y-76266000D02*
X154076000Y-76766000D01*
X155016000Y-76766000D02*
X155016000Y-76266000D01*
X157048000Y-76766000D02*
X157048000Y-76266000D01*
X156108000Y-76266000D02*
X156108000Y-76766000D01*
X159156000Y-76266000D02*
X159156000Y-76766000D01*
X160096000Y-76766000D02*
X160096000Y-76266000D01*
X149936000Y-79018000D02*
X150436000Y-79018000D01*
X150436000Y-78078000D02*
X149936000Y-78078000D01*
X156074000Y-79018000D02*
X156574000Y-79018000D01*
X156574000Y-78078000D02*
X156074000Y-78078000D01*
X153044000Y-76708000D02*
X153044000Y-76208000D01*
X151984000Y-76208000D02*
X151984000Y-76708000D01*
X154542000Y-78018000D02*
X154042000Y-78018000D01*
X154042000Y-79078000D02*
X154542000Y-79078000D01*
X152010000Y-79078000D02*
X152510000Y-79078000D01*
X152510000Y-78018000D02*
X152010000Y-78018000D01*
X158080000Y-76266000D02*
X158080000Y-76766000D01*
X159140000Y-76766000D02*
X159140000Y-76266000D01*
X158124000Y-76766000D02*
X158124000Y-76266000D01*
X157064000Y-76266000D02*
X157064000Y-76766000D01*
X153000000Y-76208000D02*
X153000000Y-76708000D01*
X154060000Y-76708000D02*
X154060000Y-76208000D01*
X148980000Y-76766000D02*
X148980000Y-76266000D01*
X147920000Y-76266000D02*
X147920000Y-76766000D01*
X146904000Y-76266000D02*
X146904000Y-76766000D01*
X147964000Y-76766000D02*
X147964000Y-76266000D01*
X132858000Y-62644200D02*
X133358000Y-62644200D01*
X133358000Y-61584200D02*
X132858000Y-61584200D01*
X133373000Y-59830000D02*
X132873000Y-59830000D01*
X132873000Y-60890000D02*
X133373000Y-60890000D01*
X143910000Y-69870000D02*
X143410000Y-69870000D01*
X143410000Y-70930000D02*
X143910000Y-70930000D01*
X147040000Y-64950000D02*
X147040000Y-64450000D01*
X145980000Y-64450000D02*
X145980000Y-64950000D01*
X143910000Y-70920000D02*
X143410000Y-70920000D01*
X143410000Y-71980000D02*
X143910000Y-71980000D01*
X159260000Y-71980000D02*
X158760000Y-71980000D01*
X158760000Y-72920000D02*
X159260000Y-72920000D01*
X143510000Y-69870000D02*
X144010000Y-69870000D01*
X144010000Y-68930000D02*
X143510000Y-68930000D01*
X130790000Y-66400000D02*
X130790000Y-66900000D01*
X131730000Y-66900000D02*
X131730000Y-66400000D01*
X132830000Y-73100000D02*
X132830000Y-72600000D01*
X131890000Y-72600000D02*
X131890000Y-73100000D01*
X143510000Y-67770000D02*
X144010000Y-67770000D01*
X144010000Y-66830000D02*
X143510000Y-66830000D01*
X133660000Y-74620000D02*
X134160000Y-74620000D01*
X134160000Y-73680000D02*
X133660000Y-73680000D01*
X158760000Y-67770000D02*
X159260000Y-67770000D01*
X159260000Y-66830000D02*
X158760000Y-66830000D01*
X148910000Y-74620000D02*
X149410000Y-74620000D01*
X149410000Y-73680000D02*
X148910000Y-73680000D01*
X148080000Y-73100000D02*
X148080000Y-72600000D01*
X147140000Y-72600000D02*
X147140000Y-73100000D01*
X146980000Y-66850000D02*
X146980000Y-66350000D01*
X146040000Y-66350000D02*
X146040000Y-66850000D01*
X144010000Y-71980000D02*
X143510000Y-71980000D01*
X143510000Y-72920000D02*
X144010000Y-72920000D01*
X158760000Y-69870000D02*
X159260000Y-69870000D01*
X159260000Y-68930000D02*
X158760000Y-68930000D01*
X140860000Y-75050000D02*
X140160000Y-75050000D01*
X140160000Y-73850000D02*
X140860000Y-73850000D01*
X156110000Y-75050000D02*
X155410000Y-75050000D01*
X155410000Y-73850000D02*
X156110000Y-73850000D01*
X158660000Y-71980000D02*
X159160000Y-71980000D01*
X159160000Y-70920000D02*
X158660000Y-70920000D01*
X158660000Y-70930000D02*
X159160000Y-70930000D01*
X159160000Y-69870000D02*
X158660000Y-69870000D01*
X159160000Y-67770000D02*
X158660000Y-67770000D01*
X158660000Y-68830000D02*
X159160000Y-68830000D01*
X131790000Y-65000000D02*
X131790000Y-64500000D01*
X130730000Y-64500000D02*
X130730000Y-65000000D01*
X143410000Y-68830000D02*
X143910000Y-68830000D01*
X143910000Y-67770000D02*
X143410000Y-67770000D01*
X142610000Y-66550000D02*
X145410000Y-66550000D01*
X145410000Y-66550000D02*
X145410000Y-63250000D01*
X160660000Y-66550000D02*
X160660000Y-63250000D01*
X157860000Y-66550000D02*
X160660000Y-66550000D01*
D12*
X133585000Y-72075000D02*
X134010000Y-72075000D01*
X133585000Y-64825000D02*
X134110000Y-64825000D01*
X140835000Y-64825000D02*
X140310000Y-64825000D01*
X140835000Y-72075000D02*
X140310000Y-72075000D01*
X133585000Y-72075000D02*
X133585000Y-71550000D01*
X140835000Y-72075000D02*
X140835000Y-71550000D01*
X140835000Y-64825000D02*
X140835000Y-65350000D01*
X133585000Y-64825000D02*
X133585000Y-65350000D01*
X134010000Y-72075000D02*
X134010000Y-73450000D01*
X149260000Y-72075000D02*
X149260000Y-73450000D01*
X148835000Y-64825000D02*
X148835000Y-65350000D01*
X156085000Y-64825000D02*
X156085000Y-65350000D01*
X156085000Y-72075000D02*
X156085000Y-71550000D01*
X148835000Y-72075000D02*
X148835000Y-71550000D01*
X156085000Y-72075000D02*
X155560000Y-72075000D01*
X156085000Y-64825000D02*
X155560000Y-64825000D01*
X148835000Y-64825000D02*
X149360000Y-64825000D01*
X148835000Y-72075000D02*
X149260000Y-72075000D01*
D11*
X147110000Y-72700000D02*
X147110000Y-73400000D01*
X145910000Y-73400000D02*
X145910000Y-72700000D01*
X145860000Y-70050000D02*
X145860000Y-69350000D01*
X147060000Y-69350000D02*
X147060000Y-70050000D01*
X130610000Y-70050000D02*
X130610000Y-69350000D01*
X131810000Y-69350000D02*
X131810000Y-70050000D01*
X131860000Y-72700000D02*
X131860000Y-73400000D01*
X130660000Y-73400000D02*
X130660000Y-72700000D01*
D13*
X146759333Y-79036190D02*
X146759333Y-79393333D01*
X146735523Y-79464761D01*
X146687904Y-79512380D01*
X146616476Y-79536190D01*
X146568857Y-79536190D01*
X147068857Y-79250476D02*
X147021238Y-79226666D01*
X146997428Y-79202857D01*
X146973619Y-79155238D01*
X146973619Y-79131428D01*
X146997428Y-79083809D01*
X147021238Y-79060000D01*
X147068857Y-79036190D01*
X147164095Y-79036190D01*
X147211714Y-79060000D01*
X147235523Y-79083809D01*
X147259333Y-79131428D01*
X147259333Y-79155238D01*
X147235523Y-79202857D01*
X147211714Y-79226666D01*
X147164095Y-79250476D01*
X147068857Y-79250476D01*
X147021238Y-79274285D01*
X146997428Y-79298095D01*
X146973619Y-79345714D01*
X146973619Y-79440952D01*
X146997428Y-79488571D01*
X147021238Y-79512380D01*
X147068857Y-79536190D01*
X147164095Y-79536190D01*
X147211714Y-79512380D01*
X147235523Y-79488571D01*
X147259333Y-79440952D01*
X147259333Y-79345714D01*
X147235523Y-79298095D01*
X147211714Y-79274285D01*
X147164095Y-79250476D01*
X135428571Y-79742571D02*
X135404761Y-79766380D01*
X135333333Y-79790190D01*
X135285714Y-79790190D01*
X135214285Y-79766380D01*
X135166666Y-79718761D01*
X135142857Y-79671142D01*
X135119047Y-79575904D01*
X135119047Y-79504476D01*
X135142857Y-79409238D01*
X135166666Y-79361619D01*
X135214285Y-79314000D01*
X135285714Y-79290190D01*
X135333333Y-79290190D01*
X135404761Y-79314000D01*
X135428571Y-79337809D01*
X135595238Y-79290190D02*
X135904761Y-79290190D01*
X135738095Y-79480666D01*
X135809523Y-79480666D01*
X135857142Y-79504476D01*
X135880952Y-79528285D01*
X135904761Y-79575904D01*
X135904761Y-79694952D01*
X135880952Y-79742571D01*
X135857142Y-79766380D01*
X135809523Y-79790190D01*
X135666666Y-79790190D01*
X135619047Y-79766380D01*
X135595238Y-79742571D01*
X136333333Y-79290190D02*
X136238095Y-79290190D01*
X136190476Y-79314000D01*
X136166666Y-79337809D01*
X136119047Y-79409238D01*
X136095238Y-79504476D01*
X136095238Y-79694952D01*
X136119047Y-79742571D01*
X136142857Y-79766380D01*
X136190476Y-79790190D01*
X136285714Y-79790190D01*
X136333333Y-79766380D01*
X136357142Y-79742571D01*
X136380952Y-79694952D01*
X136380952Y-79575904D01*
X136357142Y-79528285D01*
X136333333Y-79504476D01*
X136285714Y-79480666D01*
X136190476Y-79480666D01*
X136142857Y-79504476D01*
X136119047Y-79528285D01*
X136095238Y-79575904D01*
X141524571Y-79742571D02*
X141500761Y-79766380D01*
X141429333Y-79790190D01*
X141381714Y-79790190D01*
X141310285Y-79766380D01*
X141262666Y-79718761D01*
X141238857Y-79671142D01*
X141215047Y-79575904D01*
X141215047Y-79504476D01*
X141238857Y-79409238D01*
X141262666Y-79361619D01*
X141310285Y-79314000D01*
X141381714Y-79290190D01*
X141429333Y-79290190D01*
X141500761Y-79314000D01*
X141524571Y-79337809D01*
X141691238Y-79290190D02*
X142000761Y-79290190D01*
X141834095Y-79480666D01*
X141905523Y-79480666D01*
X141953142Y-79504476D01*
X141976952Y-79528285D01*
X142000761Y-79575904D01*
X142000761Y-79694952D01*
X141976952Y-79742571D01*
X141953142Y-79766380D01*
X141905523Y-79790190D01*
X141762666Y-79790190D01*
X141715047Y-79766380D01*
X141691238Y-79742571D01*
X142453142Y-79290190D02*
X142215047Y-79290190D01*
X142191238Y-79528285D01*
X142215047Y-79504476D01*
X142262666Y-79480666D01*
X142381714Y-79480666D01*
X142429333Y-79504476D01*
X142453142Y-79528285D01*
X142476952Y-79575904D01*
X142476952Y-79694952D01*
X142453142Y-79742571D01*
X142429333Y-79766380D01*
X142381714Y-79790190D01*
X142262666Y-79790190D01*
X142215047Y-79766380D01*
X142191238Y-79742571D01*
X143556571Y-77964571D02*
X143532761Y-77988380D01*
X143461333Y-78012190D01*
X143413714Y-78012190D01*
X143342285Y-77988380D01*
X143294666Y-77940761D01*
X143270857Y-77893142D01*
X143247047Y-77797904D01*
X143247047Y-77726476D01*
X143270857Y-77631238D01*
X143294666Y-77583619D01*
X143342285Y-77536000D01*
X143413714Y-77512190D01*
X143461333Y-77512190D01*
X143532761Y-77536000D01*
X143556571Y-77559809D01*
X143723238Y-77512190D02*
X144032761Y-77512190D01*
X143866095Y-77702666D01*
X143937523Y-77702666D01*
X143985142Y-77726476D01*
X144008952Y-77750285D01*
X144032761Y-77797904D01*
X144032761Y-77916952D01*
X144008952Y-77964571D01*
X143985142Y-77988380D01*
X143937523Y-78012190D01*
X143794666Y-78012190D01*
X143747047Y-77988380D01*
X143723238Y-77964571D01*
X144461333Y-77678857D02*
X144461333Y-78012190D01*
X144342285Y-77488380D02*
X144223238Y-77845523D01*
X144532761Y-77845523D01*
X140508571Y-77964571D02*
X140484761Y-77988380D01*
X140413333Y-78012190D01*
X140365714Y-78012190D01*
X140294285Y-77988380D01*
X140246666Y-77940761D01*
X140222857Y-77893142D01*
X140199047Y-77797904D01*
X140199047Y-77726476D01*
X140222857Y-77631238D01*
X140246666Y-77583619D01*
X140294285Y-77536000D01*
X140365714Y-77512190D01*
X140413333Y-77512190D01*
X140484761Y-77536000D01*
X140508571Y-77559809D01*
X140675238Y-77512190D02*
X140984761Y-77512190D01*
X140818095Y-77702666D01*
X140889523Y-77702666D01*
X140937142Y-77726476D01*
X140960952Y-77750285D01*
X140984761Y-77797904D01*
X140984761Y-77916952D01*
X140960952Y-77964571D01*
X140937142Y-77988380D01*
X140889523Y-78012190D01*
X140746666Y-78012190D01*
X140699047Y-77988380D01*
X140675238Y-77964571D01*
X141151428Y-77512190D02*
X141460952Y-77512190D01*
X141294285Y-77702666D01*
X141365714Y-77702666D01*
X141413333Y-77726476D01*
X141437142Y-77750285D01*
X141460952Y-77797904D01*
X141460952Y-77916952D01*
X141437142Y-77964571D01*
X141413333Y-77988380D01*
X141365714Y-78012190D01*
X141222857Y-78012190D01*
X141175238Y-77988380D01*
X141151428Y-77964571D01*
X138730571Y-75424571D02*
X138706761Y-75448380D01*
X138635333Y-75472190D01*
X138587714Y-75472190D01*
X138516285Y-75448380D01*
X138468666Y-75400761D01*
X138444857Y-75353142D01*
X138421047Y-75257904D01*
X138421047Y-75186476D01*
X138444857Y-75091238D01*
X138468666Y-75043619D01*
X138516285Y-74996000D01*
X138587714Y-74972190D01*
X138635333Y-74972190D01*
X138706761Y-74996000D01*
X138730571Y-75019809D01*
X138897238Y-74972190D02*
X139206761Y-74972190D01*
X139040095Y-75162666D01*
X139111523Y-75162666D01*
X139159142Y-75186476D01*
X139182952Y-75210285D01*
X139206761Y-75257904D01*
X139206761Y-75376952D01*
X139182952Y-75424571D01*
X139159142Y-75448380D01*
X139111523Y-75472190D01*
X138968666Y-75472190D01*
X138921047Y-75448380D01*
X138897238Y-75424571D01*
X139397238Y-75019809D02*
X139421047Y-74996000D01*
X139468666Y-74972190D01*
X139587714Y-74972190D01*
X139635333Y-74996000D01*
X139659142Y-75019809D01*
X139682952Y-75067428D01*
X139682952Y-75115047D01*
X139659142Y-75186476D01*
X139373428Y-75472190D01*
X139682952Y-75472190D01*
X135420571Y-76837428D02*
X135444380Y-76861238D01*
X135468190Y-76932666D01*
X135468190Y-76980285D01*
X135444380Y-77051714D01*
X135396761Y-77099333D01*
X135349142Y-77123142D01*
X135253904Y-77146952D01*
X135182476Y-77146952D01*
X135087238Y-77123142D01*
X135039619Y-77099333D01*
X134992000Y-77051714D01*
X134968190Y-76980285D01*
X134968190Y-76932666D01*
X134992000Y-76861238D01*
X135015809Y-76837428D01*
X134968190Y-76670761D02*
X134968190Y-76361238D01*
X135158666Y-76527904D01*
X135158666Y-76456476D01*
X135182476Y-76408857D01*
X135206285Y-76385047D01*
X135253904Y-76361238D01*
X135372952Y-76361238D01*
X135420571Y-76385047D01*
X135444380Y-76408857D01*
X135468190Y-76456476D01*
X135468190Y-76599333D01*
X135444380Y-76646952D01*
X135420571Y-76670761D01*
X135468190Y-75885047D02*
X135468190Y-76170761D01*
X135468190Y-76027904D02*
X134968190Y-76027904D01*
X135039619Y-76075523D01*
X135087238Y-76123142D01*
X135111047Y-76170761D01*
X134404571Y-78615428D02*
X134428380Y-78639238D01*
X134452190Y-78710666D01*
X134452190Y-78758285D01*
X134428380Y-78829714D01*
X134380761Y-78877333D01*
X134333142Y-78901142D01*
X134237904Y-78924952D01*
X134166476Y-78924952D01*
X134071238Y-78901142D01*
X134023619Y-78877333D01*
X133976000Y-78829714D01*
X133952190Y-78758285D01*
X133952190Y-78710666D01*
X133976000Y-78639238D01*
X133999809Y-78615428D01*
X133952190Y-78448761D02*
X133952190Y-78139238D01*
X134142666Y-78305904D01*
X134142666Y-78234476D01*
X134166476Y-78186857D01*
X134190285Y-78163047D01*
X134237904Y-78139238D01*
X134356952Y-78139238D01*
X134404571Y-78163047D01*
X134428380Y-78186857D01*
X134452190Y-78234476D01*
X134452190Y-78377333D01*
X134428380Y-78424952D01*
X134404571Y-78448761D01*
X133952190Y-77829714D02*
X133952190Y-77782095D01*
X133976000Y-77734476D01*
X133999809Y-77710666D01*
X134047428Y-77686857D01*
X134142666Y-77663047D01*
X134261714Y-77663047D01*
X134356952Y-77686857D01*
X134404571Y-77710666D01*
X134428380Y-77734476D01*
X134452190Y-77782095D01*
X134452190Y-77829714D01*
X134428380Y-77877333D01*
X134404571Y-77901142D01*
X134356952Y-77924952D01*
X134261714Y-77948761D01*
X134142666Y-77948761D01*
X134047428Y-77924952D01*
X133999809Y-77901142D01*
X133976000Y-77877333D01*
X133952190Y-77829714D01*
X131356571Y-78615428D02*
X131380380Y-78639238D01*
X131404190Y-78710666D01*
X131404190Y-78758285D01*
X131380380Y-78829714D01*
X131332761Y-78877333D01*
X131285142Y-78901142D01*
X131189904Y-78924952D01*
X131118476Y-78924952D01*
X131023238Y-78901142D01*
X130975619Y-78877333D01*
X130928000Y-78829714D01*
X130904190Y-78758285D01*
X130904190Y-78710666D01*
X130928000Y-78639238D01*
X130951809Y-78615428D01*
X130951809Y-78424952D02*
X130928000Y-78401142D01*
X130904190Y-78353523D01*
X130904190Y-78234476D01*
X130928000Y-78186857D01*
X130951809Y-78163047D01*
X130999428Y-78139238D01*
X131047047Y-78139238D01*
X131118476Y-78163047D01*
X131404190Y-78448761D01*
X131404190Y-78139238D01*
X131404190Y-77901142D02*
X131404190Y-77805904D01*
X131380380Y-77758285D01*
X131356571Y-77734476D01*
X131285142Y-77686857D01*
X131189904Y-77663047D01*
X130999428Y-77663047D01*
X130951809Y-77686857D01*
X130928000Y-77710666D01*
X130904190Y-77758285D01*
X130904190Y-77853523D01*
X130928000Y-77901142D01*
X130951809Y-77924952D01*
X130999428Y-77948761D01*
X131118476Y-77948761D01*
X131166095Y-77924952D01*
X131189904Y-77901142D01*
X131213714Y-77853523D01*
X131213714Y-77758285D01*
X131189904Y-77710666D01*
X131166095Y-77686857D01*
X131118476Y-77663047D01*
X132420190Y-78615428D02*
X132182095Y-78782095D01*
X132420190Y-78901142D02*
X131920190Y-78901142D01*
X131920190Y-78710666D01*
X131944000Y-78663047D01*
X131967809Y-78639238D01*
X132015428Y-78615428D01*
X132086857Y-78615428D01*
X132134476Y-78639238D01*
X132158285Y-78663047D01*
X132182095Y-78710666D01*
X132182095Y-78901142D01*
X132420190Y-78139238D02*
X132420190Y-78424952D01*
X132420190Y-78282095D02*
X131920190Y-78282095D01*
X131991619Y-78329714D01*
X132039238Y-78377333D01*
X132063047Y-78424952D01*
X132420190Y-77901142D02*
X132420190Y-77805904D01*
X132396380Y-77758285D01*
X132372571Y-77734476D01*
X132301142Y-77686857D01*
X132205904Y-77663047D01*
X132015428Y-77663047D01*
X131967809Y-77686857D01*
X131944000Y-77710666D01*
X131920190Y-77758285D01*
X131920190Y-77853523D01*
X131944000Y-77901142D01*
X131967809Y-77924952D01*
X132015428Y-77948761D01*
X132134476Y-77948761D01*
X132182095Y-77924952D01*
X132205904Y-77901142D01*
X132229714Y-77853523D01*
X132229714Y-77758285D01*
X132205904Y-77710666D01*
X132182095Y-77686857D01*
X132134476Y-77663047D01*
X133436190Y-78615428D02*
X133198095Y-78782095D01*
X133436190Y-78901142D02*
X132936190Y-78901142D01*
X132936190Y-78710666D01*
X132960000Y-78663047D01*
X132983809Y-78639238D01*
X133031428Y-78615428D01*
X133102857Y-78615428D01*
X133150476Y-78639238D01*
X133174285Y-78663047D01*
X133198095Y-78710666D01*
X133198095Y-78901142D01*
X132983809Y-78424952D02*
X132960000Y-78401142D01*
X132936190Y-78353523D01*
X132936190Y-78234476D01*
X132960000Y-78186857D01*
X132983809Y-78163047D01*
X133031428Y-78139238D01*
X133079047Y-78139238D01*
X133150476Y-78163047D01*
X133436190Y-78448761D01*
X133436190Y-78139238D01*
X132936190Y-77829714D02*
X132936190Y-77782095D01*
X132960000Y-77734476D01*
X132983809Y-77710666D01*
X133031428Y-77686857D01*
X133126666Y-77663047D01*
X133245714Y-77663047D01*
X133340952Y-77686857D01*
X133388571Y-77710666D01*
X133412380Y-77734476D01*
X133436190Y-77782095D01*
X133436190Y-77829714D01*
X133412380Y-77877333D01*
X133388571Y-77901142D01*
X133340952Y-77924952D01*
X133245714Y-77948761D01*
X133126666Y-77948761D01*
X133031428Y-77924952D01*
X132983809Y-77901142D01*
X132960000Y-77877333D01*
X132936190Y-77829714D01*
X138262190Y-75313428D02*
X138024095Y-75480095D01*
X138262190Y-75599142D02*
X137762190Y-75599142D01*
X137762190Y-75408666D01*
X137786000Y-75361047D01*
X137809809Y-75337238D01*
X137857428Y-75313428D01*
X137928857Y-75313428D01*
X137976476Y-75337238D01*
X138000285Y-75361047D01*
X138024095Y-75408666D01*
X138024095Y-75599142D01*
X137809809Y-75122952D02*
X137786000Y-75099142D01*
X137762190Y-75051523D01*
X137762190Y-74932476D01*
X137786000Y-74884857D01*
X137809809Y-74861047D01*
X137857428Y-74837238D01*
X137905047Y-74837238D01*
X137976476Y-74861047D01*
X138262190Y-75146761D01*
X138262190Y-74837238D01*
X137809809Y-74646761D02*
X137786000Y-74622952D01*
X137762190Y-74575333D01*
X137762190Y-74456285D01*
X137786000Y-74408666D01*
X137809809Y-74384857D01*
X137857428Y-74361047D01*
X137905047Y-74361047D01*
X137976476Y-74384857D01*
X138262190Y-74670571D01*
X138262190Y-74361047D01*
X141524571Y-75472190D02*
X141357904Y-75234095D01*
X141238857Y-75472190D02*
X141238857Y-74972190D01*
X141429333Y-74972190D01*
X141476952Y-74996000D01*
X141500761Y-75019809D01*
X141524571Y-75067428D01*
X141524571Y-75138857D01*
X141500761Y-75186476D01*
X141476952Y-75210285D01*
X141429333Y-75234095D01*
X141238857Y-75234095D01*
X141715047Y-75019809D02*
X141738857Y-74996000D01*
X141786476Y-74972190D01*
X141905523Y-74972190D01*
X141953142Y-74996000D01*
X141976952Y-75019809D01*
X142000761Y-75067428D01*
X142000761Y-75115047D01*
X141976952Y-75186476D01*
X141691238Y-75472190D01*
X142000761Y-75472190D01*
X142167428Y-74972190D02*
X142476952Y-74972190D01*
X142310285Y-75162666D01*
X142381714Y-75162666D01*
X142429333Y-75186476D01*
X142453142Y-75210285D01*
X142476952Y-75257904D01*
X142476952Y-75376952D01*
X142453142Y-75424571D01*
X142429333Y-75448380D01*
X142381714Y-75472190D01*
X142238857Y-75472190D01*
X142191238Y-75448380D01*
X142167428Y-75424571D01*
X143048571Y-75472190D02*
X142881904Y-75234095D01*
X142762857Y-75472190D02*
X142762857Y-74972190D01*
X142953333Y-74972190D01*
X143000952Y-74996000D01*
X143024761Y-75019809D01*
X143048571Y-75067428D01*
X143048571Y-75138857D01*
X143024761Y-75186476D01*
X143000952Y-75210285D01*
X142953333Y-75234095D01*
X142762857Y-75234095D01*
X143239047Y-75019809D02*
X143262857Y-74996000D01*
X143310476Y-74972190D01*
X143429523Y-74972190D01*
X143477142Y-74996000D01*
X143500952Y-75019809D01*
X143524761Y-75067428D01*
X143524761Y-75115047D01*
X143500952Y-75186476D01*
X143215238Y-75472190D01*
X143524761Y-75472190D01*
X143953333Y-75138857D02*
X143953333Y-75472190D01*
X143834285Y-74948380D02*
X143715238Y-75305523D01*
X144024761Y-75305523D01*
X139492571Y-79790190D02*
X139325904Y-79552095D01*
X139206857Y-79790190D02*
X139206857Y-79290190D01*
X139397333Y-79290190D01*
X139444952Y-79314000D01*
X139468761Y-79337809D01*
X139492571Y-79385428D01*
X139492571Y-79456857D01*
X139468761Y-79504476D01*
X139444952Y-79528285D01*
X139397333Y-79552095D01*
X139206857Y-79552095D01*
X139683047Y-79337809D02*
X139706857Y-79314000D01*
X139754476Y-79290190D01*
X139873523Y-79290190D01*
X139921142Y-79314000D01*
X139944952Y-79337809D01*
X139968761Y-79385428D01*
X139968761Y-79433047D01*
X139944952Y-79504476D01*
X139659238Y-79790190D01*
X139968761Y-79790190D01*
X140421142Y-79290190D02*
X140183047Y-79290190D01*
X140159238Y-79528285D01*
X140183047Y-79504476D01*
X140230666Y-79480666D01*
X140349714Y-79480666D01*
X140397333Y-79504476D01*
X140421142Y-79528285D01*
X140444952Y-79575904D01*
X140444952Y-79694952D01*
X140421142Y-79742571D01*
X140397333Y-79766380D01*
X140349714Y-79790190D01*
X140230666Y-79790190D01*
X140183047Y-79766380D01*
X140159238Y-79742571D01*
X137460571Y-79790190D02*
X137293904Y-79552095D01*
X137174857Y-79790190D02*
X137174857Y-79290190D01*
X137365333Y-79290190D01*
X137412952Y-79314000D01*
X137436761Y-79337809D01*
X137460571Y-79385428D01*
X137460571Y-79456857D01*
X137436761Y-79504476D01*
X137412952Y-79528285D01*
X137365333Y-79552095D01*
X137174857Y-79552095D01*
X137651047Y-79337809D02*
X137674857Y-79314000D01*
X137722476Y-79290190D01*
X137841523Y-79290190D01*
X137889142Y-79314000D01*
X137912952Y-79337809D01*
X137936761Y-79385428D01*
X137936761Y-79433047D01*
X137912952Y-79504476D01*
X137627238Y-79790190D01*
X137936761Y-79790190D01*
X138365333Y-79290190D02*
X138270095Y-79290190D01*
X138222476Y-79314000D01*
X138198666Y-79337809D01*
X138151047Y-79409238D01*
X138127238Y-79504476D01*
X138127238Y-79694952D01*
X138151047Y-79742571D01*
X138174857Y-79766380D01*
X138222476Y-79790190D01*
X138317714Y-79790190D01*
X138365333Y-79766380D01*
X138389142Y-79742571D01*
X138412952Y-79694952D01*
X138412952Y-79575904D01*
X138389142Y-79528285D01*
X138365333Y-79504476D01*
X138317714Y-79480666D01*
X138222476Y-79480666D01*
X138174857Y-79504476D01*
X138151047Y-79528285D01*
X138127238Y-79575904D01*
X137246190Y-75313428D02*
X137008095Y-75480095D01*
X137246190Y-75599142D02*
X136746190Y-75599142D01*
X136746190Y-75408666D01*
X136770000Y-75361047D01*
X136793809Y-75337238D01*
X136841428Y-75313428D01*
X136912857Y-75313428D01*
X136960476Y-75337238D01*
X136984285Y-75361047D01*
X137008095Y-75408666D01*
X137008095Y-75599142D01*
X136793809Y-75122952D02*
X136770000Y-75099142D01*
X136746190Y-75051523D01*
X136746190Y-74932476D01*
X136770000Y-74884857D01*
X136793809Y-74861047D01*
X136841428Y-74837238D01*
X136889047Y-74837238D01*
X136960476Y-74861047D01*
X137246190Y-75146761D01*
X137246190Y-74837238D01*
X137246190Y-74361047D02*
X137246190Y-74646761D01*
X137246190Y-74503904D02*
X136746190Y-74503904D01*
X136817619Y-74551523D01*
X136865238Y-74599142D01*
X136889047Y-74646761D01*
X145580571Y-76837428D02*
X145604380Y-76861238D01*
X145628190Y-76932666D01*
X145628190Y-76980285D01*
X145604380Y-77051714D01*
X145556761Y-77099333D01*
X145509142Y-77123142D01*
X145413904Y-77146952D01*
X145342476Y-77146952D01*
X145247238Y-77123142D01*
X145199619Y-77099333D01*
X145152000Y-77051714D01*
X145128190Y-76980285D01*
X145128190Y-76932666D01*
X145152000Y-76861238D01*
X145175809Y-76837428D01*
X145175809Y-76646952D02*
X145152000Y-76623142D01*
X145128190Y-76575523D01*
X145128190Y-76456476D01*
X145152000Y-76408857D01*
X145175809Y-76385047D01*
X145223428Y-76361238D01*
X145271047Y-76361238D01*
X145342476Y-76385047D01*
X145628190Y-76670761D01*
X145628190Y-76361238D01*
X145628190Y-75885047D02*
X145628190Y-76170761D01*
X145628190Y-76027904D02*
X145128190Y-76027904D01*
X145199619Y-76075523D01*
X145247238Y-76123142D01*
X145271047Y-76170761D01*
X150660571Y-76837428D02*
X150684380Y-76861238D01*
X150708190Y-76932666D01*
X150708190Y-76980285D01*
X150684380Y-77051714D01*
X150636761Y-77099333D01*
X150589142Y-77123142D01*
X150493904Y-77146952D01*
X150422476Y-77146952D01*
X150327238Y-77123142D01*
X150279619Y-77099333D01*
X150232000Y-77051714D01*
X150208190Y-76980285D01*
X150208190Y-76932666D01*
X150232000Y-76861238D01*
X150255809Y-76837428D01*
X150255809Y-76646952D02*
X150232000Y-76623142D01*
X150208190Y-76575523D01*
X150208190Y-76456476D01*
X150232000Y-76408857D01*
X150255809Y-76385047D01*
X150303428Y-76361238D01*
X150351047Y-76361238D01*
X150422476Y-76385047D01*
X150708190Y-76670761D01*
X150708190Y-76361238D01*
X150255809Y-76170761D02*
X150232000Y-76146952D01*
X150208190Y-76099333D01*
X150208190Y-75980285D01*
X150232000Y-75932666D01*
X150255809Y-75908857D01*
X150303428Y-75885047D01*
X150351047Y-75885047D01*
X150422476Y-75908857D01*
X150708190Y-76194571D01*
X150708190Y-75885047D01*
X151176571Y-75424571D02*
X151152761Y-75448380D01*
X151081333Y-75472190D01*
X151033714Y-75472190D01*
X150962285Y-75448380D01*
X150914666Y-75400761D01*
X150890857Y-75353142D01*
X150867047Y-75257904D01*
X150867047Y-75186476D01*
X150890857Y-75091238D01*
X150914666Y-75043619D01*
X150962285Y-74996000D01*
X151033714Y-74972190D01*
X151081333Y-74972190D01*
X151152761Y-74996000D01*
X151176571Y-75019809D01*
X151367047Y-75019809D02*
X151390857Y-74996000D01*
X151438476Y-74972190D01*
X151557523Y-74972190D01*
X151605142Y-74996000D01*
X151628952Y-75019809D01*
X151652761Y-75067428D01*
X151652761Y-75115047D01*
X151628952Y-75186476D01*
X151343238Y-75472190D01*
X151652761Y-75472190D01*
X151819428Y-74972190D02*
X152128952Y-74972190D01*
X151962285Y-75162666D01*
X152033714Y-75162666D01*
X152081333Y-75186476D01*
X152105142Y-75210285D01*
X152128952Y-75257904D01*
X152128952Y-75376952D01*
X152105142Y-75424571D01*
X152081333Y-75448380D01*
X152033714Y-75472190D01*
X151890857Y-75472190D01*
X151843238Y-75448380D01*
X151819428Y-75424571D01*
X154224571Y-75424571D02*
X154200761Y-75448380D01*
X154129333Y-75472190D01*
X154081714Y-75472190D01*
X154010285Y-75448380D01*
X153962666Y-75400761D01*
X153938857Y-75353142D01*
X153915047Y-75257904D01*
X153915047Y-75186476D01*
X153938857Y-75091238D01*
X153962666Y-75043619D01*
X154010285Y-74996000D01*
X154081714Y-74972190D01*
X154129333Y-74972190D01*
X154200761Y-74996000D01*
X154224571Y-75019809D01*
X154415047Y-75019809D02*
X154438857Y-74996000D01*
X154486476Y-74972190D01*
X154605523Y-74972190D01*
X154653142Y-74996000D01*
X154676952Y-75019809D01*
X154700761Y-75067428D01*
X154700761Y-75115047D01*
X154676952Y-75186476D01*
X154391238Y-75472190D01*
X154700761Y-75472190D01*
X155129333Y-75138857D02*
X155129333Y-75472190D01*
X155010285Y-74948380D02*
X154891238Y-75305523D01*
X155200761Y-75305523D01*
X157018571Y-75424571D02*
X156994761Y-75448380D01*
X156923333Y-75472190D01*
X156875714Y-75472190D01*
X156804285Y-75448380D01*
X156756666Y-75400761D01*
X156732857Y-75353142D01*
X156709047Y-75257904D01*
X156709047Y-75186476D01*
X156732857Y-75091238D01*
X156756666Y-75043619D01*
X156804285Y-74996000D01*
X156875714Y-74972190D01*
X156923333Y-74972190D01*
X156994761Y-74996000D01*
X157018571Y-75019809D01*
X157209047Y-75019809D02*
X157232857Y-74996000D01*
X157280476Y-74972190D01*
X157399523Y-74972190D01*
X157447142Y-74996000D01*
X157470952Y-75019809D01*
X157494761Y-75067428D01*
X157494761Y-75115047D01*
X157470952Y-75186476D01*
X157185238Y-75472190D01*
X157494761Y-75472190D01*
X157947142Y-74972190D02*
X157709047Y-74972190D01*
X157685238Y-75210285D01*
X157709047Y-75186476D01*
X157756666Y-75162666D01*
X157875714Y-75162666D01*
X157923333Y-75186476D01*
X157947142Y-75210285D01*
X157970952Y-75257904D01*
X157970952Y-75376952D01*
X157947142Y-75424571D01*
X157923333Y-75448380D01*
X157875714Y-75472190D01*
X157756666Y-75472190D01*
X157709047Y-75448380D01*
X157685238Y-75424571D01*
X159804571Y-78361428D02*
X159828380Y-78385238D01*
X159852190Y-78456666D01*
X159852190Y-78504285D01*
X159828380Y-78575714D01*
X159780761Y-78623333D01*
X159733142Y-78647142D01*
X159637904Y-78670952D01*
X159566476Y-78670952D01*
X159471238Y-78647142D01*
X159423619Y-78623333D01*
X159376000Y-78575714D01*
X159352190Y-78504285D01*
X159352190Y-78456666D01*
X159376000Y-78385238D01*
X159399809Y-78361428D01*
X159399809Y-78170952D02*
X159376000Y-78147142D01*
X159352190Y-78099523D01*
X159352190Y-77980476D01*
X159376000Y-77932857D01*
X159399809Y-77909047D01*
X159447428Y-77885238D01*
X159495047Y-77885238D01*
X159566476Y-77909047D01*
X159852190Y-78194761D01*
X159852190Y-77885238D01*
X159352190Y-77456666D02*
X159352190Y-77551904D01*
X159376000Y-77599523D01*
X159399809Y-77623333D01*
X159471238Y-77670952D01*
X159566476Y-77694761D01*
X159756952Y-77694761D01*
X159804571Y-77670952D01*
X159828380Y-77647142D01*
X159852190Y-77599523D01*
X159852190Y-77504285D01*
X159828380Y-77456666D01*
X159804571Y-77432857D01*
X159756952Y-77409047D01*
X159637904Y-77409047D01*
X159590285Y-77432857D01*
X159566476Y-77456666D01*
X159542666Y-77504285D01*
X159542666Y-77599523D01*
X159566476Y-77647142D01*
X159590285Y-77670952D01*
X159637904Y-77694761D01*
X149864571Y-79742571D02*
X149840761Y-79766380D01*
X149769333Y-79790190D01*
X149721714Y-79790190D01*
X149650285Y-79766380D01*
X149602666Y-79718761D01*
X149578857Y-79671142D01*
X149555047Y-79575904D01*
X149555047Y-79504476D01*
X149578857Y-79409238D01*
X149602666Y-79361619D01*
X149650285Y-79314000D01*
X149721714Y-79290190D01*
X149769333Y-79290190D01*
X149840761Y-79314000D01*
X149864571Y-79337809D01*
X150055047Y-79337809D02*
X150078857Y-79314000D01*
X150126476Y-79290190D01*
X150245523Y-79290190D01*
X150293142Y-79314000D01*
X150316952Y-79337809D01*
X150340761Y-79385428D01*
X150340761Y-79433047D01*
X150316952Y-79504476D01*
X150031238Y-79790190D01*
X150340761Y-79790190D01*
X150507428Y-79290190D02*
X150840761Y-79290190D01*
X150626476Y-79790190D01*
X156002571Y-79742571D02*
X155978761Y-79766380D01*
X155907333Y-79790190D01*
X155859714Y-79790190D01*
X155788285Y-79766380D01*
X155740666Y-79718761D01*
X155716857Y-79671142D01*
X155693047Y-79575904D01*
X155693047Y-79504476D01*
X155716857Y-79409238D01*
X155740666Y-79361619D01*
X155788285Y-79314000D01*
X155859714Y-79290190D01*
X155907333Y-79290190D01*
X155978761Y-79314000D01*
X156002571Y-79337809D01*
X156193047Y-79337809D02*
X156216857Y-79314000D01*
X156264476Y-79290190D01*
X156383523Y-79290190D01*
X156431142Y-79314000D01*
X156454952Y-79337809D01*
X156478761Y-79385428D01*
X156478761Y-79433047D01*
X156454952Y-79504476D01*
X156169238Y-79790190D01*
X156478761Y-79790190D01*
X156764476Y-79504476D02*
X156716857Y-79480666D01*
X156693047Y-79456857D01*
X156669238Y-79409238D01*
X156669238Y-79385428D01*
X156693047Y-79337809D01*
X156716857Y-79314000D01*
X156764476Y-79290190D01*
X156859714Y-79290190D01*
X156907333Y-79314000D01*
X156931142Y-79337809D01*
X156954952Y-79385428D01*
X156954952Y-79409238D01*
X156931142Y-79456857D01*
X156907333Y-79480666D01*
X156859714Y-79504476D01*
X156764476Y-79504476D01*
X156716857Y-79528285D01*
X156693047Y-79552095D01*
X156669238Y-79599714D01*
X156669238Y-79694952D01*
X156693047Y-79742571D01*
X156716857Y-79766380D01*
X156764476Y-79790190D01*
X156859714Y-79790190D01*
X156907333Y-79766380D01*
X156931142Y-79742571D01*
X156954952Y-79694952D01*
X156954952Y-79599714D01*
X156931142Y-79552095D01*
X156907333Y-79528285D01*
X156859714Y-79504476D01*
X151938571Y-78012190D02*
X151771904Y-77774095D01*
X151652857Y-78012190D02*
X151652857Y-77512190D01*
X151843333Y-77512190D01*
X151890952Y-77536000D01*
X151914761Y-77559809D01*
X151938571Y-77607428D01*
X151938571Y-77678857D01*
X151914761Y-77726476D01*
X151890952Y-77750285D01*
X151843333Y-77774095D01*
X151652857Y-77774095D01*
X152414761Y-78012190D02*
X152129047Y-78012190D01*
X152271904Y-78012190D02*
X152271904Y-77512190D01*
X152224285Y-77583619D01*
X152176666Y-77631238D01*
X152129047Y-77655047D01*
X152581428Y-77512190D02*
X152890952Y-77512190D01*
X152724285Y-77702666D01*
X152795714Y-77702666D01*
X152843333Y-77726476D01*
X152867142Y-77750285D01*
X152890952Y-77797904D01*
X152890952Y-77916952D01*
X152867142Y-77964571D01*
X152843333Y-77988380D01*
X152795714Y-78012190D01*
X152652857Y-78012190D01*
X152605238Y-77988380D01*
X152581428Y-77964571D01*
X153970571Y-79790190D02*
X153803904Y-79552095D01*
X153684857Y-79790190D02*
X153684857Y-79290190D01*
X153875333Y-79290190D01*
X153922952Y-79314000D01*
X153946761Y-79337809D01*
X153970571Y-79385428D01*
X153970571Y-79456857D01*
X153946761Y-79504476D01*
X153922952Y-79528285D01*
X153875333Y-79552095D01*
X153684857Y-79552095D01*
X154446761Y-79790190D02*
X154161047Y-79790190D01*
X154303904Y-79790190D02*
X154303904Y-79290190D01*
X154256285Y-79361619D01*
X154208666Y-79409238D01*
X154161047Y-79433047D01*
X154732476Y-79504476D02*
X154684857Y-79480666D01*
X154661047Y-79456857D01*
X154637238Y-79409238D01*
X154637238Y-79385428D01*
X154661047Y-79337809D01*
X154684857Y-79314000D01*
X154732476Y-79290190D01*
X154827714Y-79290190D01*
X154875333Y-79314000D01*
X154899142Y-79337809D01*
X154922952Y-79385428D01*
X154922952Y-79409238D01*
X154899142Y-79456857D01*
X154875333Y-79480666D01*
X154827714Y-79504476D01*
X154732476Y-79504476D01*
X154684857Y-79528285D01*
X154661047Y-79552095D01*
X154637238Y-79599714D01*
X154637238Y-79694952D01*
X154661047Y-79742571D01*
X154684857Y-79766380D01*
X154732476Y-79790190D01*
X154827714Y-79790190D01*
X154875333Y-79766380D01*
X154899142Y-79742571D01*
X154922952Y-79694952D01*
X154922952Y-79599714D01*
X154899142Y-79552095D01*
X154875333Y-79528285D01*
X154827714Y-79504476D01*
X151938571Y-79790190D02*
X151771904Y-79552095D01*
X151652857Y-79790190D02*
X151652857Y-79290190D01*
X151843333Y-79290190D01*
X151890952Y-79314000D01*
X151914761Y-79337809D01*
X151938571Y-79385428D01*
X151938571Y-79456857D01*
X151914761Y-79504476D01*
X151890952Y-79528285D01*
X151843333Y-79552095D01*
X151652857Y-79552095D01*
X152414761Y-79790190D02*
X152129047Y-79790190D01*
X152271904Y-79790190D02*
X152271904Y-79290190D01*
X152224285Y-79361619D01*
X152176666Y-79409238D01*
X152129047Y-79433047D01*
X152581428Y-79290190D02*
X152914761Y-79290190D01*
X152700476Y-79790190D01*
X158836190Y-78361428D02*
X158598095Y-78528095D01*
X158836190Y-78647142D02*
X158336190Y-78647142D01*
X158336190Y-78456666D01*
X158360000Y-78409047D01*
X158383809Y-78385238D01*
X158431428Y-78361428D01*
X158502857Y-78361428D01*
X158550476Y-78385238D01*
X158574285Y-78409047D01*
X158598095Y-78456666D01*
X158598095Y-78647142D01*
X158836190Y-77885238D02*
X158836190Y-78170952D01*
X158836190Y-78028095D02*
X158336190Y-78028095D01*
X158407619Y-78075714D01*
X158455238Y-78123333D01*
X158479047Y-78170952D01*
X158336190Y-77456666D02*
X158336190Y-77551904D01*
X158360000Y-77599523D01*
X158383809Y-77623333D01*
X158455238Y-77670952D01*
X158550476Y-77694761D01*
X158740952Y-77694761D01*
X158788571Y-77670952D01*
X158812380Y-77647142D01*
X158836190Y-77599523D01*
X158836190Y-77504285D01*
X158812380Y-77456666D01*
X158788571Y-77432857D01*
X158740952Y-77409047D01*
X158621904Y-77409047D01*
X158574285Y-77432857D01*
X158550476Y-77456666D01*
X158526666Y-77504285D01*
X158526666Y-77599523D01*
X158550476Y-77647142D01*
X158574285Y-77670952D01*
X158621904Y-77694761D01*
X157820190Y-78361428D02*
X157582095Y-78528095D01*
X157820190Y-78647142D02*
X157320190Y-78647142D01*
X157320190Y-78456666D01*
X157344000Y-78409047D01*
X157367809Y-78385238D01*
X157415428Y-78361428D01*
X157486857Y-78361428D01*
X157534476Y-78385238D01*
X157558285Y-78409047D01*
X157582095Y-78456666D01*
X157582095Y-78647142D01*
X157820190Y-77885238D02*
X157820190Y-78170952D01*
X157820190Y-78028095D02*
X157320190Y-78028095D01*
X157391619Y-78075714D01*
X157439238Y-78123333D01*
X157463047Y-78170952D01*
X157320190Y-77432857D02*
X157320190Y-77670952D01*
X157558285Y-77694761D01*
X157534476Y-77670952D01*
X157510666Y-77623333D01*
X157510666Y-77504285D01*
X157534476Y-77456666D01*
X157558285Y-77432857D01*
X157605904Y-77409047D01*
X157724952Y-77409047D01*
X157772571Y-77432857D01*
X157796380Y-77456666D01*
X157820190Y-77504285D01*
X157820190Y-77623333D01*
X157796380Y-77670952D01*
X157772571Y-77694761D01*
X153462571Y-78012190D02*
X153295904Y-77774095D01*
X153176857Y-78012190D02*
X153176857Y-77512190D01*
X153367333Y-77512190D01*
X153414952Y-77536000D01*
X153438761Y-77559809D01*
X153462571Y-77607428D01*
X153462571Y-77678857D01*
X153438761Y-77726476D01*
X153414952Y-77750285D01*
X153367333Y-77774095D01*
X153176857Y-77774095D01*
X153938761Y-78012190D02*
X153653047Y-78012190D01*
X153795904Y-78012190D02*
X153795904Y-77512190D01*
X153748285Y-77583619D01*
X153700666Y-77631238D01*
X153653047Y-77655047D01*
X154367333Y-77678857D02*
X154367333Y-78012190D01*
X154248285Y-77488380D02*
X154129238Y-77845523D01*
X154438761Y-77845523D01*
X148676190Y-78361428D02*
X148438095Y-78528095D01*
X148676190Y-78647142D02*
X148176190Y-78647142D01*
X148176190Y-78456666D01*
X148200000Y-78409047D01*
X148223809Y-78385238D01*
X148271428Y-78361428D01*
X148342857Y-78361428D01*
X148390476Y-78385238D01*
X148414285Y-78409047D01*
X148438095Y-78456666D01*
X148438095Y-78647142D01*
X148676190Y-77885238D02*
X148676190Y-78170952D01*
X148676190Y-78028095D02*
X148176190Y-78028095D01*
X148247619Y-78075714D01*
X148295238Y-78123333D01*
X148319047Y-78170952D01*
X148223809Y-77694761D02*
X148200000Y-77670952D01*
X148176190Y-77623333D01*
X148176190Y-77504285D01*
X148200000Y-77456666D01*
X148223809Y-77432857D01*
X148271428Y-77409047D01*
X148319047Y-77409047D01*
X148390476Y-77432857D01*
X148676190Y-77718571D01*
X148676190Y-77409047D01*
X147660190Y-78361428D02*
X147422095Y-78528095D01*
X147660190Y-78647142D02*
X147160190Y-78647142D01*
X147160190Y-78456666D01*
X147184000Y-78409047D01*
X147207809Y-78385238D01*
X147255428Y-78361428D01*
X147326857Y-78361428D01*
X147374476Y-78385238D01*
X147398285Y-78409047D01*
X147422095Y-78456666D01*
X147422095Y-78647142D01*
X147660190Y-77885238D02*
X147660190Y-78170952D01*
X147660190Y-78028095D02*
X147160190Y-78028095D01*
X147231619Y-78075714D01*
X147279238Y-78123333D01*
X147303047Y-78170952D01*
X147660190Y-77409047D02*
X147660190Y-77694761D01*
X147660190Y-77551904D02*
X147160190Y-77551904D01*
X147231619Y-77599523D01*
X147279238Y-77647142D01*
X147303047Y-77694761D01*
X131602666Y-62264190D02*
X131364571Y-62264190D01*
X131364571Y-61764190D01*
X132031238Y-62264190D02*
X131745523Y-62264190D01*
X131888380Y-62264190D02*
X131888380Y-61764190D01*
X131840761Y-61835619D01*
X131793142Y-61883238D01*
X131745523Y-61907047D01*
X131602666Y-60486190D02*
X131364571Y-60486190D01*
X131364571Y-59986190D01*
X131745523Y-60033809D02*
X131769333Y-60010000D01*
X131816952Y-59986190D01*
X131936000Y-59986190D01*
X131983619Y-60010000D01*
X132007428Y-60033809D01*
X132031238Y-60081428D01*
X132031238Y-60129047D01*
X132007428Y-60200476D01*
X131721714Y-60486190D01*
X132031238Y-60486190D01*
X144876666Y-70900190D02*
X144710000Y-70662095D01*
X144590952Y-70900190D02*
X144590952Y-70400190D01*
X144781428Y-70400190D01*
X144829047Y-70424000D01*
X144852857Y-70447809D01*
X144876666Y-70495428D01*
X144876666Y-70566857D01*
X144852857Y-70614476D01*
X144829047Y-70638285D01*
X144781428Y-70662095D01*
X144590952Y-70662095D01*
X145043333Y-70400190D02*
X145376666Y-70400190D01*
X145162380Y-70900190D01*
X146334666Y-63788190D02*
X146168000Y-63550095D01*
X146048952Y-63788190D02*
X146048952Y-63288190D01*
X146239428Y-63288190D01*
X146287047Y-63312000D01*
X146310857Y-63335809D01*
X146334666Y-63383428D01*
X146334666Y-63454857D01*
X146310857Y-63502476D01*
X146287047Y-63526285D01*
X146239428Y-63550095D01*
X146048952Y-63550095D01*
X146501333Y-63288190D02*
X146810857Y-63288190D01*
X146644190Y-63478666D01*
X146715619Y-63478666D01*
X146763238Y-63502476D01*
X146787047Y-63526285D01*
X146810857Y-63573904D01*
X146810857Y-63692952D01*
X146787047Y-63740571D01*
X146763238Y-63764380D01*
X146715619Y-63788190D01*
X146572761Y-63788190D01*
X146525142Y-63764380D01*
X146501333Y-63740571D01*
X144876666Y-71726190D02*
X144710000Y-71488095D01*
X144590952Y-71726190D02*
X144590952Y-71226190D01*
X144781428Y-71226190D01*
X144829047Y-71250000D01*
X144852857Y-71273809D01*
X144876666Y-71321428D01*
X144876666Y-71392857D01*
X144852857Y-71440476D01*
X144829047Y-71464285D01*
X144781428Y-71488095D01*
X144590952Y-71488095D01*
X145305238Y-71226190D02*
X145210000Y-71226190D01*
X145162380Y-71250000D01*
X145138571Y-71273809D01*
X145090952Y-71345238D01*
X145067142Y-71440476D01*
X145067142Y-71630952D01*
X145090952Y-71678571D01*
X145114761Y-71702380D01*
X145162380Y-71726190D01*
X145257619Y-71726190D01*
X145305238Y-71702380D01*
X145329047Y-71678571D01*
X145352857Y-71630952D01*
X145352857Y-71511904D01*
X145329047Y-71464285D01*
X145305238Y-71440476D01*
X145257619Y-71416666D01*
X145162380Y-71416666D01*
X145114761Y-71440476D01*
X145090952Y-71464285D01*
X145067142Y-71511904D01*
X160426666Y-72628571D02*
X160402857Y-72652380D01*
X160331428Y-72676190D01*
X160283809Y-72676190D01*
X160212380Y-72652380D01*
X160164761Y-72604761D01*
X160140952Y-72557142D01*
X160117142Y-72461904D01*
X160117142Y-72390476D01*
X160140952Y-72295238D01*
X160164761Y-72247619D01*
X160212380Y-72200000D01*
X160283809Y-72176190D01*
X160331428Y-72176190D01*
X160402857Y-72200000D01*
X160426666Y-72223809D01*
X160855238Y-72342857D02*
X160855238Y-72676190D01*
X160736190Y-72152380D02*
X160617142Y-72509523D01*
X160926666Y-72509523D01*
X145580571Y-69979428D02*
X145604380Y-70003238D01*
X145628190Y-70074666D01*
X145628190Y-70122285D01*
X145604380Y-70193714D01*
X145556761Y-70241333D01*
X145509142Y-70265142D01*
X145413904Y-70288952D01*
X145342476Y-70288952D01*
X145247238Y-70265142D01*
X145199619Y-70241333D01*
X145152000Y-70193714D01*
X145128190Y-70122285D01*
X145128190Y-70074666D01*
X145152000Y-70003238D01*
X145175809Y-69979428D01*
X145628190Y-69503238D02*
X145628190Y-69788952D01*
X145628190Y-69646095D02*
X145128190Y-69646095D01*
X145199619Y-69693714D01*
X145247238Y-69741333D01*
X145271047Y-69788952D01*
X145628190Y-69265142D02*
X145628190Y-69169904D01*
X145604380Y-69122285D01*
X145580571Y-69098476D01*
X145509142Y-69050857D01*
X145413904Y-69027047D01*
X145223428Y-69027047D01*
X145175809Y-69050857D01*
X145152000Y-69074666D01*
X145128190Y-69122285D01*
X145128190Y-69217523D01*
X145152000Y-69265142D01*
X145175809Y-69288952D01*
X145223428Y-69312761D01*
X145342476Y-69312761D01*
X145390095Y-69288952D01*
X145413904Y-69265142D01*
X145437714Y-69217523D01*
X145437714Y-69122285D01*
X145413904Y-69074666D01*
X145390095Y-69050857D01*
X145342476Y-69027047D01*
X130538571Y-66971428D02*
X130562380Y-66995238D01*
X130586190Y-67066666D01*
X130586190Y-67114285D01*
X130562380Y-67185714D01*
X130514761Y-67233333D01*
X130467142Y-67257142D01*
X130371904Y-67280952D01*
X130300476Y-67280952D01*
X130205238Y-67257142D01*
X130157619Y-67233333D01*
X130110000Y-67185714D01*
X130086190Y-67114285D01*
X130086190Y-67066666D01*
X130110000Y-66995238D01*
X130133809Y-66971428D01*
X130586190Y-66495238D02*
X130586190Y-66780952D01*
X130586190Y-66638095D02*
X130086190Y-66638095D01*
X130157619Y-66685714D01*
X130205238Y-66733333D01*
X130229047Y-66780952D01*
X130300476Y-66209523D02*
X130276666Y-66257142D01*
X130252857Y-66280952D01*
X130205238Y-66304761D01*
X130181428Y-66304761D01*
X130133809Y-66280952D01*
X130110000Y-66257142D01*
X130086190Y-66209523D01*
X130086190Y-66114285D01*
X130110000Y-66066666D01*
X130133809Y-66042857D01*
X130181428Y-66019047D01*
X130205238Y-66019047D01*
X130252857Y-66042857D01*
X130276666Y-66066666D01*
X130300476Y-66114285D01*
X130300476Y-66209523D01*
X130324285Y-66257142D01*
X130348095Y-66280952D01*
X130395714Y-66304761D01*
X130490952Y-66304761D01*
X130538571Y-66280952D01*
X130562380Y-66257142D01*
X130586190Y-66209523D01*
X130586190Y-66114285D01*
X130562380Y-66066666D01*
X130538571Y-66042857D01*
X130490952Y-66019047D01*
X130395714Y-66019047D01*
X130348095Y-66042857D01*
X130324285Y-66066666D01*
X130300476Y-66114285D01*
X132538571Y-74921428D02*
X132562380Y-74945238D01*
X132586190Y-75016666D01*
X132586190Y-75064285D01*
X132562380Y-75135714D01*
X132514761Y-75183333D01*
X132467142Y-75207142D01*
X132371904Y-75230952D01*
X132300476Y-75230952D01*
X132205238Y-75207142D01*
X132157619Y-75183333D01*
X132110000Y-75135714D01*
X132086190Y-75064285D01*
X132086190Y-75016666D01*
X132110000Y-74945238D01*
X132133809Y-74921428D01*
X132586190Y-74445238D02*
X132586190Y-74730952D01*
X132586190Y-74588095D02*
X132086190Y-74588095D01*
X132157619Y-74635714D01*
X132205238Y-74683333D01*
X132229047Y-74730952D01*
X132086190Y-73992857D02*
X132086190Y-74230952D01*
X132324285Y-74254761D01*
X132300476Y-74230952D01*
X132276666Y-74183333D01*
X132276666Y-74064285D01*
X132300476Y-74016666D01*
X132324285Y-73992857D01*
X132371904Y-73969047D01*
X132490952Y-73969047D01*
X132538571Y-73992857D01*
X132562380Y-74016666D01*
X132586190Y-74064285D01*
X132586190Y-74183333D01*
X132562380Y-74230952D01*
X132538571Y-74254761D01*
X145580571Y-67693428D02*
X145604380Y-67717238D01*
X145628190Y-67788666D01*
X145628190Y-67836285D01*
X145604380Y-67907714D01*
X145556761Y-67955333D01*
X145509142Y-67979142D01*
X145413904Y-68002952D01*
X145342476Y-68002952D01*
X145247238Y-67979142D01*
X145199619Y-67955333D01*
X145152000Y-67907714D01*
X145128190Y-67836285D01*
X145128190Y-67788666D01*
X145152000Y-67717238D01*
X145175809Y-67693428D01*
X145175809Y-67502952D02*
X145152000Y-67479142D01*
X145128190Y-67431523D01*
X145128190Y-67312476D01*
X145152000Y-67264857D01*
X145175809Y-67241047D01*
X145223428Y-67217238D01*
X145271047Y-67217238D01*
X145342476Y-67241047D01*
X145628190Y-67526761D01*
X145628190Y-67217238D01*
X145128190Y-66907714D02*
X145128190Y-66860095D01*
X145152000Y-66812476D01*
X145175809Y-66788666D01*
X145223428Y-66764857D01*
X145318666Y-66741047D01*
X145437714Y-66741047D01*
X145532952Y-66764857D01*
X145580571Y-66788666D01*
X145604380Y-66812476D01*
X145628190Y-66860095D01*
X145628190Y-66907714D01*
X145604380Y-66955333D01*
X145580571Y-66979142D01*
X145532952Y-67002952D01*
X145437714Y-67026761D01*
X145318666Y-67026761D01*
X145223428Y-67002952D01*
X145175809Y-66979142D01*
X145152000Y-66955333D01*
X145128190Y-66907714D01*
X135338571Y-74328571D02*
X135314761Y-74352380D01*
X135243333Y-74376190D01*
X135195714Y-74376190D01*
X135124285Y-74352380D01*
X135076666Y-74304761D01*
X135052857Y-74257142D01*
X135029047Y-74161904D01*
X135029047Y-74090476D01*
X135052857Y-73995238D01*
X135076666Y-73947619D01*
X135124285Y-73900000D01*
X135195714Y-73876190D01*
X135243333Y-73876190D01*
X135314761Y-73900000D01*
X135338571Y-73923809D01*
X135814761Y-74376190D02*
X135529047Y-74376190D01*
X135671904Y-74376190D02*
X135671904Y-73876190D01*
X135624285Y-73947619D01*
X135576666Y-73995238D01*
X135529047Y-74019047D01*
X136290952Y-74376190D02*
X136005238Y-74376190D01*
X136148095Y-74376190D02*
X136148095Y-73876190D01*
X136100476Y-73947619D01*
X136052857Y-73995238D01*
X136005238Y-74019047D01*
X160438571Y-67478571D02*
X160414761Y-67502380D01*
X160343333Y-67526190D01*
X160295714Y-67526190D01*
X160224285Y-67502380D01*
X160176666Y-67454761D01*
X160152857Y-67407142D01*
X160129047Y-67311904D01*
X160129047Y-67240476D01*
X160152857Y-67145238D01*
X160176666Y-67097619D01*
X160224285Y-67050000D01*
X160295714Y-67026190D01*
X160343333Y-67026190D01*
X160414761Y-67050000D01*
X160438571Y-67073809D01*
X160914761Y-67526190D02*
X160629047Y-67526190D01*
X160771904Y-67526190D02*
X160771904Y-67026190D01*
X160724285Y-67097619D01*
X160676666Y-67145238D01*
X160629047Y-67169047D01*
X161224285Y-67026190D02*
X161271904Y-67026190D01*
X161319523Y-67050000D01*
X161343333Y-67073809D01*
X161367142Y-67121428D01*
X161390952Y-67216666D01*
X161390952Y-67335714D01*
X161367142Y-67430952D01*
X161343333Y-67478571D01*
X161319523Y-67502380D01*
X161271904Y-67526190D01*
X161224285Y-67526190D01*
X161176666Y-67502380D01*
X161152857Y-67478571D01*
X161129047Y-67430952D01*
X161105238Y-67335714D01*
X161105238Y-67216666D01*
X161129047Y-67121428D01*
X161152857Y-67073809D01*
X161176666Y-67050000D01*
X161224285Y-67026190D01*
X150576666Y-74328571D02*
X150552857Y-74352380D01*
X150481428Y-74376190D01*
X150433809Y-74376190D01*
X150362380Y-74352380D01*
X150314761Y-74304761D01*
X150290952Y-74257142D01*
X150267142Y-74161904D01*
X150267142Y-74090476D01*
X150290952Y-73995238D01*
X150314761Y-73947619D01*
X150362380Y-73900000D01*
X150433809Y-73876190D01*
X150481428Y-73876190D01*
X150552857Y-73900000D01*
X150576666Y-73923809D01*
X151052857Y-74376190D02*
X150767142Y-74376190D01*
X150910000Y-74376190D02*
X150910000Y-73876190D01*
X150862380Y-73947619D01*
X150814761Y-73995238D01*
X150767142Y-74019047D01*
X147788571Y-74433333D02*
X147812380Y-74457142D01*
X147836190Y-74528571D01*
X147836190Y-74576190D01*
X147812380Y-74647619D01*
X147764761Y-74695238D01*
X147717142Y-74719047D01*
X147621904Y-74742857D01*
X147550476Y-74742857D01*
X147455238Y-74719047D01*
X147407619Y-74695238D01*
X147360000Y-74647619D01*
X147336190Y-74576190D01*
X147336190Y-74528571D01*
X147360000Y-74457142D01*
X147383809Y-74433333D01*
X147336190Y-73980952D02*
X147336190Y-74219047D01*
X147574285Y-74242857D01*
X147550476Y-74219047D01*
X147526666Y-74171428D01*
X147526666Y-74052380D01*
X147550476Y-74004761D01*
X147574285Y-73980952D01*
X147621904Y-73957142D01*
X147740952Y-73957142D01*
X147788571Y-73980952D01*
X147812380Y-74004761D01*
X147836190Y-74052380D01*
X147836190Y-74171428D01*
X147812380Y-74219047D01*
X147788571Y-74242857D01*
X146426666Y-68058571D02*
X146402857Y-68082380D01*
X146331428Y-68106190D01*
X146283809Y-68106190D01*
X146212380Y-68082380D01*
X146164761Y-68034761D01*
X146140952Y-67987142D01*
X146117142Y-67891904D01*
X146117142Y-67820476D01*
X146140952Y-67725238D01*
X146164761Y-67677619D01*
X146212380Y-67630000D01*
X146283809Y-67606190D01*
X146331428Y-67606190D01*
X146402857Y-67630000D01*
X146426666Y-67653809D01*
X146712380Y-67820476D02*
X146664761Y-67796666D01*
X146640952Y-67772857D01*
X146617142Y-67725238D01*
X146617142Y-67701428D01*
X146640952Y-67653809D01*
X146664761Y-67630000D01*
X146712380Y-67606190D01*
X146807619Y-67606190D01*
X146855238Y-67630000D01*
X146879047Y-67653809D01*
X146902857Y-67701428D01*
X146902857Y-67725238D01*
X146879047Y-67772857D01*
X146855238Y-67796666D01*
X146807619Y-67820476D01*
X146712380Y-67820476D01*
X146664761Y-67844285D01*
X146640952Y-67868095D01*
X146617142Y-67915714D01*
X146617142Y-68010952D01*
X146640952Y-68058571D01*
X146664761Y-68082380D01*
X146712380Y-68106190D01*
X146807619Y-68106190D01*
X146855238Y-68082380D01*
X146879047Y-68058571D01*
X146902857Y-68010952D01*
X146902857Y-67915714D01*
X146879047Y-67868095D01*
X146855238Y-67844285D01*
X146807619Y-67820476D01*
X143302571Y-73646571D02*
X143278761Y-73670380D01*
X143207333Y-73694190D01*
X143159714Y-73694190D01*
X143088285Y-73670380D01*
X143040666Y-73622761D01*
X143016857Y-73575142D01*
X142993047Y-73479904D01*
X142993047Y-73408476D01*
X143016857Y-73313238D01*
X143040666Y-73265619D01*
X143088285Y-73218000D01*
X143159714Y-73194190D01*
X143207333Y-73194190D01*
X143278761Y-73218000D01*
X143302571Y-73241809D01*
X143778761Y-73694190D02*
X143493047Y-73694190D01*
X143635904Y-73694190D02*
X143635904Y-73194190D01*
X143588285Y-73265619D01*
X143540666Y-73313238D01*
X143493047Y-73337047D01*
X144207333Y-73360857D02*
X144207333Y-73694190D01*
X144088285Y-73170380D02*
X143969238Y-73527523D01*
X144278761Y-73527523D01*
X160426666Y-69578571D02*
X160402857Y-69602380D01*
X160331428Y-69626190D01*
X160283809Y-69626190D01*
X160212380Y-69602380D01*
X160164761Y-69554761D01*
X160140952Y-69507142D01*
X160117142Y-69411904D01*
X160117142Y-69340476D01*
X160140952Y-69245238D01*
X160164761Y-69197619D01*
X160212380Y-69150000D01*
X160283809Y-69126190D01*
X160331428Y-69126190D01*
X160402857Y-69150000D01*
X160426666Y-69173809D01*
X160664761Y-69626190D02*
X160760000Y-69626190D01*
X160807619Y-69602380D01*
X160831428Y-69578571D01*
X160879047Y-69507142D01*
X160902857Y-69411904D01*
X160902857Y-69221428D01*
X160879047Y-69173809D01*
X160855238Y-69150000D01*
X160807619Y-69126190D01*
X160712380Y-69126190D01*
X160664761Y-69150000D01*
X160640952Y-69173809D01*
X160617142Y-69221428D01*
X160617142Y-69340476D01*
X160640952Y-69388095D01*
X160664761Y-69411904D01*
X160712380Y-69435714D01*
X160807619Y-69435714D01*
X160855238Y-69411904D01*
X160879047Y-69388095D01*
X160902857Y-69340476D01*
X142338571Y-74628571D02*
X142314761Y-74652380D01*
X142243333Y-74676190D01*
X142195714Y-74676190D01*
X142124285Y-74652380D01*
X142076666Y-74604761D01*
X142052857Y-74557142D01*
X142029047Y-74461904D01*
X142029047Y-74390476D01*
X142052857Y-74295238D01*
X142076666Y-74247619D01*
X142124285Y-74200000D01*
X142195714Y-74176190D01*
X142243333Y-74176190D01*
X142314761Y-74200000D01*
X142338571Y-74223809D01*
X142814761Y-74676190D02*
X142529047Y-74676190D01*
X142671904Y-74676190D02*
X142671904Y-74176190D01*
X142624285Y-74247619D01*
X142576666Y-74295238D01*
X142529047Y-74319047D01*
X143005238Y-74223809D02*
X143029047Y-74200000D01*
X143076666Y-74176190D01*
X143195714Y-74176190D01*
X143243333Y-74200000D01*
X143267142Y-74223809D01*
X143290952Y-74271428D01*
X143290952Y-74319047D01*
X143267142Y-74390476D01*
X142981428Y-74676190D01*
X143290952Y-74676190D01*
X157676666Y-74628571D02*
X157652857Y-74652380D01*
X157581428Y-74676190D01*
X157533809Y-74676190D01*
X157462380Y-74652380D01*
X157414761Y-74604761D01*
X157390952Y-74557142D01*
X157367142Y-74461904D01*
X157367142Y-74390476D01*
X157390952Y-74295238D01*
X157414761Y-74247619D01*
X157462380Y-74200000D01*
X157533809Y-74176190D01*
X157581428Y-74176190D01*
X157652857Y-74200000D01*
X157676666Y-74223809D01*
X157867142Y-74223809D02*
X157890952Y-74200000D01*
X157938571Y-74176190D01*
X158057619Y-74176190D01*
X158105238Y-74200000D01*
X158129047Y-74223809D01*
X158152857Y-74271428D01*
X158152857Y-74319047D01*
X158129047Y-74390476D01*
X157843333Y-74676190D01*
X158152857Y-74676190D01*
X160676666Y-71676190D02*
X160510000Y-71438095D01*
X160390952Y-71676190D02*
X160390952Y-71176190D01*
X160581428Y-71176190D01*
X160629047Y-71200000D01*
X160652857Y-71223809D01*
X160676666Y-71271428D01*
X160676666Y-71342857D01*
X160652857Y-71390476D01*
X160629047Y-71414285D01*
X160581428Y-71438095D01*
X160390952Y-71438095D01*
X161152857Y-71676190D02*
X160867142Y-71676190D01*
X161010000Y-71676190D02*
X161010000Y-71176190D01*
X160962380Y-71247619D01*
X160914761Y-71295238D01*
X160867142Y-71319047D01*
X160676666Y-70626190D02*
X160510000Y-70388095D01*
X160390952Y-70626190D02*
X160390952Y-70126190D01*
X160581428Y-70126190D01*
X160629047Y-70150000D01*
X160652857Y-70173809D01*
X160676666Y-70221428D01*
X160676666Y-70292857D01*
X160652857Y-70340476D01*
X160629047Y-70364285D01*
X160581428Y-70388095D01*
X160390952Y-70388095D01*
X160867142Y-70173809D02*
X160890952Y-70150000D01*
X160938571Y-70126190D01*
X161057619Y-70126190D01*
X161105238Y-70150000D01*
X161129047Y-70173809D01*
X161152857Y-70221428D01*
X161152857Y-70269047D01*
X161129047Y-70340476D01*
X160843333Y-70626190D01*
X161152857Y-70626190D01*
X160676666Y-68526190D02*
X160510000Y-68288095D01*
X160390952Y-68526190D02*
X160390952Y-68026190D01*
X160581428Y-68026190D01*
X160629047Y-68050000D01*
X160652857Y-68073809D01*
X160676666Y-68121428D01*
X160676666Y-68192857D01*
X160652857Y-68240476D01*
X160629047Y-68264285D01*
X160581428Y-68288095D01*
X160390952Y-68288095D01*
X161105238Y-68192857D02*
X161105238Y-68526190D01*
X160986190Y-68002380D02*
X160867142Y-68359523D01*
X161176666Y-68359523D01*
X130586190Y-64833333D02*
X130348095Y-65000000D01*
X130586190Y-65119047D02*
X130086190Y-65119047D01*
X130086190Y-64928571D01*
X130110000Y-64880952D01*
X130133809Y-64857142D01*
X130181428Y-64833333D01*
X130252857Y-64833333D01*
X130300476Y-64857142D01*
X130324285Y-64880952D01*
X130348095Y-64928571D01*
X130348095Y-65119047D01*
X130300476Y-64547619D02*
X130276666Y-64595238D01*
X130252857Y-64619047D01*
X130205238Y-64642857D01*
X130181428Y-64642857D01*
X130133809Y-64619047D01*
X130110000Y-64595238D01*
X130086190Y-64547619D01*
X130086190Y-64452380D01*
X130110000Y-64404761D01*
X130133809Y-64380952D01*
X130181428Y-64357142D01*
X130205238Y-64357142D01*
X130252857Y-64380952D01*
X130276666Y-64404761D01*
X130300476Y-64452380D01*
X130300476Y-64547619D01*
X130324285Y-64595238D01*
X130348095Y-64619047D01*
X130395714Y-64642857D01*
X130490952Y-64642857D01*
X130538571Y-64619047D01*
X130562380Y-64595238D01*
X130586190Y-64547619D01*
X130586190Y-64452380D01*
X130562380Y-64404761D01*
X130538571Y-64380952D01*
X130490952Y-64357142D01*
X130395714Y-64357142D01*
X130348095Y-64380952D01*
X130324285Y-64404761D01*
X130300476Y-64452380D01*
X144876666Y-68868190D02*
X144710000Y-68630095D01*
X144590952Y-68868190D02*
X144590952Y-68368190D01*
X144781428Y-68368190D01*
X144829047Y-68392000D01*
X144852857Y-68415809D01*
X144876666Y-68463428D01*
X144876666Y-68534857D01*
X144852857Y-68582476D01*
X144829047Y-68606285D01*
X144781428Y-68630095D01*
X144590952Y-68630095D01*
X145114761Y-68868190D02*
X145210000Y-68868190D01*
X145257619Y-68844380D01*
X145281428Y-68820571D01*
X145329047Y-68749142D01*
X145352857Y-68653904D01*
X145352857Y-68463428D01*
X145329047Y-68415809D01*
X145305238Y-68392000D01*
X145257619Y-68368190D01*
X145162380Y-68368190D01*
X145114761Y-68392000D01*
X145090952Y-68415809D01*
X145067142Y-68463428D01*
X145067142Y-68582476D01*
X145090952Y-68630095D01*
X145114761Y-68653904D01*
X145162380Y-68677714D01*
X145257619Y-68677714D01*
X145305238Y-68653904D01*
X145329047Y-68630095D01*
X145352857Y-68582476D01*
X141798095Y-65138095D02*
X142036190Y-65138095D01*
X141536190Y-65304761D02*
X141798095Y-65138095D01*
X141536190Y-64971428D01*
X141583809Y-64828571D02*
X141560000Y-64804761D01*
X141536190Y-64757142D01*
X141536190Y-64638095D01*
X141560000Y-64590476D01*
X141583809Y-64566666D01*
X141631428Y-64542857D01*
X141679047Y-64542857D01*
X141750476Y-64566666D01*
X142036190Y-64852380D01*
X142036190Y-64542857D01*
X156771904Y-63638095D02*
X156771904Y-63876190D01*
X156605238Y-63376190D02*
X156771904Y-63638095D01*
X156938571Y-63376190D01*
X157367142Y-63876190D02*
X157081428Y-63876190D01*
X157224285Y-63876190D02*
X157224285Y-63376190D01*
X157176666Y-63447619D01*
X157129047Y-63495238D01*
X157081428Y-63519047D01*
X133786190Y-73288095D02*
X133286190Y-73288095D01*
X133738571Y-72764285D02*
X133762380Y-72788095D01*
X133786190Y-72859523D01*
X133786190Y-72907142D01*
X133762380Y-72978571D01*
X133714761Y-73026190D01*
X133667142Y-73050000D01*
X133571904Y-73073809D01*
X133500476Y-73073809D01*
X133405238Y-73050000D01*
X133357619Y-73026190D01*
X133310000Y-72978571D01*
X133286190Y-72907142D01*
X133286190Y-72859523D01*
X133310000Y-72788095D01*
X133333809Y-72764285D01*
X133333809Y-72573809D02*
X133310000Y-72550000D01*
X133286190Y-72502380D01*
X133286190Y-72383333D01*
X133310000Y-72335714D01*
X133333809Y-72311904D01*
X133381428Y-72288095D01*
X133429047Y-72288095D01*
X133500476Y-72311904D01*
X133786190Y-72597619D01*
X133786190Y-72288095D01*
X148936190Y-73438095D02*
X148436190Y-73438095D01*
X148888571Y-72914285D02*
X148912380Y-72938095D01*
X148936190Y-73009523D01*
X148936190Y-73057142D01*
X148912380Y-73128571D01*
X148864761Y-73176190D01*
X148817142Y-73200000D01*
X148721904Y-73223809D01*
X148650476Y-73223809D01*
X148555238Y-73200000D01*
X148507619Y-73176190D01*
X148460000Y-73128571D01*
X148436190Y-73057142D01*
X148436190Y-73009523D01*
X148460000Y-72938095D01*
X148483809Y-72914285D01*
X148936190Y-72438095D02*
X148936190Y-72723809D01*
X148936190Y-72580952D02*
X148436190Y-72580952D01*
X148507619Y-72628571D01*
X148555238Y-72676190D01*
X148579047Y-72723809D01*
X145580571Y-73043333D02*
X145604380Y-73067142D01*
X145628190Y-73138571D01*
X145628190Y-73186190D01*
X145604380Y-73257619D01*
X145556761Y-73305238D01*
X145509142Y-73329047D01*
X145413904Y-73352857D01*
X145342476Y-73352857D01*
X145247238Y-73329047D01*
X145199619Y-73305238D01*
X145152000Y-73257619D01*
X145128190Y-73186190D01*
X145128190Y-73138571D01*
X145152000Y-73067142D01*
X145175809Y-73043333D01*
X145128190Y-72876666D02*
X145128190Y-72567142D01*
X145318666Y-72733809D01*
X145318666Y-72662380D01*
X145342476Y-72614761D01*
X145366285Y-72590952D01*
X145413904Y-72567142D01*
X145532952Y-72567142D01*
X145580571Y-72590952D01*
X145604380Y-72614761D01*
X145628190Y-72662380D01*
X145628190Y-72805238D01*
X145604380Y-72852857D01*
X145580571Y-72876666D01*
X146376666Y-71614571D02*
X146352857Y-71638380D01*
X146281428Y-71662190D01*
X146233809Y-71662190D01*
X146162380Y-71638380D01*
X146114761Y-71590761D01*
X146090952Y-71543142D01*
X146067142Y-71447904D01*
X146067142Y-71376476D01*
X146090952Y-71281238D01*
X146114761Y-71233619D01*
X146162380Y-71186000D01*
X146233809Y-71162190D01*
X146281428Y-71162190D01*
X146352857Y-71186000D01*
X146376666Y-71209809D01*
X146805238Y-71162190D02*
X146710000Y-71162190D01*
X146662380Y-71186000D01*
X146638571Y-71209809D01*
X146590952Y-71281238D01*
X146567142Y-71376476D01*
X146567142Y-71566952D01*
X146590952Y-71614571D01*
X146614761Y-71638380D01*
X146662380Y-71662190D01*
X146757619Y-71662190D01*
X146805238Y-71638380D01*
X146829047Y-71614571D01*
X146852857Y-71566952D01*
X146852857Y-71447904D01*
X146829047Y-71400285D01*
X146805238Y-71376476D01*
X146757619Y-71352666D01*
X146662380Y-71352666D01*
X146614761Y-71376476D01*
X146590952Y-71400285D01*
X146567142Y-71447904D01*
X131388571Y-72221428D02*
X131412380Y-72245238D01*
X131436190Y-72316666D01*
X131436190Y-72364285D01*
X131412380Y-72435714D01*
X131364761Y-72483333D01*
X131317142Y-72507142D01*
X131221904Y-72530952D01*
X131150476Y-72530952D01*
X131055238Y-72507142D01*
X131007619Y-72483333D01*
X130960000Y-72435714D01*
X130936190Y-72364285D01*
X130936190Y-72316666D01*
X130960000Y-72245238D01*
X130983809Y-72221428D01*
X131436190Y-71745238D02*
X131436190Y-72030952D01*
X131436190Y-71888095D02*
X130936190Y-71888095D01*
X131007619Y-71935714D01*
X131055238Y-71983333D01*
X131079047Y-72030952D01*
X130936190Y-71316666D02*
X130936190Y-71411904D01*
X130960000Y-71459523D01*
X130983809Y-71483333D01*
X131055238Y-71530952D01*
X131150476Y-71554761D01*
X131340952Y-71554761D01*
X131388571Y-71530952D01*
X131412380Y-71507142D01*
X131436190Y-71459523D01*
X131436190Y-71364285D01*
X131412380Y-71316666D01*
X131388571Y-71292857D01*
X131340952Y-71269047D01*
X131221904Y-71269047D01*
X131174285Y-71292857D01*
X131150476Y-71316666D01*
X131126666Y-71364285D01*
X131126666Y-71459523D01*
X131150476Y-71507142D01*
X131174285Y-71530952D01*
X131221904Y-71554761D01*
X131438571Y-74933333D02*
X131462380Y-74957142D01*
X131486190Y-75028571D01*
X131486190Y-75076190D01*
X131462380Y-75147619D01*
X131414761Y-75195238D01*
X131367142Y-75219047D01*
X131271904Y-75242857D01*
X131200476Y-75242857D01*
X131105238Y-75219047D01*
X131057619Y-75195238D01*
X131010000Y-75147619D01*
X130986190Y-75076190D01*
X130986190Y-75028571D01*
X131010000Y-74957142D01*
X131033809Y-74933333D01*
X130986190Y-74766666D02*
X130986190Y-74433333D01*
X131486190Y-74647619D01*
M02*
