G04 #@! TF.GenerationSoftware,KiCad,Pcbnew,5.0.0-rc2-dev-unknown-2c85de3~62~ubuntu16.04.1*
G04 #@! TF.CreationDate,2018-03-03T01:16:51+03:00*
G04 #@! TF.ProjectId,din_meter_atm90e36,64696E5F6D657465725F61746D393065,rev?*
G04 #@! TF.SameCoordinates,Original*
G04 #@! TF.FileFunction,Copper,L4,Bot,Mixed*
G04 #@! TF.FilePolarity,Positive*
%FSLAX46Y46*%
G04 Gerber Fmt 4.6, Leading zero omitted, Abs format (unit mm)*
G04 Created by KiCad (PCBNEW 5.0.0-rc2-dev-unknown-2c85de3~62~ubuntu16.04.1) date Sat Mar  3 01:16:51 2018*
%MOMM*%
%LPD*%
G01*
G04 APERTURE LIST*
%ADD10R,1.270000X0.970000*%
%ADD11O,0.650000X0.650000*%
%ADD12R,0.650000X4.600000*%
%ADD13R,0.650000X3.600000*%
%ADD14C,1.575000*%
%ADD15R,1.575000X1.575000*%
%ADD16C,0.600000*%
%ADD17C,0.250000*%
%ADD18C,0.254000*%
G04 APERTURE END LIST*
D10*
X148988000Y-71033600D03*
X148988000Y-69763600D03*
X148988000Y-68493600D03*
X137268000Y-67253600D03*
X137268000Y-68523600D03*
X137268000Y-69793600D03*
X152036000Y-71033600D03*
X152036000Y-69763600D03*
X152036000Y-68493600D03*
X155072000Y-68493600D03*
X155072000Y-69763600D03*
X155072000Y-71033600D03*
X134042000Y-69793600D03*
X134042000Y-68523600D03*
X134042000Y-67253600D03*
X140417000Y-67253600D03*
X140417000Y-68523600D03*
X140417000Y-69793600D03*
D11*
X136508000Y-87723000D03*
X154508000Y-87723000D03*
X153508000Y-87723000D03*
X148508000Y-87723000D03*
X145508000Y-87723000D03*
X152508000Y-87723000D03*
X149508000Y-87723000D03*
X137508000Y-87723000D03*
X151508000Y-87723000D03*
X150508000Y-87723000D03*
X144508000Y-87723000D03*
X143508000Y-87723000D03*
X142508000Y-87723000D03*
X141508000Y-87723000D03*
X140508000Y-87723000D03*
X139508000Y-87723000D03*
X138508000Y-87723000D03*
D12*
X149508000Y-85423000D03*
X148508000Y-85423000D03*
X154508000Y-85423000D03*
X153508000Y-85423000D03*
X152508000Y-85423000D03*
X151508000Y-85423000D03*
X150508000Y-85423000D03*
X145508000Y-85423000D03*
X144508000Y-85423000D03*
X143508000Y-85423000D03*
X142508000Y-85423000D03*
X141508000Y-85423000D03*
X140508000Y-85423000D03*
X139508000Y-85423000D03*
X138508000Y-85423000D03*
X137508000Y-85423000D03*
X136508000Y-85423000D03*
D13*
X135508000Y-84923000D03*
D14*
X136907000Y-61341000D03*
X138907000Y-61341000D03*
X140907000Y-61341000D03*
X142907000Y-61341000D03*
X144907000Y-61341000D03*
X146907000Y-61341000D03*
X148907000Y-61341000D03*
X150907000Y-61341000D03*
X152907000Y-61341000D03*
D15*
X154907000Y-61341000D03*
D16*
X134042000Y-71299300D03*
X148734300Y-72161600D03*
X132026000Y-64664300D03*
X149218500Y-67398600D03*
X135746200Y-68400600D03*
X134363300Y-66240400D03*
X149247700Y-66547600D03*
X154737800Y-67552600D03*
X140045200Y-66275900D03*
X139324400Y-70243200D03*
X153966200Y-69200000D03*
X153980400Y-70200000D03*
X140594600Y-71905800D03*
X155884700Y-71977300D03*
X140673800Y-73211800D03*
X138379200Y-68594300D03*
X138723100Y-67726800D03*
X135228800Y-67820800D03*
X150133900Y-65207100D03*
X150265600Y-69016400D03*
X150940800Y-69487200D03*
X154059300Y-73916100D03*
X155273600Y-77819600D03*
X153401400Y-71675200D03*
X150793100Y-77755100D03*
X152804100Y-74142900D03*
X155877600Y-76141100D03*
X147120600Y-77604956D03*
X136766000Y-81088000D03*
X135215978Y-81078165D03*
X148809000Y-77650600D03*
X137544236Y-81008286D03*
X153675100Y-77587000D03*
X140237823Y-81031676D03*
X157189300Y-77652100D03*
X139505867Y-81195253D03*
X158093100Y-77606700D03*
X138290000Y-81087992D03*
X152821900Y-77594900D03*
X149466000Y-81088000D03*
X136631300Y-75403800D03*
X136384200Y-74376500D03*
X135287800Y-76875100D03*
X138962300Y-71696200D03*
X137354500Y-77724600D03*
X138585262Y-78853987D03*
X154292000Y-81088000D03*
X142058211Y-79246423D03*
X152514010Y-81088000D03*
X139677373Y-77615473D03*
X138583900Y-73907000D03*
X138015100Y-71693200D03*
X142862000Y-75355300D03*
X141846000Y-80833978D03*
X144057745Y-80067388D03*
X137013100Y-73941500D03*
X138287200Y-77637600D03*
X151244000Y-81088000D03*
X138215800Y-75410900D03*
X143370000Y-81088000D03*
X132863900Y-77625800D03*
X144386000Y-81088000D03*
X134157000Y-78201100D03*
D17*
X134042000Y-68523600D02*
X134042000Y-67253600D01*
X155072000Y-69763600D02*
X155072000Y-68493600D01*
X140417000Y-68523600D02*
X140417000Y-69793600D01*
X137268000Y-68523600D02*
X137268000Y-69793600D01*
X148988000Y-69763600D02*
X148988000Y-71033600D01*
X152036000Y-69763600D02*
X152036000Y-71033600D01*
X140277700Y-69654300D02*
X140417000Y-69793600D01*
X138317600Y-69654300D02*
X140277700Y-69654300D01*
X138178300Y-69793600D02*
X138317600Y-69654300D01*
X137268000Y-69793600D02*
X138178300Y-69793600D01*
X155072000Y-71033600D02*
X154161700Y-71033600D01*
X152036000Y-71033600D02*
X154161700Y-71033600D01*
X134042000Y-69793600D02*
X134042000Y-70165800D01*
X137268000Y-69793600D02*
X136357700Y-69793600D01*
X148988000Y-71033600D02*
X148988000Y-71114700D01*
X151044600Y-71114700D02*
X151125700Y-71033600D01*
X148988000Y-71114700D02*
X151044600Y-71114700D01*
X152036000Y-71033600D02*
X151125700Y-71033600D01*
X135985500Y-70165800D02*
X136357700Y-69793600D01*
X134042000Y-70165800D02*
X135985500Y-70165800D01*
X134042000Y-71299300D02*
X134042000Y-70165800D01*
X148988000Y-71907900D02*
X148734300Y-72161600D01*
X148988000Y-71114700D02*
X148988000Y-71907900D01*
X137268000Y-67253600D02*
X138178300Y-67253600D01*
X138280400Y-67151500D02*
X138178300Y-67253600D01*
X139404600Y-67151500D02*
X138280400Y-67151500D01*
X139506700Y-67253600D02*
X139404600Y-67151500D01*
X135009700Y-67196200D02*
X134952300Y-67253600D01*
X136300300Y-67196200D02*
X135009700Y-67196200D01*
X136357700Y-67253600D02*
X136300300Y-67196200D01*
X137268000Y-67253600D02*
X136357700Y-67253600D01*
X134042000Y-67253600D02*
X134952300Y-67253600D01*
X140417000Y-67253600D02*
X139506700Y-67253600D01*
X155072000Y-68493600D02*
X155072000Y-67733300D01*
X154737800Y-67560100D02*
X154737800Y-67552600D01*
X154911000Y-67733300D02*
X154737800Y-67560100D01*
X155072000Y-67733300D02*
X154911000Y-67733300D01*
X152036000Y-68493600D02*
X152036000Y-68170800D01*
X152036000Y-68170800D02*
X152036000Y-67733300D01*
X148988000Y-68493600D02*
X149898300Y-68493600D01*
X150221100Y-68170800D02*
X149898300Y-68493600D01*
X152036000Y-68170800D02*
X150221100Y-68170800D01*
X140262600Y-66493300D02*
X140417000Y-66493300D01*
X140045200Y-66275900D02*
X140262600Y-66493300D01*
X140417000Y-67253600D02*
X140417000Y-66493300D01*
X152209200Y-67560100D02*
X152036000Y-67733300D01*
X154737800Y-67560100D02*
X152209200Y-67560100D01*
X140823800Y-71301300D02*
X140382500Y-71301300D01*
X141673500Y-72151000D02*
X140823800Y-71301300D01*
X140382500Y-71301300D02*
X139624399Y-70543199D01*
X140508000Y-81981314D02*
X140986877Y-81502437D01*
X140986877Y-81502437D02*
X140986877Y-78901055D01*
X140986877Y-78901055D02*
X141673500Y-78214432D01*
X141673500Y-78214432D02*
X141673500Y-72151000D01*
X139624399Y-70543199D02*
X139324400Y-70243200D01*
X140508000Y-85423000D02*
X140508000Y-81981314D01*
X140594600Y-71905800D02*
X141273200Y-72584400D01*
X141273200Y-77964100D02*
X138868391Y-80368909D01*
X138868391Y-82512609D02*
X138508000Y-82873000D01*
X138868391Y-80368909D02*
X138868391Y-82512609D01*
X138508000Y-82873000D02*
X138508000Y-85423000D01*
X141273200Y-72584400D02*
X141273200Y-77964100D01*
X136508000Y-82873000D02*
X136190999Y-82555999D01*
X136508000Y-85423000D02*
X136508000Y-82873000D01*
X137425800Y-77068700D02*
X140673800Y-73820700D01*
X140673800Y-73820700D02*
X140673800Y-73636064D01*
X136190999Y-78072501D02*
X137194800Y-77068700D01*
X136190999Y-82555999D02*
X136190999Y-78072501D01*
X140673800Y-73636064D02*
X140673800Y-73211800D01*
X137194800Y-77068700D02*
X137425800Y-77068700D01*
X137268000Y-68523600D02*
X138178300Y-68523600D01*
X138249000Y-68594300D02*
X138178300Y-68523600D01*
X138379200Y-68594300D02*
X138249000Y-68594300D01*
X140417000Y-68523600D02*
X139506700Y-68523600D01*
X139506700Y-68510400D02*
X138723100Y-67726800D01*
X139506700Y-68523600D02*
X139506700Y-68510400D01*
X134952300Y-68097300D02*
X134952300Y-68523600D01*
X135228800Y-67820800D02*
X134952300Y-68097300D01*
X134042000Y-68523600D02*
X134952300Y-68523600D01*
X155072000Y-69763600D02*
X155982300Y-69763600D01*
X153326900Y-65207100D02*
X150133900Y-65207100D01*
X155982300Y-67862500D02*
X153326900Y-65207100D01*
X155982300Y-69763600D02*
X155982300Y-67862500D01*
X149898300Y-69383700D02*
X149898300Y-69763600D01*
X150265600Y-69016400D02*
X149898300Y-69383700D01*
X148988000Y-69763600D02*
X149898300Y-69763600D01*
X152036000Y-69763600D02*
X151125700Y-69763600D01*
X150940800Y-69578700D02*
X150940800Y-69487200D01*
X151125700Y-69763600D02*
X150940800Y-69578700D01*
X135790988Y-78844788D02*
X133116100Y-76169900D01*
X133116100Y-65131900D02*
X136119501Y-62128499D01*
X135508000Y-82873000D02*
X135790988Y-82590012D01*
X135790988Y-82590012D02*
X135790988Y-78844788D01*
X136119501Y-62128499D02*
X136907000Y-61341000D01*
X135508000Y-84923000D02*
X135508000Y-82873000D01*
X133116100Y-76169900D02*
X133116100Y-65131900D01*
X142508000Y-85423000D02*
X142508000Y-82873000D01*
X142073800Y-78400824D02*
X142073800Y-64507800D01*
X142073800Y-64507800D02*
X139694499Y-62128499D01*
X139694499Y-62128499D02*
X138907000Y-61341000D01*
X142675001Y-82705999D02*
X142675001Y-79002025D01*
X142675001Y-79002025D02*
X142073800Y-78400824D01*
X142508000Y-82873000D02*
X142675001Y-82705999D01*
X148508000Y-85423000D02*
X148508000Y-82847700D01*
X148113400Y-82453100D02*
X148508000Y-82847700D01*
X148113400Y-77485300D02*
X148113400Y-82453100D01*
X148052600Y-77424500D02*
X148113400Y-77485300D01*
X148052600Y-66195400D02*
X148052600Y-77424500D01*
X152907000Y-61341000D02*
X148052600Y-66195400D01*
X152508000Y-82020998D02*
X152508000Y-82873000D01*
X152508000Y-82873000D02*
X152508000Y-85423000D01*
X154907000Y-61341000D02*
X154907000Y-62378500D01*
X156460600Y-78068398D02*
X152508000Y-82020998D01*
X154907000Y-62378500D02*
X156460600Y-63932100D01*
X156460600Y-63932100D02*
X156460600Y-78068398D01*
D18*
G36*
X161508001Y-59816515D02*
X161508000Y-79233486D01*
X160993487Y-79748000D01*
X155986654Y-79748000D01*
X155983584Y-79746785D01*
X155906883Y-79748000D01*
X155870410Y-79748000D01*
X155867254Y-79748628D01*
X155823679Y-79749318D01*
X155789586Y-79764077D01*
X155753148Y-79771325D01*
X155716910Y-79795538D01*
X155713959Y-79796816D01*
X155683979Y-79817542D01*
X155620175Y-79860175D01*
X155618340Y-79862921D01*
X154967949Y-80312563D01*
X154904176Y-80355175D01*
X154879965Y-80391410D01*
X154849638Y-80422713D01*
X154835966Y-80457259D01*
X154815326Y-80488148D01*
X154806824Y-80530891D01*
X154790785Y-80571416D01*
X154792001Y-80648150D01*
X154792001Y-80701289D01*
X154647167Y-80556455D01*
X154622135Y-80546087D01*
X156748731Y-78419491D01*
X156786474Y-78394272D01*
X156886375Y-78244760D01*
X156893629Y-78208289D01*
X157064582Y-78279100D01*
X157314018Y-78279100D01*
X157544467Y-78183645D01*
X157663900Y-78064212D01*
X157737933Y-78138245D01*
X157968382Y-78233700D01*
X158217818Y-78233700D01*
X158448267Y-78138245D01*
X158624645Y-77961867D01*
X158720100Y-77731418D01*
X158720100Y-77481982D01*
X158624645Y-77251533D01*
X158448267Y-77075155D01*
X158217818Y-76979700D01*
X157968382Y-76979700D01*
X157737933Y-77075155D01*
X157618500Y-77194588D01*
X157544467Y-77120555D01*
X157314018Y-77025100D01*
X157064582Y-77025100D01*
X156912600Y-77088053D01*
X156912600Y-63976617D01*
X156921455Y-63932099D01*
X156886375Y-63755738D01*
X156811691Y-63643966D01*
X156786474Y-63606226D01*
X156748734Y-63581009D01*
X155629630Y-62461906D01*
X155694500Y-62461906D01*
X155822089Y-62436527D01*
X155930254Y-62364254D01*
X156002527Y-62256089D01*
X156027906Y-62128500D01*
X156027906Y-60553500D01*
X156002527Y-60425911D01*
X155930254Y-60317746D01*
X155822089Y-60245473D01*
X155694500Y-60220094D01*
X154119500Y-60220094D01*
X153991911Y-60245473D01*
X153883746Y-60317746D01*
X153811473Y-60425911D01*
X153786094Y-60553500D01*
X153786094Y-60643954D01*
X153538313Y-60396173D01*
X153128688Y-60226500D01*
X152685312Y-60226500D01*
X152275687Y-60396173D01*
X151962173Y-60709687D01*
X151907000Y-60842886D01*
X151851827Y-60709687D01*
X151538313Y-60396173D01*
X151128688Y-60226500D01*
X150685312Y-60226500D01*
X150275687Y-60396173D01*
X149962173Y-60709687D01*
X149907000Y-60842886D01*
X149851827Y-60709687D01*
X149538313Y-60396173D01*
X149128688Y-60226500D01*
X148685312Y-60226500D01*
X148275687Y-60396173D01*
X147962173Y-60709687D01*
X147907000Y-60842886D01*
X147851827Y-60709687D01*
X147538313Y-60396173D01*
X147128688Y-60226500D01*
X146685312Y-60226500D01*
X146275687Y-60396173D01*
X145962173Y-60709687D01*
X145907000Y-60842886D01*
X145851827Y-60709687D01*
X145538313Y-60396173D01*
X145128688Y-60226500D01*
X144685312Y-60226500D01*
X144275687Y-60396173D01*
X143962173Y-60709687D01*
X143907000Y-60842886D01*
X143851827Y-60709687D01*
X143538313Y-60396173D01*
X143128688Y-60226500D01*
X142685312Y-60226500D01*
X142275687Y-60396173D01*
X141962173Y-60709687D01*
X141907000Y-60842886D01*
X141851827Y-60709687D01*
X141538313Y-60396173D01*
X141128688Y-60226500D01*
X140685312Y-60226500D01*
X140275687Y-60396173D01*
X140094080Y-60577780D01*
X139905689Y-60521916D01*
X139086605Y-61341000D01*
X139905689Y-62160084D01*
X140094080Y-62104220D01*
X140275687Y-62285827D01*
X140685312Y-62455500D01*
X141128688Y-62455500D01*
X141538313Y-62285827D01*
X141851827Y-61972313D01*
X141907000Y-61839114D01*
X141962173Y-61972313D01*
X142275687Y-62285827D01*
X142685312Y-62455500D01*
X143128688Y-62455500D01*
X143538313Y-62285827D01*
X143851827Y-61972313D01*
X143907000Y-61839114D01*
X143962173Y-61972313D01*
X144275687Y-62285827D01*
X144685312Y-62455500D01*
X145128688Y-62455500D01*
X145538313Y-62285827D01*
X145851827Y-61972313D01*
X145907000Y-61839114D01*
X145962173Y-61972313D01*
X146275687Y-62285827D01*
X146685312Y-62455500D01*
X147128688Y-62455500D01*
X147538313Y-62285827D01*
X147851827Y-61972313D01*
X147907000Y-61839114D01*
X147962173Y-61972313D01*
X148275687Y-62285827D01*
X148685312Y-62455500D01*
X149128688Y-62455500D01*
X149538313Y-62285827D01*
X149851827Y-61972313D01*
X149907000Y-61839114D01*
X149962173Y-61972313D01*
X150275687Y-62285827D01*
X150685312Y-62455500D01*
X151128688Y-62455500D01*
X151170661Y-62438114D01*
X147764469Y-65844307D01*
X147726726Y-65869526D01*
X147628819Y-66016055D01*
X147626825Y-66019039D01*
X147591745Y-66195400D01*
X147600600Y-66239918D01*
X147600601Y-77232089D01*
X147475767Y-77107255D01*
X147245318Y-77011800D01*
X146995882Y-77011800D01*
X146765433Y-77107255D01*
X146589055Y-77283633D01*
X146493600Y-77514082D01*
X146493600Y-77763518D01*
X146589055Y-77993967D01*
X146765433Y-78170345D01*
X146995882Y-78265800D01*
X147245318Y-78265800D01*
X147475767Y-78170345D01*
X147652145Y-77993967D01*
X147661400Y-77971623D01*
X147661401Y-80163887D01*
X147505251Y-80007738D01*
X147482825Y-79974175D01*
X147349852Y-79885325D01*
X147232590Y-79862000D01*
X147232585Y-79862000D01*
X147193000Y-79854126D01*
X147153415Y-79862000D01*
X146851586Y-79862000D01*
X146812000Y-79854126D01*
X146772413Y-79862000D01*
X146772410Y-79862000D01*
X146681451Y-79880093D01*
X146655147Y-79885325D01*
X146555737Y-79951749D01*
X146555735Y-79951751D01*
X146522175Y-79974175D01*
X146499750Y-80007736D01*
X145920736Y-80586751D01*
X145887176Y-80609175D01*
X145864752Y-80642735D01*
X145864749Y-80642738D01*
X145798326Y-80742148D01*
X145767126Y-80899000D01*
X145775001Y-80938590D01*
X145775001Y-82789594D01*
X145183000Y-82789594D01*
X145055411Y-82814973D01*
X145008000Y-82846652D01*
X144960589Y-82814973D01*
X144833000Y-82789594D01*
X144183000Y-82789594D01*
X144055411Y-82814973D01*
X144008000Y-82846652D01*
X143960589Y-82814973D01*
X143833000Y-82789594D01*
X143382218Y-82789594D01*
X143371327Y-82763301D01*
X143192698Y-82584673D01*
X142959309Y-82488000D01*
X142793750Y-82488000D01*
X142635000Y-82646750D01*
X142635000Y-85296000D01*
X142655000Y-85296000D01*
X142655000Y-85550000D01*
X142635000Y-85550000D01*
X142635000Y-85570000D01*
X142381000Y-85570000D01*
X142381000Y-85550000D01*
X142361000Y-85550000D01*
X142361000Y-85296000D01*
X142381000Y-85296000D01*
X142381000Y-82646750D01*
X142222250Y-82488000D01*
X142056691Y-82488000D01*
X141823302Y-82584673D01*
X141644673Y-82763301D01*
X141633782Y-82789594D01*
X141183000Y-82789594D01*
X141055411Y-82814973D01*
X141008000Y-82846652D01*
X140960589Y-82814973D01*
X140960000Y-82814856D01*
X140960000Y-82168538D01*
X141275008Y-81853530D01*
X141312751Y-81828311D01*
X141412652Y-81678799D01*
X141438877Y-81546955D01*
X141438877Y-81546954D01*
X141447732Y-81502438D01*
X141438877Y-81457921D01*
X141438877Y-81313567D01*
X141490833Y-81365523D01*
X141721282Y-81460978D01*
X141970718Y-81460978D01*
X142201167Y-81365523D01*
X142377545Y-81189145D01*
X142471100Y-80963282D01*
X142743000Y-80963282D01*
X142743000Y-81212718D01*
X142838455Y-81443167D01*
X143014833Y-81619545D01*
X143245282Y-81715000D01*
X143494718Y-81715000D01*
X143725167Y-81619545D01*
X143878000Y-81466712D01*
X144030833Y-81619545D01*
X144261282Y-81715000D01*
X144510718Y-81715000D01*
X144741167Y-81619545D01*
X144917545Y-81443167D01*
X145013000Y-81212718D01*
X145013000Y-80963282D01*
X144917545Y-80732833D01*
X144741167Y-80556455D01*
X144539092Y-80472753D01*
X144589290Y-80422555D01*
X144684745Y-80192106D01*
X144684745Y-79942670D01*
X144589290Y-79712221D01*
X144412912Y-79535843D01*
X144182463Y-79440388D01*
X143933027Y-79440388D01*
X143702578Y-79535843D01*
X143526200Y-79712221D01*
X143430745Y-79942670D01*
X143430745Y-80192106D01*
X143526200Y-80422555D01*
X143614091Y-80510446D01*
X143494718Y-80461000D01*
X143245282Y-80461000D01*
X143014833Y-80556455D01*
X142838455Y-80732833D01*
X142743000Y-80963282D01*
X142471100Y-80963282D01*
X142473000Y-80958696D01*
X142473000Y-80709260D01*
X142377545Y-80478811D01*
X142201167Y-80302433D01*
X141970718Y-80206978D01*
X141721282Y-80206978D01*
X141490833Y-80302433D01*
X141438877Y-80354389D01*
X141438877Y-79389648D01*
X141526666Y-79601590D01*
X141703044Y-79777968D01*
X141933493Y-79873423D01*
X142182929Y-79873423D01*
X142413378Y-79777968D01*
X142589756Y-79601590D01*
X142685211Y-79371141D01*
X142685211Y-79121705D01*
X142589756Y-78891256D01*
X142413378Y-78714878D01*
X142182929Y-78619423D01*
X141933493Y-78619423D01*
X141889518Y-78637638D01*
X141961631Y-78565525D01*
X141999374Y-78540306D01*
X142099275Y-78390794D01*
X142125500Y-78258950D01*
X142125500Y-78258949D01*
X142134355Y-78214432D01*
X142125500Y-78169914D01*
X142125500Y-75230582D01*
X142235000Y-75230582D01*
X142235000Y-75480018D01*
X142330455Y-75710467D01*
X142506833Y-75886845D01*
X142737282Y-75982300D01*
X142986718Y-75982300D01*
X143217167Y-75886845D01*
X143393545Y-75710467D01*
X143489000Y-75480018D01*
X143489000Y-75230582D01*
X143393545Y-75000133D01*
X143217167Y-74823755D01*
X142986718Y-74728300D01*
X142737282Y-74728300D01*
X142506833Y-74823755D01*
X142330455Y-75000133D01*
X142235000Y-75230582D01*
X142125500Y-75230582D01*
X142125500Y-72195516D01*
X142134355Y-72150999D01*
X142113940Y-72048367D01*
X142099275Y-71974638D01*
X141999374Y-71825126D01*
X141961633Y-71799908D01*
X141174893Y-71013169D01*
X141149674Y-70975426D01*
X141000162Y-70875525D01*
X140868318Y-70849300D01*
X140823800Y-70840445D01*
X140779282Y-70849300D01*
X140569725Y-70849300D01*
X140332431Y-70612006D01*
X141052000Y-70612006D01*
X141179589Y-70586627D01*
X141287754Y-70514354D01*
X141360027Y-70406189D01*
X141385406Y-70278600D01*
X141385406Y-69308600D01*
X141360027Y-69181011D01*
X141345053Y-69158600D01*
X141360027Y-69136189D01*
X141385406Y-69008600D01*
X141385406Y-68038600D01*
X141360027Y-67911011D01*
X141345053Y-67888600D01*
X141360027Y-67866189D01*
X141385406Y-67738600D01*
X141385406Y-66768600D01*
X141360027Y-66641011D01*
X141287754Y-66532846D01*
X141179589Y-66460573D01*
X141052000Y-66435194D01*
X140866297Y-66435194D01*
X140842775Y-66316938D01*
X140742874Y-66167426D01*
X140654458Y-66108348D01*
X140576745Y-65920733D01*
X140400367Y-65744355D01*
X140169918Y-65648900D01*
X139920482Y-65648900D01*
X139690033Y-65744355D01*
X139513655Y-65920733D01*
X139418200Y-66151182D01*
X139418200Y-66400618D01*
X139501012Y-66600544D01*
X139473973Y-66641011D01*
X139461836Y-66702030D01*
X139449118Y-66699500D01*
X139404600Y-66690645D01*
X139360082Y-66699500D01*
X138324917Y-66699500D01*
X138280399Y-66690645D01*
X138235882Y-66699500D01*
X138223164Y-66702030D01*
X138211027Y-66641011D01*
X138138754Y-66532846D01*
X138030589Y-66460573D01*
X137903000Y-66435194D01*
X136633000Y-66435194D01*
X136505411Y-66460573D01*
X136397246Y-66532846D01*
X136324973Y-66641011D01*
X136305984Y-66736476D01*
X136300300Y-66735345D01*
X136255782Y-66744200D01*
X135054218Y-66744200D01*
X135009700Y-66735345D01*
X135004016Y-66736476D01*
X134985027Y-66641011D01*
X134917736Y-66540303D01*
X134990300Y-66365118D01*
X134990300Y-66115682D01*
X134894845Y-65885233D01*
X134718467Y-65708855D01*
X134488018Y-65613400D01*
X134238582Y-65613400D01*
X134008133Y-65708855D01*
X133831755Y-65885233D01*
X133736300Y-66115682D01*
X133736300Y-66365118D01*
X133765326Y-66435194D01*
X133568100Y-66435194D01*
X133568100Y-65319124D01*
X136470591Y-62416633D01*
X136505999Y-62381226D01*
X136685312Y-62455500D01*
X137128688Y-62455500D01*
X137408279Y-62339689D01*
X138087916Y-62339689D01*
X138160514Y-62584514D01*
X138693209Y-62775524D01*
X139258452Y-62748142D01*
X139653486Y-62584514D01*
X139726084Y-62339689D01*
X138907000Y-61520605D01*
X138087916Y-62339689D01*
X137408279Y-62339689D01*
X137538313Y-62285827D01*
X137719920Y-62104220D01*
X137908311Y-62160084D01*
X138727395Y-61341000D01*
X137908311Y-60521916D01*
X137719920Y-60577780D01*
X137538313Y-60396173D01*
X137408280Y-60342311D01*
X138087916Y-60342311D01*
X138907000Y-61161395D01*
X139726084Y-60342311D01*
X139653486Y-60097486D01*
X139120791Y-59906476D01*
X138555548Y-59933858D01*
X138160514Y-60097486D01*
X138087916Y-60342311D01*
X137408280Y-60342311D01*
X137128688Y-60226500D01*
X136685312Y-60226500D01*
X136275687Y-60396173D01*
X135962173Y-60709687D01*
X135792500Y-61119312D01*
X135792500Y-61562688D01*
X135866774Y-61742001D01*
X135831367Y-61777409D01*
X132827967Y-64780809D01*
X132790227Y-64806026D01*
X132765010Y-64843766D01*
X132765009Y-64843767D01*
X132690325Y-64955539D01*
X132655245Y-65131900D01*
X132664101Y-65176423D01*
X132664100Y-76125382D01*
X132655245Y-76169900D01*
X132664100Y-76214417D01*
X132690325Y-76346261D01*
X132790226Y-76495774D01*
X132827969Y-76520993D01*
X133925363Y-77618387D01*
X133801833Y-77669555D01*
X133625455Y-77845933D01*
X133530000Y-78076382D01*
X133530000Y-78325818D01*
X133625455Y-78556267D01*
X133801833Y-78732645D01*
X134032282Y-78828100D01*
X134281718Y-78828100D01*
X134512167Y-78732645D01*
X134688545Y-78556267D01*
X134739713Y-78432737D01*
X135338989Y-79032014D01*
X135338989Y-80451165D01*
X135106661Y-80451165D01*
X135071771Y-80407476D01*
X135036825Y-80355175D01*
X134989003Y-80323221D01*
X134462642Y-79879357D01*
X134449825Y-79860175D01*
X134401998Y-79828218D01*
X134388886Y-79817161D01*
X134369159Y-79806276D01*
X134316852Y-79771325D01*
X134299602Y-79767894D01*
X134284206Y-79759398D01*
X134221703Y-79752399D01*
X134199590Y-79748000D01*
X134182425Y-79748000D01*
X134125275Y-79741600D01*
X134103116Y-79748000D01*
X130826514Y-79748000D01*
X130312000Y-79233487D01*
X130312000Y-77501082D01*
X132236900Y-77501082D01*
X132236900Y-77750518D01*
X132332355Y-77980967D01*
X132508733Y-78157345D01*
X132739182Y-78252800D01*
X132988618Y-78252800D01*
X133219067Y-78157345D01*
X133395445Y-77980967D01*
X133490900Y-77750518D01*
X133490900Y-77501082D01*
X133395445Y-77270633D01*
X133219067Y-77094255D01*
X132988618Y-76998800D01*
X132739182Y-76998800D01*
X132508733Y-77094255D01*
X132332355Y-77270633D01*
X132236900Y-77501082D01*
X130312000Y-77501082D01*
X130312000Y-64539582D01*
X131399000Y-64539582D01*
X131399000Y-64789018D01*
X131494455Y-65019467D01*
X131670833Y-65195845D01*
X131901282Y-65291300D01*
X132150718Y-65291300D01*
X132381167Y-65195845D01*
X132557545Y-65019467D01*
X132653000Y-64789018D01*
X132653000Y-64539582D01*
X132557545Y-64309133D01*
X132381167Y-64132755D01*
X132150718Y-64037300D01*
X131901282Y-64037300D01*
X131670833Y-64132755D01*
X131494455Y-64309133D01*
X131399000Y-64539582D01*
X130312000Y-64539582D01*
X130312000Y-59816513D01*
X131326514Y-58802000D01*
X160493487Y-58802000D01*
X161508001Y-59816515D01*
X161508001Y-59816515D01*
G37*
X161508001Y-59816515D02*
X161508000Y-79233486D01*
X160993487Y-79748000D01*
X155986654Y-79748000D01*
X155983584Y-79746785D01*
X155906883Y-79748000D01*
X155870410Y-79748000D01*
X155867254Y-79748628D01*
X155823679Y-79749318D01*
X155789586Y-79764077D01*
X155753148Y-79771325D01*
X155716910Y-79795538D01*
X155713959Y-79796816D01*
X155683979Y-79817542D01*
X155620175Y-79860175D01*
X155618340Y-79862921D01*
X154967949Y-80312563D01*
X154904176Y-80355175D01*
X154879965Y-80391410D01*
X154849638Y-80422713D01*
X154835966Y-80457259D01*
X154815326Y-80488148D01*
X154806824Y-80530891D01*
X154790785Y-80571416D01*
X154792001Y-80648150D01*
X154792001Y-80701289D01*
X154647167Y-80556455D01*
X154622135Y-80546087D01*
X156748731Y-78419491D01*
X156786474Y-78394272D01*
X156886375Y-78244760D01*
X156893629Y-78208289D01*
X157064582Y-78279100D01*
X157314018Y-78279100D01*
X157544467Y-78183645D01*
X157663900Y-78064212D01*
X157737933Y-78138245D01*
X157968382Y-78233700D01*
X158217818Y-78233700D01*
X158448267Y-78138245D01*
X158624645Y-77961867D01*
X158720100Y-77731418D01*
X158720100Y-77481982D01*
X158624645Y-77251533D01*
X158448267Y-77075155D01*
X158217818Y-76979700D01*
X157968382Y-76979700D01*
X157737933Y-77075155D01*
X157618500Y-77194588D01*
X157544467Y-77120555D01*
X157314018Y-77025100D01*
X157064582Y-77025100D01*
X156912600Y-77088053D01*
X156912600Y-63976617D01*
X156921455Y-63932099D01*
X156886375Y-63755738D01*
X156811691Y-63643966D01*
X156786474Y-63606226D01*
X156748734Y-63581009D01*
X155629630Y-62461906D01*
X155694500Y-62461906D01*
X155822089Y-62436527D01*
X155930254Y-62364254D01*
X156002527Y-62256089D01*
X156027906Y-62128500D01*
X156027906Y-60553500D01*
X156002527Y-60425911D01*
X155930254Y-60317746D01*
X155822089Y-60245473D01*
X155694500Y-60220094D01*
X154119500Y-60220094D01*
X153991911Y-60245473D01*
X153883746Y-60317746D01*
X153811473Y-60425911D01*
X153786094Y-60553500D01*
X153786094Y-60643954D01*
X153538313Y-60396173D01*
X153128688Y-60226500D01*
X152685312Y-60226500D01*
X152275687Y-60396173D01*
X151962173Y-60709687D01*
X151907000Y-60842886D01*
X151851827Y-60709687D01*
X151538313Y-60396173D01*
X151128688Y-60226500D01*
X150685312Y-60226500D01*
X150275687Y-60396173D01*
X149962173Y-60709687D01*
X149907000Y-60842886D01*
X149851827Y-60709687D01*
X149538313Y-60396173D01*
X149128688Y-60226500D01*
X148685312Y-60226500D01*
X148275687Y-60396173D01*
X147962173Y-60709687D01*
X147907000Y-60842886D01*
X147851827Y-60709687D01*
X147538313Y-60396173D01*
X147128688Y-60226500D01*
X146685312Y-60226500D01*
X146275687Y-60396173D01*
X145962173Y-60709687D01*
X145907000Y-60842886D01*
X145851827Y-60709687D01*
X145538313Y-60396173D01*
X145128688Y-60226500D01*
X144685312Y-60226500D01*
X144275687Y-60396173D01*
X143962173Y-60709687D01*
X143907000Y-60842886D01*
X143851827Y-60709687D01*
X143538313Y-60396173D01*
X143128688Y-60226500D01*
X142685312Y-60226500D01*
X142275687Y-60396173D01*
X141962173Y-60709687D01*
X141907000Y-60842886D01*
X141851827Y-60709687D01*
X141538313Y-60396173D01*
X141128688Y-60226500D01*
X140685312Y-60226500D01*
X140275687Y-60396173D01*
X140094080Y-60577780D01*
X139905689Y-60521916D01*
X139086605Y-61341000D01*
X139905689Y-62160084D01*
X140094080Y-62104220D01*
X140275687Y-62285827D01*
X140685312Y-62455500D01*
X141128688Y-62455500D01*
X141538313Y-62285827D01*
X141851827Y-61972313D01*
X141907000Y-61839114D01*
X141962173Y-61972313D01*
X142275687Y-62285827D01*
X142685312Y-62455500D01*
X143128688Y-62455500D01*
X143538313Y-62285827D01*
X143851827Y-61972313D01*
X143907000Y-61839114D01*
X143962173Y-61972313D01*
X144275687Y-62285827D01*
X144685312Y-62455500D01*
X145128688Y-62455500D01*
X145538313Y-62285827D01*
X145851827Y-61972313D01*
X145907000Y-61839114D01*
X145962173Y-61972313D01*
X146275687Y-62285827D01*
X146685312Y-62455500D01*
X147128688Y-62455500D01*
X147538313Y-62285827D01*
X147851827Y-61972313D01*
X147907000Y-61839114D01*
X147962173Y-61972313D01*
X148275687Y-62285827D01*
X148685312Y-62455500D01*
X149128688Y-62455500D01*
X149538313Y-62285827D01*
X149851827Y-61972313D01*
X149907000Y-61839114D01*
X149962173Y-61972313D01*
X150275687Y-62285827D01*
X150685312Y-62455500D01*
X151128688Y-62455500D01*
X151170661Y-62438114D01*
X147764469Y-65844307D01*
X147726726Y-65869526D01*
X147628819Y-66016055D01*
X147626825Y-66019039D01*
X147591745Y-66195400D01*
X147600600Y-66239918D01*
X147600601Y-77232089D01*
X147475767Y-77107255D01*
X147245318Y-77011800D01*
X146995882Y-77011800D01*
X146765433Y-77107255D01*
X146589055Y-77283633D01*
X146493600Y-77514082D01*
X146493600Y-77763518D01*
X146589055Y-77993967D01*
X146765433Y-78170345D01*
X146995882Y-78265800D01*
X147245318Y-78265800D01*
X147475767Y-78170345D01*
X147652145Y-77993967D01*
X147661400Y-77971623D01*
X147661401Y-80163887D01*
X147505251Y-80007738D01*
X147482825Y-79974175D01*
X147349852Y-79885325D01*
X147232590Y-79862000D01*
X147232585Y-79862000D01*
X147193000Y-79854126D01*
X147153415Y-79862000D01*
X146851586Y-79862000D01*
X146812000Y-79854126D01*
X146772413Y-79862000D01*
X146772410Y-79862000D01*
X146681451Y-79880093D01*
X146655147Y-79885325D01*
X146555737Y-79951749D01*
X146555735Y-79951751D01*
X146522175Y-79974175D01*
X146499750Y-80007736D01*
X145920736Y-80586751D01*
X145887176Y-80609175D01*
X145864752Y-80642735D01*
X145864749Y-80642738D01*
X145798326Y-80742148D01*
X145767126Y-80899000D01*
X145775001Y-80938590D01*
X145775001Y-82789594D01*
X145183000Y-82789594D01*
X145055411Y-82814973D01*
X145008000Y-82846652D01*
X144960589Y-82814973D01*
X144833000Y-82789594D01*
X144183000Y-82789594D01*
X144055411Y-82814973D01*
X144008000Y-82846652D01*
X143960589Y-82814973D01*
X143833000Y-82789594D01*
X143382218Y-82789594D01*
X143371327Y-82763301D01*
X143192698Y-82584673D01*
X142959309Y-82488000D01*
X142793750Y-82488000D01*
X142635000Y-82646750D01*
X142635000Y-85296000D01*
X142655000Y-85296000D01*
X142655000Y-85550000D01*
X142635000Y-85550000D01*
X142635000Y-85570000D01*
X142381000Y-85570000D01*
X142381000Y-85550000D01*
X142361000Y-85550000D01*
X142361000Y-85296000D01*
X142381000Y-85296000D01*
X142381000Y-82646750D01*
X142222250Y-82488000D01*
X142056691Y-82488000D01*
X141823302Y-82584673D01*
X141644673Y-82763301D01*
X141633782Y-82789594D01*
X141183000Y-82789594D01*
X141055411Y-82814973D01*
X141008000Y-82846652D01*
X140960589Y-82814973D01*
X140960000Y-82814856D01*
X140960000Y-82168538D01*
X141275008Y-81853530D01*
X141312751Y-81828311D01*
X141412652Y-81678799D01*
X141438877Y-81546955D01*
X141438877Y-81546954D01*
X141447732Y-81502438D01*
X141438877Y-81457921D01*
X141438877Y-81313567D01*
X141490833Y-81365523D01*
X141721282Y-81460978D01*
X141970718Y-81460978D01*
X142201167Y-81365523D01*
X142377545Y-81189145D01*
X142471100Y-80963282D01*
X142743000Y-80963282D01*
X142743000Y-81212718D01*
X142838455Y-81443167D01*
X143014833Y-81619545D01*
X143245282Y-81715000D01*
X143494718Y-81715000D01*
X143725167Y-81619545D01*
X143878000Y-81466712D01*
X144030833Y-81619545D01*
X144261282Y-81715000D01*
X144510718Y-81715000D01*
X144741167Y-81619545D01*
X144917545Y-81443167D01*
X145013000Y-81212718D01*
X145013000Y-80963282D01*
X144917545Y-80732833D01*
X144741167Y-80556455D01*
X144539092Y-80472753D01*
X144589290Y-80422555D01*
X144684745Y-80192106D01*
X144684745Y-79942670D01*
X144589290Y-79712221D01*
X144412912Y-79535843D01*
X144182463Y-79440388D01*
X143933027Y-79440388D01*
X143702578Y-79535843D01*
X143526200Y-79712221D01*
X143430745Y-79942670D01*
X143430745Y-80192106D01*
X143526200Y-80422555D01*
X143614091Y-80510446D01*
X143494718Y-80461000D01*
X143245282Y-80461000D01*
X143014833Y-80556455D01*
X142838455Y-80732833D01*
X142743000Y-80963282D01*
X142471100Y-80963282D01*
X142473000Y-80958696D01*
X142473000Y-80709260D01*
X142377545Y-80478811D01*
X142201167Y-80302433D01*
X141970718Y-80206978D01*
X141721282Y-80206978D01*
X141490833Y-80302433D01*
X141438877Y-80354389D01*
X141438877Y-79389648D01*
X141526666Y-79601590D01*
X141703044Y-79777968D01*
X141933493Y-79873423D01*
X142182929Y-79873423D01*
X142413378Y-79777968D01*
X142589756Y-79601590D01*
X142685211Y-79371141D01*
X142685211Y-79121705D01*
X142589756Y-78891256D01*
X142413378Y-78714878D01*
X142182929Y-78619423D01*
X141933493Y-78619423D01*
X141889518Y-78637638D01*
X141961631Y-78565525D01*
X141999374Y-78540306D01*
X142099275Y-78390794D01*
X142125500Y-78258950D01*
X142125500Y-78258949D01*
X142134355Y-78214432D01*
X142125500Y-78169914D01*
X142125500Y-75230582D01*
X142235000Y-75230582D01*
X142235000Y-75480018D01*
X142330455Y-75710467D01*
X142506833Y-75886845D01*
X142737282Y-75982300D01*
X142986718Y-75982300D01*
X143217167Y-75886845D01*
X143393545Y-75710467D01*
X143489000Y-75480018D01*
X143489000Y-75230582D01*
X143393545Y-75000133D01*
X143217167Y-74823755D01*
X142986718Y-74728300D01*
X142737282Y-74728300D01*
X142506833Y-74823755D01*
X142330455Y-75000133D01*
X142235000Y-75230582D01*
X142125500Y-75230582D01*
X142125500Y-72195516D01*
X142134355Y-72150999D01*
X142113940Y-72048367D01*
X142099275Y-71974638D01*
X141999374Y-71825126D01*
X141961633Y-71799908D01*
X141174893Y-71013169D01*
X141149674Y-70975426D01*
X141000162Y-70875525D01*
X140868318Y-70849300D01*
X140823800Y-70840445D01*
X140779282Y-70849300D01*
X140569725Y-70849300D01*
X140332431Y-70612006D01*
X141052000Y-70612006D01*
X141179589Y-70586627D01*
X141287754Y-70514354D01*
X141360027Y-70406189D01*
X141385406Y-70278600D01*
X141385406Y-69308600D01*
X141360027Y-69181011D01*
X141345053Y-69158600D01*
X141360027Y-69136189D01*
X141385406Y-69008600D01*
X141385406Y-68038600D01*
X141360027Y-67911011D01*
X141345053Y-67888600D01*
X141360027Y-67866189D01*
X141385406Y-67738600D01*
X141385406Y-66768600D01*
X141360027Y-66641011D01*
X141287754Y-66532846D01*
X141179589Y-66460573D01*
X141052000Y-66435194D01*
X140866297Y-66435194D01*
X140842775Y-66316938D01*
X140742874Y-66167426D01*
X140654458Y-66108348D01*
X140576745Y-65920733D01*
X140400367Y-65744355D01*
X140169918Y-65648900D01*
X139920482Y-65648900D01*
X139690033Y-65744355D01*
X139513655Y-65920733D01*
X139418200Y-66151182D01*
X139418200Y-66400618D01*
X139501012Y-66600544D01*
X139473973Y-66641011D01*
X139461836Y-66702030D01*
X139449118Y-66699500D01*
X139404600Y-66690645D01*
X139360082Y-66699500D01*
X138324917Y-66699500D01*
X138280399Y-66690645D01*
X138235882Y-66699500D01*
X138223164Y-66702030D01*
X138211027Y-66641011D01*
X138138754Y-66532846D01*
X138030589Y-66460573D01*
X137903000Y-66435194D01*
X136633000Y-66435194D01*
X136505411Y-66460573D01*
X136397246Y-66532846D01*
X136324973Y-66641011D01*
X136305984Y-66736476D01*
X136300300Y-66735345D01*
X136255782Y-66744200D01*
X135054218Y-66744200D01*
X135009700Y-66735345D01*
X135004016Y-66736476D01*
X134985027Y-66641011D01*
X134917736Y-66540303D01*
X134990300Y-66365118D01*
X134990300Y-66115682D01*
X134894845Y-65885233D01*
X134718467Y-65708855D01*
X134488018Y-65613400D01*
X134238582Y-65613400D01*
X134008133Y-65708855D01*
X133831755Y-65885233D01*
X133736300Y-66115682D01*
X133736300Y-66365118D01*
X133765326Y-66435194D01*
X133568100Y-66435194D01*
X133568100Y-65319124D01*
X136470591Y-62416633D01*
X136505999Y-62381226D01*
X136685312Y-62455500D01*
X137128688Y-62455500D01*
X137408279Y-62339689D01*
X138087916Y-62339689D01*
X138160514Y-62584514D01*
X138693209Y-62775524D01*
X139258452Y-62748142D01*
X139653486Y-62584514D01*
X139726084Y-62339689D01*
X138907000Y-61520605D01*
X138087916Y-62339689D01*
X137408279Y-62339689D01*
X137538313Y-62285827D01*
X137719920Y-62104220D01*
X137908311Y-62160084D01*
X138727395Y-61341000D01*
X137908311Y-60521916D01*
X137719920Y-60577780D01*
X137538313Y-60396173D01*
X137408280Y-60342311D01*
X138087916Y-60342311D01*
X138907000Y-61161395D01*
X139726084Y-60342311D01*
X139653486Y-60097486D01*
X139120791Y-59906476D01*
X138555548Y-59933858D01*
X138160514Y-60097486D01*
X138087916Y-60342311D01*
X137408280Y-60342311D01*
X137128688Y-60226500D01*
X136685312Y-60226500D01*
X136275687Y-60396173D01*
X135962173Y-60709687D01*
X135792500Y-61119312D01*
X135792500Y-61562688D01*
X135866774Y-61742001D01*
X135831367Y-61777409D01*
X132827967Y-64780809D01*
X132790227Y-64806026D01*
X132765010Y-64843766D01*
X132765009Y-64843767D01*
X132690325Y-64955539D01*
X132655245Y-65131900D01*
X132664101Y-65176423D01*
X132664100Y-76125382D01*
X132655245Y-76169900D01*
X132664100Y-76214417D01*
X132690325Y-76346261D01*
X132790226Y-76495774D01*
X132827969Y-76520993D01*
X133925363Y-77618387D01*
X133801833Y-77669555D01*
X133625455Y-77845933D01*
X133530000Y-78076382D01*
X133530000Y-78325818D01*
X133625455Y-78556267D01*
X133801833Y-78732645D01*
X134032282Y-78828100D01*
X134281718Y-78828100D01*
X134512167Y-78732645D01*
X134688545Y-78556267D01*
X134739713Y-78432737D01*
X135338989Y-79032014D01*
X135338989Y-80451165D01*
X135106661Y-80451165D01*
X135071771Y-80407476D01*
X135036825Y-80355175D01*
X134989003Y-80323221D01*
X134462642Y-79879357D01*
X134449825Y-79860175D01*
X134401998Y-79828218D01*
X134388886Y-79817161D01*
X134369159Y-79806276D01*
X134316852Y-79771325D01*
X134299602Y-79767894D01*
X134284206Y-79759398D01*
X134221703Y-79752399D01*
X134199590Y-79748000D01*
X134182425Y-79748000D01*
X134125275Y-79741600D01*
X134103116Y-79748000D01*
X130826514Y-79748000D01*
X130312000Y-79233487D01*
X130312000Y-77501082D01*
X132236900Y-77501082D01*
X132236900Y-77750518D01*
X132332355Y-77980967D01*
X132508733Y-78157345D01*
X132739182Y-78252800D01*
X132988618Y-78252800D01*
X133219067Y-78157345D01*
X133395445Y-77980967D01*
X133490900Y-77750518D01*
X133490900Y-77501082D01*
X133395445Y-77270633D01*
X133219067Y-77094255D01*
X132988618Y-76998800D01*
X132739182Y-76998800D01*
X132508733Y-77094255D01*
X132332355Y-77270633D01*
X132236900Y-77501082D01*
X130312000Y-77501082D01*
X130312000Y-64539582D01*
X131399000Y-64539582D01*
X131399000Y-64789018D01*
X131494455Y-65019467D01*
X131670833Y-65195845D01*
X131901282Y-65291300D01*
X132150718Y-65291300D01*
X132381167Y-65195845D01*
X132557545Y-65019467D01*
X132653000Y-64789018D01*
X132653000Y-64539582D01*
X132557545Y-64309133D01*
X132381167Y-64132755D01*
X132150718Y-64037300D01*
X131901282Y-64037300D01*
X131670833Y-64132755D01*
X131494455Y-64309133D01*
X131399000Y-64539582D01*
X130312000Y-64539582D01*
X130312000Y-59816513D01*
X131326514Y-58802000D01*
X160493487Y-58802000D01*
X161508001Y-59816515D01*
M02*
