M48
INCH,TZ
T1C0.0118
T2C0.0413
%
G90
G05
T1
X51979Y-25458
X52309Y-30561
X52772Y-28071
X52818Y-30788
X52899Y-26079
X53235Y-31921
X53240Y-26701
X53263Y-30266
X53443Y-26929
X53695Y-29282
X53792Y-29687
X53845Y-31924
X53942Y-29111
X54077Y-30600
X54151Y-31893
X54337Y-28226
X54416Y-29689
X54444Y-30566
X54445Y-31924
X54480Y-27006
X54561Y-29097
X54561Y-31045
X54615Y-26664
X54710Y-28227
X54852Y-27655
X54924Y-31967
X54991Y-30557
X55136Y-26093
X55212Y-31902
X55352Y-28309
X55383Y-28824
X55845Y-31824
X55928Y-31199
X56245Y-29667
X56445Y-31924
X56716Y-31523
X56845Y-31924
X57921Y-30566
X58557Y-28410
X58586Y-30571
X58747Y-26535
X58759Y-26200
X58845Y-31924
X59108Y-25672
X59160Y-27172
X59367Y-30612
X59426Y-27357
X59545Y-31924
X60045Y-31924
X60159Y-29190
X60166Y-30549
X60394Y-28219
X60502Y-30546
X60617Y-27244
X60622Y-27638
X60653Y-29101
X60745Y-31924
X60920Y-26596
X61131Y-30638
X61369Y-29977
X61372Y-28338
X61886Y-30572
X62241Y-30554
T2
X53900Y-24150
X54688Y-24150
X55475Y-24150
X56263Y-24150
X57050Y-24150
X57837Y-24150
X58625Y-24150
X59412Y-24150
X60200Y-24150
X60987Y-24150
T0
M30
