G04 #@! TF.GenerationSoftware,KiCad,Pcbnew,(2018-01-07 revision 47989ccfc)-makepkg*
G04 #@! TF.CreationDate,2018-01-17T00:09:11+10:30*
G04 #@! TF.ProjectId,din_meter_atm90e36,64696E5F6D657465725F61746D393065,rev?*
G04 #@! TF.SameCoordinates,Original*
G04 #@! TF.FileFunction,Soldermask,Bot*
G04 #@! TF.FilePolarity,Negative*
%FSLAX46Y46*%
G04 Gerber Fmt 4.6, Leading zero omitted, Abs format (unit mm)*
G04 Created by KiCad (PCBNEW (2018-01-07 revision 47989ccfc)-makepkg) date 01/17/18 00:09:11*
%MOMM*%
%LPD*%
G01*
G04 APERTURE LIST*
%ADD10R,1.570000X1.270000*%
%ADD11O,3.850000X3.850000*%
%ADD12R,3.850000X7.800000*%
%ADD13R,3.850000X6.800000*%
%ADD14C,1.875000*%
%ADD15R,1.875000X1.875000*%
G04 APERTURE END LIST*
D10*
X148988000Y-71033600D03*
X148988000Y-69763600D03*
X148988000Y-68493600D03*
X137268000Y-67253600D03*
X137268000Y-68523600D03*
X137268000Y-69793600D03*
X152036000Y-71033600D03*
X152036000Y-69763600D03*
X152036000Y-68493600D03*
X155072000Y-68493600D03*
X155072000Y-69763600D03*
X155072000Y-71033600D03*
X134042000Y-69793600D03*
X134042000Y-68523600D03*
X134042000Y-67253600D03*
X140417000Y-67253600D03*
X140417000Y-68523600D03*
X140417000Y-69793600D03*
D11*
X136508000Y-87723000D03*
X154508000Y-87723000D03*
X153508000Y-87723000D03*
X148508000Y-87723000D03*
X145508000Y-87723000D03*
X152508000Y-87723000D03*
X149508000Y-87723000D03*
X137508000Y-87723000D03*
X151508000Y-87723000D03*
X150508000Y-87723000D03*
X144508000Y-87723000D03*
X143508000Y-87723000D03*
X142508000Y-87723000D03*
X141508000Y-87723000D03*
X140508000Y-87723000D03*
X139508000Y-87723000D03*
X138508000Y-87723000D03*
D12*
X149508000Y-85423000D03*
X148508000Y-85423000D03*
X154508000Y-85423000D03*
X153508000Y-85423000D03*
X152508000Y-85423000D03*
X151508000Y-85423000D03*
X150508000Y-85423000D03*
X145508000Y-85423000D03*
X144508000Y-85423000D03*
X143508000Y-85423000D03*
X142508000Y-85423000D03*
X141508000Y-85423000D03*
X140508000Y-85423000D03*
X139508000Y-85423000D03*
X138508000Y-85423000D03*
X137508000Y-85423000D03*
X136508000Y-85423000D03*
D13*
X135508000Y-84923000D03*
D14*
X136907000Y-61341000D03*
X138907000Y-61341000D03*
X140907000Y-61341000D03*
X142907000Y-61341000D03*
X144907000Y-61341000D03*
X146907000Y-61341000D03*
X148907000Y-61341000D03*
X150907000Y-61341000D03*
X152907000Y-61341000D03*
D15*
X154907000Y-61341000D03*
M02*
