G04 #@! TF.GenerationSoftware,KiCad,Pcbnew,(2018-01-07 revision 47989ccfc)-makepkg*
G04 #@! TF.CreationDate,2018-01-17T00:09:11+10:30*
G04 #@! TF.ProjectId,din_meter_atm90e36,64696E5F6D657465725F61746D393065,rev?*
G04 #@! TF.SameCoordinates,Original*
G04 #@! TF.FileFunction,Copper,L3,Inr,Signal*
G04 #@! TF.FilePolarity,Positive*
%FSLAX46Y46*%
G04 Gerber Fmt 4.6, Leading zero omitted, Abs format (unit mm)*
G04 Created by KiCad (PCBNEW (2018-01-07 revision 47989ccfc)-makepkg) date 01/17/18 00:09:11*
%MOMM*%
%LPD*%
G01*
G04 APERTURE LIST*
%ADD10C,1.575000*%
%ADD11R,1.575000X1.575000*%
%ADD12C,0.600000*%
%ADD13C,0.250000*%
%ADD14C,0.254000*%
G04 APERTURE END LIST*
D10*
X136907000Y-61341000D03*
X138907000Y-61341000D03*
X140907000Y-61341000D03*
X142907000Y-61341000D03*
X144907000Y-61341000D03*
X146907000Y-61341000D03*
X148907000Y-61341000D03*
X150907000Y-61341000D03*
X152907000Y-61341000D03*
D11*
X154907000Y-61341000D03*
D12*
X134042000Y-71299300D03*
X148734300Y-72161600D03*
X132026000Y-64664300D03*
X149218500Y-67398600D03*
X135746200Y-68400600D03*
X134363300Y-66240400D03*
X149247700Y-66547600D03*
X154737800Y-67552600D03*
X140045200Y-66275900D03*
X139324400Y-70243200D03*
X153966200Y-69200000D03*
X153980400Y-70200000D03*
X140594600Y-71905800D03*
X155884700Y-71977300D03*
X140673800Y-73211800D03*
X138379200Y-68594300D03*
X138723100Y-67726800D03*
X135228800Y-67820800D03*
X150133900Y-65207100D03*
X150265600Y-69016400D03*
X150940800Y-69487200D03*
X154059300Y-73916100D03*
X155273600Y-77819600D03*
X153401400Y-71675200D03*
X150793100Y-77755100D03*
X152804100Y-74142900D03*
X155877600Y-76141100D03*
X136766000Y-81088000D03*
X147120600Y-77638800D03*
X135215978Y-81078165D03*
X148809000Y-77650600D03*
X137544236Y-81008286D03*
X153675100Y-77587000D03*
X140237823Y-81031676D03*
X157189300Y-77652100D03*
X139505867Y-81195253D03*
X158093100Y-77606700D03*
X138290000Y-81087992D03*
X152821900Y-77594900D03*
X149466000Y-81088000D03*
X136631300Y-75403800D03*
X136384200Y-74376500D03*
X135287800Y-76875100D03*
X138962300Y-71696200D03*
X137354500Y-77724600D03*
X138585262Y-78853987D03*
X154292000Y-81088000D03*
X142058211Y-79246423D03*
X152514010Y-81088000D03*
X139677373Y-77615473D03*
X138583900Y-73907000D03*
X138015100Y-71693200D03*
X142862000Y-75355300D03*
X141846000Y-80833978D03*
X144057745Y-80067388D03*
X137013100Y-73941500D03*
X138287200Y-77637600D03*
X151244000Y-81088000D03*
X138215800Y-75410900D03*
X143370000Y-81088000D03*
X132863900Y-77625800D03*
X144386000Y-81088000D03*
X134157000Y-78201100D03*
D13*
X132026100Y-64664300D02*
X132026000Y-64664300D01*
X132026100Y-68876200D02*
X132026100Y-64664300D01*
X134245600Y-71095700D02*
X132026100Y-68876200D01*
X134042000Y-71299300D02*
X134245600Y-71095700D01*
X147668400Y-71095700D02*
X148734300Y-72161600D01*
X134245600Y-71095700D02*
X147668400Y-71095700D01*
X135632200Y-64971500D02*
X134363300Y-66240400D01*
X141276500Y-64971500D02*
X135632200Y-64971500D01*
X144907000Y-61341000D02*
X141276500Y-64971500D01*
X154286100Y-68004300D02*
X154737800Y-67552600D01*
X141773600Y-68004300D02*
X154286100Y-68004300D01*
X140045200Y-66275900D02*
X141773600Y-68004300D01*
X154650200Y-73211800D02*
X140673800Y-73211800D01*
X155884700Y-71977300D02*
X154650200Y-73211800D01*
X154802300Y-76141100D02*
X152804100Y-74142900D01*
X155877600Y-76141100D02*
X154802300Y-76141100D01*
X136766000Y-80663736D02*
X136766000Y-81088000D01*
X137600728Y-79829008D02*
X136766000Y-80663736D01*
X138885125Y-79829008D02*
X137600728Y-79829008D01*
X141272724Y-77441409D02*
X138885125Y-79829008D01*
X146498945Y-77441409D02*
X141272724Y-77441409D01*
X147120600Y-77638800D02*
X146696336Y-77638800D01*
X146696336Y-77638800D02*
X146498945Y-77441409D01*
X139827048Y-78278986D02*
X138015157Y-78278986D01*
X148169818Y-77011418D02*
X141094616Y-77011418D01*
X148809000Y-77650600D02*
X148169818Y-77011418D01*
X141094616Y-77011418D02*
X139827048Y-78278986D01*
X138015157Y-78278986D02*
X135515977Y-80778166D01*
X135515977Y-80778166D02*
X135215978Y-81078165D01*
X149078500Y-78229100D02*
X143084224Y-78229100D01*
X153107700Y-77019600D02*
X150288000Y-77019600D01*
X139050814Y-80229019D02*
X137899239Y-80229019D01*
X153675100Y-77587000D02*
X153107700Y-77019600D01*
X137544236Y-80584022D02*
X137544236Y-81008286D01*
X143084224Y-78229100D02*
X142696545Y-77841420D01*
X142696545Y-77841420D02*
X141438413Y-77841420D01*
X141438413Y-77841420D02*
X139050814Y-80229019D01*
X150288000Y-77019600D02*
X149078500Y-78229100D01*
X137899239Y-80229019D02*
X137544236Y-80584022D01*
X155782298Y-79059102D02*
X142721892Y-79059102D01*
X157189300Y-77652100D02*
X155782298Y-79059102D01*
X140237823Y-80607412D02*
X140237823Y-81031676D01*
X142334212Y-78671422D02*
X141782210Y-78671422D01*
X142721892Y-79059102D02*
X142334212Y-78671422D01*
X141782210Y-78671422D02*
X140237823Y-80215809D01*
X140237823Y-80215809D02*
X140237823Y-80607412D01*
X139805866Y-81495252D02*
X139505867Y-81195253D01*
X158093100Y-77606700D02*
X155186801Y-80512999D01*
X155186801Y-80512999D02*
X154015999Y-80512999D01*
X141567614Y-83257000D02*
X139805866Y-81495252D01*
X154015999Y-80512999D02*
X151271998Y-83257000D01*
X151271998Y-83257000D02*
X141567614Y-83257000D01*
X152821900Y-77594900D02*
X151757709Y-78659091D01*
X138714264Y-81087992D02*
X138290000Y-81087992D01*
X141616521Y-78271411D02*
X138799940Y-81087992D01*
X151757709Y-78659091D02*
X142906117Y-78659091D01*
X142906117Y-78659091D02*
X142518437Y-78271411D01*
X142518437Y-78271411D02*
X141616521Y-78271411D01*
X138799940Y-81087992D02*
X138714264Y-81087992D01*
X152514010Y-81088000D02*
X150918396Y-79492386D01*
X142304174Y-79492386D02*
X142058211Y-79246423D01*
X150918396Y-79492386D02*
X142304174Y-79492386D01*
X139677373Y-77191209D02*
X139677373Y-77615473D01*
X139677373Y-75000473D02*
X139677373Y-77191209D01*
X138583900Y-73907000D02*
X139677373Y-75000473D01*
X141677200Y-75355300D02*
X138015100Y-71693200D01*
X142862000Y-75355300D02*
X141677200Y-75355300D01*
X142612590Y-80067388D02*
X142145999Y-80533979D01*
X144057745Y-80067388D02*
X142612590Y-80067388D01*
X142145999Y-80533979D02*
X141846000Y-80833978D01*
X137590700Y-74519100D02*
X137013100Y-73941500D01*
X137590700Y-76941100D02*
X137590700Y-74519100D01*
X138287200Y-77637600D02*
X137590700Y-76941100D01*
D14*
G36*
X161508000Y-59816514D02*
X161508000Y-79233486D01*
X160993486Y-79748000D01*
X156591024Y-79748000D01*
X158105314Y-78233711D01*
X158217271Y-78233809D01*
X158447803Y-78138555D01*
X158624335Y-77962331D01*
X158719991Y-77731965D01*
X158720209Y-77482529D01*
X158624955Y-77251997D01*
X158448731Y-77075465D01*
X158218365Y-76979809D01*
X157968929Y-76979591D01*
X157738397Y-77074845D01*
X157618485Y-77194548D01*
X157544931Y-77120865D01*
X157314565Y-77025209D01*
X157065129Y-77024991D01*
X156834597Y-77120245D01*
X156658065Y-77296469D01*
X156562409Y-77526835D01*
X156562310Y-77639866D01*
X155595074Y-78607102D01*
X152448922Y-78607102D01*
X152834114Y-78221911D01*
X152946071Y-78222009D01*
X153176603Y-78126755D01*
X153252421Y-78051070D01*
X153319469Y-78118235D01*
X153549835Y-78213891D01*
X153799271Y-78214109D01*
X154029803Y-78118855D01*
X154205193Y-77943771D01*
X154646491Y-77943771D01*
X154741745Y-78174303D01*
X154917969Y-78350835D01*
X155148335Y-78446491D01*
X155397771Y-78446709D01*
X155628303Y-78351455D01*
X155804835Y-78175231D01*
X155900491Y-77944865D01*
X155900709Y-77695429D01*
X155805455Y-77464897D01*
X155629231Y-77288365D01*
X155398865Y-77192709D01*
X155149429Y-77192491D01*
X154918897Y-77287745D01*
X154742365Y-77463969D01*
X154646709Y-77694335D01*
X154646491Y-77943771D01*
X154205193Y-77943771D01*
X154206335Y-77942631D01*
X154301991Y-77712265D01*
X154302209Y-77462829D01*
X154206955Y-77232297D01*
X154030731Y-77055765D01*
X153800365Y-76960109D01*
X153687334Y-76960010D01*
X153427312Y-76699988D01*
X153280673Y-76602006D01*
X153107700Y-76567600D01*
X150288000Y-76567600D01*
X150115027Y-76602006D01*
X149968388Y-76699988D01*
X149350101Y-77318275D01*
X149340855Y-77295897D01*
X149164631Y-77119365D01*
X148934265Y-77023709D01*
X148821234Y-77023610D01*
X148489430Y-76691806D01*
X148342791Y-76593824D01*
X148169818Y-76559418D01*
X141094616Y-76559418D01*
X140921643Y-76593824D01*
X140775004Y-76691806D01*
X140207635Y-77259175D01*
X140129373Y-77180775D01*
X140129373Y-75000473D01*
X140094967Y-74827500D01*
X140061017Y-74776691D01*
X139996985Y-74680860D01*
X139210911Y-73894787D01*
X139211009Y-73782829D01*
X139115755Y-73552297D01*
X138939531Y-73375765D01*
X138709165Y-73280109D01*
X138459729Y-73279891D01*
X138229197Y-73375145D01*
X138052665Y-73551369D01*
X137957009Y-73781735D01*
X137956791Y-74031171D01*
X138052045Y-74261703D01*
X138228269Y-74438235D01*
X138458635Y-74533891D01*
X138571666Y-74533990D01*
X139225373Y-75187698D01*
X139225373Y-77180745D01*
X139146138Y-77259842D01*
X139050482Y-77490208D01*
X139050264Y-77739644D01*
X139086353Y-77826986D01*
X138887466Y-77826986D01*
X138914091Y-77762865D01*
X138914309Y-77513429D01*
X138819055Y-77282897D01*
X138642831Y-77106365D01*
X138412465Y-77010709D01*
X138299434Y-77010610D01*
X138042700Y-76753876D01*
X138042700Y-76017928D01*
X138090535Y-76037791D01*
X138339971Y-76038009D01*
X138570503Y-75942755D01*
X138747035Y-75766531D01*
X138842691Y-75536165D01*
X138842909Y-75286729D01*
X138747655Y-75056197D01*
X138571431Y-74879665D01*
X138341065Y-74784009D01*
X138091629Y-74783791D01*
X138042700Y-74804008D01*
X138042700Y-74519100D01*
X138008294Y-74346127D01*
X137910312Y-74199488D01*
X137640111Y-73929287D01*
X137640209Y-73817329D01*
X137544955Y-73586797D01*
X137368731Y-73410265D01*
X137138365Y-73314609D01*
X136888929Y-73314391D01*
X136658397Y-73409645D01*
X136481865Y-73585869D01*
X136413909Y-73749525D01*
X136260029Y-73749391D01*
X136029497Y-73844645D01*
X135852965Y-74020869D01*
X135757309Y-74251235D01*
X135757091Y-74500671D01*
X135852345Y-74731203D01*
X136028569Y-74907735D01*
X136178415Y-74969956D01*
X136100065Y-75048169D01*
X136004409Y-75278535D01*
X136004191Y-75527971D01*
X136099445Y-75758503D01*
X136275669Y-75935035D01*
X136506035Y-76030691D01*
X136755471Y-76030909D01*
X136986003Y-75935655D01*
X137138700Y-75783224D01*
X137138700Y-76941100D01*
X137173106Y-77114073D01*
X137176804Y-77119607D01*
X136999797Y-77192745D01*
X136823265Y-77368969D01*
X136727609Y-77599335D01*
X136727391Y-77848771D01*
X136822645Y-78079303D01*
X136998869Y-78255835D01*
X137229235Y-78351491D01*
X137303363Y-78351556D01*
X135203765Y-80451154D01*
X135096694Y-80451060D01*
X135065532Y-80412038D01*
X135031257Y-80360743D01*
X135016915Y-80351160D01*
X135006152Y-80337682D01*
X134419152Y-79842682D01*
X134365137Y-79812877D01*
X134313839Y-79778600D01*
X134296921Y-79775235D01*
X134281820Y-79766902D01*
X134220508Y-79760036D01*
X134160000Y-79748000D01*
X130826514Y-79748000D01*
X130312000Y-79233486D01*
X130312000Y-78325271D01*
X133529891Y-78325271D01*
X133625145Y-78555803D01*
X133801369Y-78732335D01*
X134031735Y-78827991D01*
X134281171Y-78828209D01*
X134511703Y-78732955D01*
X134688235Y-78556731D01*
X134783891Y-78326365D01*
X134784109Y-78076929D01*
X134688855Y-77846397D01*
X134512631Y-77669865D01*
X134282265Y-77574209D01*
X134032829Y-77573991D01*
X133802297Y-77669245D01*
X133625765Y-77845469D01*
X133530109Y-78075835D01*
X133529891Y-78325271D01*
X130312000Y-78325271D01*
X130312000Y-77749971D01*
X132236791Y-77749971D01*
X132332045Y-77980503D01*
X132508269Y-78157035D01*
X132738635Y-78252691D01*
X132988071Y-78252909D01*
X133218603Y-78157655D01*
X133395135Y-77981431D01*
X133490791Y-77751065D01*
X133491009Y-77501629D01*
X133395755Y-77271097D01*
X133219531Y-77094565D01*
X132990037Y-76999271D01*
X134660691Y-76999271D01*
X134755945Y-77229803D01*
X134932169Y-77406335D01*
X135162535Y-77501991D01*
X135411971Y-77502209D01*
X135642503Y-77406955D01*
X135819035Y-77230731D01*
X135914691Y-77000365D01*
X135914909Y-76750929D01*
X135819655Y-76520397D01*
X135643431Y-76343865D01*
X135413065Y-76248209D01*
X135163629Y-76247991D01*
X134933097Y-76343245D01*
X134756565Y-76519469D01*
X134660909Y-76749835D01*
X134660691Y-76999271D01*
X132990037Y-76999271D01*
X132989165Y-76998909D01*
X132739729Y-76998691D01*
X132509197Y-77093945D01*
X132332665Y-77270169D01*
X132237009Y-77500535D01*
X132236791Y-77749971D01*
X130312000Y-77749971D01*
X130312000Y-71817371D01*
X137387991Y-71817371D01*
X137483245Y-72047903D01*
X137659469Y-72224435D01*
X137889835Y-72320091D01*
X138002866Y-72320190D01*
X141357587Y-75674912D01*
X141504226Y-75772894D01*
X141532924Y-75778602D01*
X141677200Y-75807300D01*
X142427272Y-75807300D01*
X142506369Y-75886535D01*
X142736735Y-75982191D01*
X142986171Y-75982409D01*
X143216703Y-75887155D01*
X143393235Y-75710931D01*
X143488891Y-75480565D01*
X143489109Y-75231129D01*
X143393855Y-75000597D01*
X143217631Y-74824065D01*
X142987265Y-74728409D01*
X142737829Y-74728191D01*
X142507297Y-74823445D01*
X142427302Y-74903300D01*
X141864425Y-74903300D01*
X140799431Y-73838306D01*
X141028503Y-73743655D01*
X141108498Y-73663800D01*
X152396550Y-73663800D01*
X152272865Y-73787269D01*
X152177209Y-74017635D01*
X152176991Y-74267071D01*
X152272245Y-74497603D01*
X152448469Y-74674135D01*
X152678835Y-74769791D01*
X152791866Y-74769890D01*
X154482688Y-76460713D01*
X154629327Y-76558694D01*
X154802300Y-76593100D01*
X155442872Y-76593100D01*
X155521969Y-76672335D01*
X155752335Y-76767991D01*
X156001771Y-76768209D01*
X156232303Y-76672955D01*
X156408835Y-76496731D01*
X156504491Y-76266365D01*
X156504709Y-76016929D01*
X156409455Y-75786397D01*
X156233231Y-75609865D01*
X156002865Y-75514209D01*
X155753429Y-75513991D01*
X155522897Y-75609245D01*
X155442902Y-75689100D01*
X154989525Y-75689100D01*
X153779067Y-74478643D01*
X153934035Y-74542991D01*
X154183471Y-74543209D01*
X154414003Y-74447955D01*
X154590535Y-74271731D01*
X154686191Y-74041365D01*
X154686409Y-73791929D01*
X154633467Y-73663800D01*
X154650200Y-73663800D01*
X154823173Y-73629394D01*
X154969812Y-73531412D01*
X155896914Y-72604311D01*
X156008871Y-72604409D01*
X156239403Y-72509155D01*
X156415935Y-72332931D01*
X156511591Y-72102565D01*
X156511809Y-71853129D01*
X156416555Y-71622597D01*
X156240331Y-71446065D01*
X156009965Y-71350409D01*
X155760529Y-71350191D01*
X155529997Y-71445445D01*
X155353465Y-71621669D01*
X155257809Y-71852035D01*
X155257710Y-71965065D01*
X154462976Y-72759800D01*
X141108528Y-72759800D01*
X141029431Y-72680565D01*
X140799065Y-72584909D01*
X140549629Y-72584691D01*
X140319097Y-72679945D01*
X140142565Y-72856169D01*
X140047129Y-73086005D01*
X139226553Y-72265428D01*
X139317003Y-72228055D01*
X139493535Y-72051831D01*
X139502612Y-72029971D01*
X139967491Y-72029971D01*
X140062745Y-72260503D01*
X140238969Y-72437035D01*
X140469335Y-72532691D01*
X140718771Y-72532909D01*
X140949303Y-72437655D01*
X141125835Y-72261431D01*
X141221491Y-72031065D01*
X141221693Y-71799371D01*
X152774291Y-71799371D01*
X152869545Y-72029903D01*
X153045769Y-72206435D01*
X153276135Y-72302091D01*
X153525571Y-72302309D01*
X153756103Y-72207055D01*
X153932635Y-72030831D01*
X154028291Y-71800465D01*
X154028509Y-71551029D01*
X153933255Y-71320497D01*
X153757031Y-71143965D01*
X153526665Y-71048309D01*
X153277229Y-71048091D01*
X153046697Y-71143345D01*
X152870165Y-71319569D01*
X152774509Y-71549935D01*
X152774291Y-71799371D01*
X141221693Y-71799371D01*
X141221709Y-71781629D01*
X141126455Y-71551097D01*
X140950231Y-71374565D01*
X140719865Y-71278909D01*
X140470429Y-71278691D01*
X140239897Y-71373945D01*
X140063365Y-71550169D01*
X139967709Y-71780535D01*
X139967491Y-72029971D01*
X139502612Y-72029971D01*
X139589191Y-71821465D01*
X139589409Y-71572029D01*
X139494155Y-71341497D01*
X139317931Y-71164965D01*
X139087565Y-71069309D01*
X138838129Y-71069091D01*
X138607597Y-71164345D01*
X138490147Y-71281590D01*
X138370731Y-71161965D01*
X138140365Y-71066309D01*
X137890929Y-71066091D01*
X137660397Y-71161345D01*
X137483865Y-71337569D01*
X137388209Y-71567935D01*
X137387991Y-71817371D01*
X130312000Y-71817371D01*
X130312000Y-70367371D01*
X138697291Y-70367371D01*
X138792545Y-70597903D01*
X138968769Y-70774435D01*
X139199135Y-70870091D01*
X139448571Y-70870309D01*
X139679103Y-70775055D01*
X139855635Y-70598831D01*
X139951291Y-70368465D01*
X139951509Y-70119029D01*
X139856255Y-69888497D01*
X139680031Y-69711965D01*
X139449665Y-69616309D01*
X139200229Y-69616091D01*
X138969697Y-69711345D01*
X138793165Y-69887569D01*
X138697509Y-70117935D01*
X138697291Y-70367371D01*
X130312000Y-70367371D01*
X130312000Y-69324171D01*
X153339091Y-69324171D01*
X153434345Y-69554703D01*
X153586575Y-69707199D01*
X153449165Y-69844369D01*
X153353509Y-70074735D01*
X153353291Y-70324171D01*
X153448545Y-70554703D01*
X153624769Y-70731235D01*
X153855135Y-70826891D01*
X154104571Y-70827109D01*
X154335103Y-70731855D01*
X154511635Y-70555631D01*
X154607291Y-70325265D01*
X154607509Y-70075829D01*
X154512255Y-69845297D01*
X154360025Y-69692801D01*
X154497435Y-69555631D01*
X154593091Y-69325265D01*
X154593309Y-69075829D01*
X154498055Y-68845297D01*
X154321831Y-68668765D01*
X154091465Y-68573109D01*
X153842029Y-68572891D01*
X153611497Y-68668145D01*
X153434965Y-68844369D01*
X153339309Y-69074735D01*
X153339091Y-69324171D01*
X130312000Y-69324171D01*
X130312000Y-67944971D01*
X134601691Y-67944971D01*
X134696945Y-68175503D01*
X134873169Y-68352035D01*
X135103535Y-68447691D01*
X135119158Y-68447705D01*
X135119091Y-68524771D01*
X135214345Y-68755303D01*
X135390569Y-68931835D01*
X135620935Y-69027491D01*
X135870371Y-69027709D01*
X136100903Y-68932455D01*
X136277435Y-68756231D01*
X136373091Y-68525865D01*
X136373309Y-68276429D01*
X136278055Y-68045897D01*
X136101831Y-67869365D01*
X135871465Y-67773709D01*
X135855842Y-67773695D01*
X135855909Y-67696629D01*
X135760655Y-67466097D01*
X135584431Y-67289565D01*
X135354065Y-67193909D01*
X135104629Y-67193691D01*
X134874097Y-67288945D01*
X134697565Y-67465169D01*
X134601909Y-67695535D01*
X134601691Y-67944971D01*
X130312000Y-67944971D01*
X130312000Y-66364571D01*
X133736191Y-66364571D01*
X133831445Y-66595103D01*
X134007669Y-66771635D01*
X134238035Y-66867291D01*
X134487471Y-66867509D01*
X134718003Y-66772255D01*
X134894535Y-66596031D01*
X134975904Y-66400071D01*
X139418091Y-66400071D01*
X139513345Y-66630603D01*
X139689569Y-66807135D01*
X139919935Y-66902791D01*
X140032966Y-66902890D01*
X141453988Y-68323912D01*
X141600627Y-68421894D01*
X141773600Y-68456300D01*
X154286100Y-68456300D01*
X154459073Y-68421894D01*
X154605712Y-68323912D01*
X154750013Y-68179611D01*
X154861971Y-68179709D01*
X155092503Y-68084455D01*
X155269035Y-67908231D01*
X155364691Y-67677865D01*
X155364909Y-67428429D01*
X155269655Y-67197897D01*
X155093431Y-67021365D01*
X154863065Y-66925709D01*
X154613629Y-66925491D01*
X154383097Y-67020745D01*
X154206565Y-67196969D01*
X154110909Y-67427335D01*
X154110810Y-67540366D01*
X154098876Y-67552300D01*
X149833584Y-67552300D01*
X149845391Y-67523865D01*
X149845609Y-67274429D01*
X149750355Y-67043897D01*
X149694287Y-66987731D01*
X149778935Y-66903231D01*
X149874591Y-66672865D01*
X149874809Y-66423429D01*
X149779555Y-66192897D01*
X149603331Y-66016365D01*
X149372965Y-65920709D01*
X149123529Y-65920491D01*
X148892997Y-66015745D01*
X148716465Y-66191969D01*
X148620809Y-66422335D01*
X148620591Y-66671771D01*
X148715845Y-66902303D01*
X148771913Y-66958469D01*
X148687265Y-67042969D01*
X148591609Y-67273335D01*
X148591391Y-67522771D01*
X148603592Y-67552300D01*
X141960824Y-67552300D01*
X140672211Y-66263687D01*
X140672309Y-66151729D01*
X140577055Y-65921197D01*
X140400831Y-65744665D01*
X140170465Y-65649009D01*
X139921029Y-65648791D01*
X139690497Y-65744045D01*
X139513965Y-65920269D01*
X139418309Y-66150635D01*
X139418091Y-66400071D01*
X134975904Y-66400071D01*
X134990191Y-66365665D01*
X134990290Y-66252634D01*
X135819425Y-65423500D01*
X141276500Y-65423500D01*
X141449473Y-65389094D01*
X141536010Y-65331271D01*
X149506791Y-65331271D01*
X149602045Y-65561803D01*
X149778269Y-65738335D01*
X150008635Y-65833991D01*
X150258071Y-65834209D01*
X150488603Y-65738955D01*
X150665135Y-65562731D01*
X150760791Y-65332365D01*
X150761009Y-65082929D01*
X150665755Y-64852397D01*
X150489531Y-64675865D01*
X150259165Y-64580209D01*
X150009729Y-64579991D01*
X149779197Y-64675245D01*
X149602665Y-64851469D01*
X149507009Y-65081835D01*
X149506791Y-65331271D01*
X141536010Y-65331271D01*
X141596112Y-65291112D01*
X144505980Y-62381245D01*
X144684340Y-62455306D01*
X145127715Y-62455693D01*
X145537489Y-62286378D01*
X145851276Y-61973138D01*
X145906927Y-61839116D01*
X145961622Y-61971489D01*
X146274862Y-62285276D01*
X146684340Y-62455306D01*
X147127715Y-62455693D01*
X147537489Y-62286378D01*
X147851276Y-61973138D01*
X147906927Y-61839116D01*
X147961622Y-61971489D01*
X148274862Y-62285276D01*
X148684340Y-62455306D01*
X149127715Y-62455693D01*
X149537489Y-62286378D01*
X149851276Y-61973138D01*
X149906927Y-61839116D01*
X149961622Y-61971489D01*
X150274862Y-62285276D01*
X150684340Y-62455306D01*
X151127715Y-62455693D01*
X151537489Y-62286378D01*
X151851276Y-61973138D01*
X151906927Y-61839116D01*
X151961622Y-61971489D01*
X152274862Y-62285276D01*
X152684340Y-62455306D01*
X153127715Y-62455693D01*
X153537489Y-62286378D01*
X153786094Y-62038206D01*
X153786094Y-62128500D01*
X153811473Y-62256089D01*
X153883746Y-62364254D01*
X153991911Y-62436527D01*
X154119500Y-62461906D01*
X155694500Y-62461906D01*
X155822089Y-62436527D01*
X155930254Y-62364254D01*
X156002527Y-62256089D01*
X156027906Y-62128500D01*
X156027906Y-60553500D01*
X156002527Y-60425911D01*
X155930254Y-60317746D01*
X155822089Y-60245473D01*
X155694500Y-60220094D01*
X154119500Y-60220094D01*
X153991911Y-60245473D01*
X153883746Y-60317746D01*
X153811473Y-60425911D01*
X153786094Y-60553500D01*
X153786094Y-60644111D01*
X153539138Y-60396724D01*
X153129660Y-60226694D01*
X152686285Y-60226307D01*
X152276511Y-60395622D01*
X151962724Y-60708862D01*
X151907073Y-60842884D01*
X151852378Y-60710511D01*
X151539138Y-60396724D01*
X151129660Y-60226694D01*
X150686285Y-60226307D01*
X150276511Y-60395622D01*
X149962724Y-60708862D01*
X149907073Y-60842884D01*
X149852378Y-60710511D01*
X149539138Y-60396724D01*
X149129660Y-60226694D01*
X148686285Y-60226307D01*
X148276511Y-60395622D01*
X147962724Y-60708862D01*
X147907073Y-60842884D01*
X147852378Y-60710511D01*
X147539138Y-60396724D01*
X147129660Y-60226694D01*
X146686285Y-60226307D01*
X146276511Y-60395622D01*
X145962724Y-60708862D01*
X145907073Y-60842884D01*
X145852378Y-60710511D01*
X145539138Y-60396724D01*
X145129660Y-60226694D01*
X144686285Y-60226307D01*
X144276511Y-60395622D01*
X143962724Y-60708862D01*
X143907073Y-60842884D01*
X143852378Y-60710511D01*
X143539138Y-60396724D01*
X143129660Y-60226694D01*
X142686285Y-60226307D01*
X142276511Y-60395622D01*
X141962724Y-60708862D01*
X141907073Y-60842884D01*
X141852378Y-60710511D01*
X141539138Y-60396724D01*
X141129660Y-60226694D01*
X140686285Y-60226307D01*
X140276511Y-60395622D01*
X139962724Y-60708862D01*
X139907073Y-60842884D01*
X139852378Y-60710511D01*
X139539138Y-60396724D01*
X139129660Y-60226694D01*
X138686285Y-60226307D01*
X138276511Y-60395622D01*
X137962724Y-60708862D01*
X137907073Y-60842884D01*
X137852378Y-60710511D01*
X137539138Y-60396724D01*
X137129660Y-60226694D01*
X136686285Y-60226307D01*
X136276511Y-60395622D01*
X135962724Y-60708862D01*
X135792694Y-61118340D01*
X135792307Y-61561715D01*
X135961622Y-61971489D01*
X136274862Y-62285276D01*
X136684340Y-62455306D01*
X137127715Y-62455693D01*
X137537489Y-62286378D01*
X137851276Y-61973138D01*
X137906927Y-61839116D01*
X137961622Y-61971489D01*
X138274862Y-62285276D01*
X138684340Y-62455306D01*
X139127715Y-62455693D01*
X139537489Y-62286378D01*
X139851276Y-61973138D01*
X139906927Y-61839116D01*
X139961622Y-61971489D01*
X140274862Y-62285276D01*
X140684340Y-62455306D01*
X141127715Y-62455693D01*
X141537489Y-62286378D01*
X141851276Y-61973138D01*
X141906927Y-61839116D01*
X141961622Y-61971489D01*
X142274862Y-62285276D01*
X142684340Y-62455306D01*
X143127715Y-62455693D01*
X143170944Y-62437831D01*
X141089276Y-64519500D01*
X135632200Y-64519500D01*
X135459227Y-64553906D01*
X135312588Y-64651887D01*
X134351087Y-65613389D01*
X134239129Y-65613291D01*
X134008597Y-65708545D01*
X133832065Y-65884769D01*
X133736409Y-66115135D01*
X133736191Y-66364571D01*
X130312000Y-66364571D01*
X130312000Y-59816514D01*
X131326514Y-58802000D01*
X160493486Y-58802000D01*
X161508000Y-59816514D01*
X161508000Y-59816514D01*
G37*
X161508000Y-59816514D02*
X161508000Y-79233486D01*
X160993486Y-79748000D01*
X156591024Y-79748000D01*
X158105314Y-78233711D01*
X158217271Y-78233809D01*
X158447803Y-78138555D01*
X158624335Y-77962331D01*
X158719991Y-77731965D01*
X158720209Y-77482529D01*
X158624955Y-77251997D01*
X158448731Y-77075465D01*
X158218365Y-76979809D01*
X157968929Y-76979591D01*
X157738397Y-77074845D01*
X157618485Y-77194548D01*
X157544931Y-77120865D01*
X157314565Y-77025209D01*
X157065129Y-77024991D01*
X156834597Y-77120245D01*
X156658065Y-77296469D01*
X156562409Y-77526835D01*
X156562310Y-77639866D01*
X155595074Y-78607102D01*
X152448922Y-78607102D01*
X152834114Y-78221911D01*
X152946071Y-78222009D01*
X153176603Y-78126755D01*
X153252421Y-78051070D01*
X153319469Y-78118235D01*
X153549835Y-78213891D01*
X153799271Y-78214109D01*
X154029803Y-78118855D01*
X154205193Y-77943771D01*
X154646491Y-77943771D01*
X154741745Y-78174303D01*
X154917969Y-78350835D01*
X155148335Y-78446491D01*
X155397771Y-78446709D01*
X155628303Y-78351455D01*
X155804835Y-78175231D01*
X155900491Y-77944865D01*
X155900709Y-77695429D01*
X155805455Y-77464897D01*
X155629231Y-77288365D01*
X155398865Y-77192709D01*
X155149429Y-77192491D01*
X154918897Y-77287745D01*
X154742365Y-77463969D01*
X154646709Y-77694335D01*
X154646491Y-77943771D01*
X154205193Y-77943771D01*
X154206335Y-77942631D01*
X154301991Y-77712265D01*
X154302209Y-77462829D01*
X154206955Y-77232297D01*
X154030731Y-77055765D01*
X153800365Y-76960109D01*
X153687334Y-76960010D01*
X153427312Y-76699988D01*
X153280673Y-76602006D01*
X153107700Y-76567600D01*
X150288000Y-76567600D01*
X150115027Y-76602006D01*
X149968388Y-76699988D01*
X149350101Y-77318275D01*
X149340855Y-77295897D01*
X149164631Y-77119365D01*
X148934265Y-77023709D01*
X148821234Y-77023610D01*
X148489430Y-76691806D01*
X148342791Y-76593824D01*
X148169818Y-76559418D01*
X141094616Y-76559418D01*
X140921643Y-76593824D01*
X140775004Y-76691806D01*
X140207635Y-77259175D01*
X140129373Y-77180775D01*
X140129373Y-75000473D01*
X140094967Y-74827500D01*
X140061017Y-74776691D01*
X139996985Y-74680860D01*
X139210911Y-73894787D01*
X139211009Y-73782829D01*
X139115755Y-73552297D01*
X138939531Y-73375765D01*
X138709165Y-73280109D01*
X138459729Y-73279891D01*
X138229197Y-73375145D01*
X138052665Y-73551369D01*
X137957009Y-73781735D01*
X137956791Y-74031171D01*
X138052045Y-74261703D01*
X138228269Y-74438235D01*
X138458635Y-74533891D01*
X138571666Y-74533990D01*
X139225373Y-75187698D01*
X139225373Y-77180745D01*
X139146138Y-77259842D01*
X139050482Y-77490208D01*
X139050264Y-77739644D01*
X139086353Y-77826986D01*
X138887466Y-77826986D01*
X138914091Y-77762865D01*
X138914309Y-77513429D01*
X138819055Y-77282897D01*
X138642831Y-77106365D01*
X138412465Y-77010709D01*
X138299434Y-77010610D01*
X138042700Y-76753876D01*
X138042700Y-76017928D01*
X138090535Y-76037791D01*
X138339971Y-76038009D01*
X138570503Y-75942755D01*
X138747035Y-75766531D01*
X138842691Y-75536165D01*
X138842909Y-75286729D01*
X138747655Y-75056197D01*
X138571431Y-74879665D01*
X138341065Y-74784009D01*
X138091629Y-74783791D01*
X138042700Y-74804008D01*
X138042700Y-74519100D01*
X138008294Y-74346127D01*
X137910312Y-74199488D01*
X137640111Y-73929287D01*
X137640209Y-73817329D01*
X137544955Y-73586797D01*
X137368731Y-73410265D01*
X137138365Y-73314609D01*
X136888929Y-73314391D01*
X136658397Y-73409645D01*
X136481865Y-73585869D01*
X136413909Y-73749525D01*
X136260029Y-73749391D01*
X136029497Y-73844645D01*
X135852965Y-74020869D01*
X135757309Y-74251235D01*
X135757091Y-74500671D01*
X135852345Y-74731203D01*
X136028569Y-74907735D01*
X136178415Y-74969956D01*
X136100065Y-75048169D01*
X136004409Y-75278535D01*
X136004191Y-75527971D01*
X136099445Y-75758503D01*
X136275669Y-75935035D01*
X136506035Y-76030691D01*
X136755471Y-76030909D01*
X136986003Y-75935655D01*
X137138700Y-75783224D01*
X137138700Y-76941100D01*
X137173106Y-77114073D01*
X137176804Y-77119607D01*
X136999797Y-77192745D01*
X136823265Y-77368969D01*
X136727609Y-77599335D01*
X136727391Y-77848771D01*
X136822645Y-78079303D01*
X136998869Y-78255835D01*
X137229235Y-78351491D01*
X137303363Y-78351556D01*
X135203765Y-80451154D01*
X135096694Y-80451060D01*
X135065532Y-80412038D01*
X135031257Y-80360743D01*
X135016915Y-80351160D01*
X135006152Y-80337682D01*
X134419152Y-79842682D01*
X134365137Y-79812877D01*
X134313839Y-79778600D01*
X134296921Y-79775235D01*
X134281820Y-79766902D01*
X134220508Y-79760036D01*
X134160000Y-79748000D01*
X130826514Y-79748000D01*
X130312000Y-79233486D01*
X130312000Y-78325271D01*
X133529891Y-78325271D01*
X133625145Y-78555803D01*
X133801369Y-78732335D01*
X134031735Y-78827991D01*
X134281171Y-78828209D01*
X134511703Y-78732955D01*
X134688235Y-78556731D01*
X134783891Y-78326365D01*
X134784109Y-78076929D01*
X134688855Y-77846397D01*
X134512631Y-77669865D01*
X134282265Y-77574209D01*
X134032829Y-77573991D01*
X133802297Y-77669245D01*
X133625765Y-77845469D01*
X133530109Y-78075835D01*
X133529891Y-78325271D01*
X130312000Y-78325271D01*
X130312000Y-77749971D01*
X132236791Y-77749971D01*
X132332045Y-77980503D01*
X132508269Y-78157035D01*
X132738635Y-78252691D01*
X132988071Y-78252909D01*
X133218603Y-78157655D01*
X133395135Y-77981431D01*
X133490791Y-77751065D01*
X133491009Y-77501629D01*
X133395755Y-77271097D01*
X133219531Y-77094565D01*
X132990037Y-76999271D01*
X134660691Y-76999271D01*
X134755945Y-77229803D01*
X134932169Y-77406335D01*
X135162535Y-77501991D01*
X135411971Y-77502209D01*
X135642503Y-77406955D01*
X135819035Y-77230731D01*
X135914691Y-77000365D01*
X135914909Y-76750929D01*
X135819655Y-76520397D01*
X135643431Y-76343865D01*
X135413065Y-76248209D01*
X135163629Y-76247991D01*
X134933097Y-76343245D01*
X134756565Y-76519469D01*
X134660909Y-76749835D01*
X134660691Y-76999271D01*
X132990037Y-76999271D01*
X132989165Y-76998909D01*
X132739729Y-76998691D01*
X132509197Y-77093945D01*
X132332665Y-77270169D01*
X132237009Y-77500535D01*
X132236791Y-77749971D01*
X130312000Y-77749971D01*
X130312000Y-71817371D01*
X137387991Y-71817371D01*
X137483245Y-72047903D01*
X137659469Y-72224435D01*
X137889835Y-72320091D01*
X138002866Y-72320190D01*
X141357587Y-75674912D01*
X141504226Y-75772894D01*
X141532924Y-75778602D01*
X141677200Y-75807300D01*
X142427272Y-75807300D01*
X142506369Y-75886535D01*
X142736735Y-75982191D01*
X142986171Y-75982409D01*
X143216703Y-75887155D01*
X143393235Y-75710931D01*
X143488891Y-75480565D01*
X143489109Y-75231129D01*
X143393855Y-75000597D01*
X143217631Y-74824065D01*
X142987265Y-74728409D01*
X142737829Y-74728191D01*
X142507297Y-74823445D01*
X142427302Y-74903300D01*
X141864425Y-74903300D01*
X140799431Y-73838306D01*
X141028503Y-73743655D01*
X141108498Y-73663800D01*
X152396550Y-73663800D01*
X152272865Y-73787269D01*
X152177209Y-74017635D01*
X152176991Y-74267071D01*
X152272245Y-74497603D01*
X152448469Y-74674135D01*
X152678835Y-74769791D01*
X152791866Y-74769890D01*
X154482688Y-76460713D01*
X154629327Y-76558694D01*
X154802300Y-76593100D01*
X155442872Y-76593100D01*
X155521969Y-76672335D01*
X155752335Y-76767991D01*
X156001771Y-76768209D01*
X156232303Y-76672955D01*
X156408835Y-76496731D01*
X156504491Y-76266365D01*
X156504709Y-76016929D01*
X156409455Y-75786397D01*
X156233231Y-75609865D01*
X156002865Y-75514209D01*
X155753429Y-75513991D01*
X155522897Y-75609245D01*
X155442902Y-75689100D01*
X154989525Y-75689100D01*
X153779067Y-74478643D01*
X153934035Y-74542991D01*
X154183471Y-74543209D01*
X154414003Y-74447955D01*
X154590535Y-74271731D01*
X154686191Y-74041365D01*
X154686409Y-73791929D01*
X154633467Y-73663800D01*
X154650200Y-73663800D01*
X154823173Y-73629394D01*
X154969812Y-73531412D01*
X155896914Y-72604311D01*
X156008871Y-72604409D01*
X156239403Y-72509155D01*
X156415935Y-72332931D01*
X156511591Y-72102565D01*
X156511809Y-71853129D01*
X156416555Y-71622597D01*
X156240331Y-71446065D01*
X156009965Y-71350409D01*
X155760529Y-71350191D01*
X155529997Y-71445445D01*
X155353465Y-71621669D01*
X155257809Y-71852035D01*
X155257710Y-71965065D01*
X154462976Y-72759800D01*
X141108528Y-72759800D01*
X141029431Y-72680565D01*
X140799065Y-72584909D01*
X140549629Y-72584691D01*
X140319097Y-72679945D01*
X140142565Y-72856169D01*
X140047129Y-73086005D01*
X139226553Y-72265428D01*
X139317003Y-72228055D01*
X139493535Y-72051831D01*
X139502612Y-72029971D01*
X139967491Y-72029971D01*
X140062745Y-72260503D01*
X140238969Y-72437035D01*
X140469335Y-72532691D01*
X140718771Y-72532909D01*
X140949303Y-72437655D01*
X141125835Y-72261431D01*
X141221491Y-72031065D01*
X141221693Y-71799371D01*
X152774291Y-71799371D01*
X152869545Y-72029903D01*
X153045769Y-72206435D01*
X153276135Y-72302091D01*
X153525571Y-72302309D01*
X153756103Y-72207055D01*
X153932635Y-72030831D01*
X154028291Y-71800465D01*
X154028509Y-71551029D01*
X153933255Y-71320497D01*
X153757031Y-71143965D01*
X153526665Y-71048309D01*
X153277229Y-71048091D01*
X153046697Y-71143345D01*
X152870165Y-71319569D01*
X152774509Y-71549935D01*
X152774291Y-71799371D01*
X141221693Y-71799371D01*
X141221709Y-71781629D01*
X141126455Y-71551097D01*
X140950231Y-71374565D01*
X140719865Y-71278909D01*
X140470429Y-71278691D01*
X140239897Y-71373945D01*
X140063365Y-71550169D01*
X139967709Y-71780535D01*
X139967491Y-72029971D01*
X139502612Y-72029971D01*
X139589191Y-71821465D01*
X139589409Y-71572029D01*
X139494155Y-71341497D01*
X139317931Y-71164965D01*
X139087565Y-71069309D01*
X138838129Y-71069091D01*
X138607597Y-71164345D01*
X138490147Y-71281590D01*
X138370731Y-71161965D01*
X138140365Y-71066309D01*
X137890929Y-71066091D01*
X137660397Y-71161345D01*
X137483865Y-71337569D01*
X137388209Y-71567935D01*
X137387991Y-71817371D01*
X130312000Y-71817371D01*
X130312000Y-70367371D01*
X138697291Y-70367371D01*
X138792545Y-70597903D01*
X138968769Y-70774435D01*
X139199135Y-70870091D01*
X139448571Y-70870309D01*
X139679103Y-70775055D01*
X139855635Y-70598831D01*
X139951291Y-70368465D01*
X139951509Y-70119029D01*
X139856255Y-69888497D01*
X139680031Y-69711965D01*
X139449665Y-69616309D01*
X139200229Y-69616091D01*
X138969697Y-69711345D01*
X138793165Y-69887569D01*
X138697509Y-70117935D01*
X138697291Y-70367371D01*
X130312000Y-70367371D01*
X130312000Y-69324171D01*
X153339091Y-69324171D01*
X153434345Y-69554703D01*
X153586575Y-69707199D01*
X153449165Y-69844369D01*
X153353509Y-70074735D01*
X153353291Y-70324171D01*
X153448545Y-70554703D01*
X153624769Y-70731235D01*
X153855135Y-70826891D01*
X154104571Y-70827109D01*
X154335103Y-70731855D01*
X154511635Y-70555631D01*
X154607291Y-70325265D01*
X154607509Y-70075829D01*
X154512255Y-69845297D01*
X154360025Y-69692801D01*
X154497435Y-69555631D01*
X154593091Y-69325265D01*
X154593309Y-69075829D01*
X154498055Y-68845297D01*
X154321831Y-68668765D01*
X154091465Y-68573109D01*
X153842029Y-68572891D01*
X153611497Y-68668145D01*
X153434965Y-68844369D01*
X153339309Y-69074735D01*
X153339091Y-69324171D01*
X130312000Y-69324171D01*
X130312000Y-67944971D01*
X134601691Y-67944971D01*
X134696945Y-68175503D01*
X134873169Y-68352035D01*
X135103535Y-68447691D01*
X135119158Y-68447705D01*
X135119091Y-68524771D01*
X135214345Y-68755303D01*
X135390569Y-68931835D01*
X135620935Y-69027491D01*
X135870371Y-69027709D01*
X136100903Y-68932455D01*
X136277435Y-68756231D01*
X136373091Y-68525865D01*
X136373309Y-68276429D01*
X136278055Y-68045897D01*
X136101831Y-67869365D01*
X135871465Y-67773709D01*
X135855842Y-67773695D01*
X135855909Y-67696629D01*
X135760655Y-67466097D01*
X135584431Y-67289565D01*
X135354065Y-67193909D01*
X135104629Y-67193691D01*
X134874097Y-67288945D01*
X134697565Y-67465169D01*
X134601909Y-67695535D01*
X134601691Y-67944971D01*
X130312000Y-67944971D01*
X130312000Y-66364571D01*
X133736191Y-66364571D01*
X133831445Y-66595103D01*
X134007669Y-66771635D01*
X134238035Y-66867291D01*
X134487471Y-66867509D01*
X134718003Y-66772255D01*
X134894535Y-66596031D01*
X134975904Y-66400071D01*
X139418091Y-66400071D01*
X139513345Y-66630603D01*
X139689569Y-66807135D01*
X139919935Y-66902791D01*
X140032966Y-66902890D01*
X141453988Y-68323912D01*
X141600627Y-68421894D01*
X141773600Y-68456300D01*
X154286100Y-68456300D01*
X154459073Y-68421894D01*
X154605712Y-68323912D01*
X154750013Y-68179611D01*
X154861971Y-68179709D01*
X155092503Y-68084455D01*
X155269035Y-67908231D01*
X155364691Y-67677865D01*
X155364909Y-67428429D01*
X155269655Y-67197897D01*
X155093431Y-67021365D01*
X154863065Y-66925709D01*
X154613629Y-66925491D01*
X154383097Y-67020745D01*
X154206565Y-67196969D01*
X154110909Y-67427335D01*
X154110810Y-67540366D01*
X154098876Y-67552300D01*
X149833584Y-67552300D01*
X149845391Y-67523865D01*
X149845609Y-67274429D01*
X149750355Y-67043897D01*
X149694287Y-66987731D01*
X149778935Y-66903231D01*
X149874591Y-66672865D01*
X149874809Y-66423429D01*
X149779555Y-66192897D01*
X149603331Y-66016365D01*
X149372965Y-65920709D01*
X149123529Y-65920491D01*
X148892997Y-66015745D01*
X148716465Y-66191969D01*
X148620809Y-66422335D01*
X148620591Y-66671771D01*
X148715845Y-66902303D01*
X148771913Y-66958469D01*
X148687265Y-67042969D01*
X148591609Y-67273335D01*
X148591391Y-67522771D01*
X148603592Y-67552300D01*
X141960824Y-67552300D01*
X140672211Y-66263687D01*
X140672309Y-66151729D01*
X140577055Y-65921197D01*
X140400831Y-65744665D01*
X140170465Y-65649009D01*
X139921029Y-65648791D01*
X139690497Y-65744045D01*
X139513965Y-65920269D01*
X139418309Y-66150635D01*
X139418091Y-66400071D01*
X134975904Y-66400071D01*
X134990191Y-66365665D01*
X134990290Y-66252634D01*
X135819425Y-65423500D01*
X141276500Y-65423500D01*
X141449473Y-65389094D01*
X141536010Y-65331271D01*
X149506791Y-65331271D01*
X149602045Y-65561803D01*
X149778269Y-65738335D01*
X150008635Y-65833991D01*
X150258071Y-65834209D01*
X150488603Y-65738955D01*
X150665135Y-65562731D01*
X150760791Y-65332365D01*
X150761009Y-65082929D01*
X150665755Y-64852397D01*
X150489531Y-64675865D01*
X150259165Y-64580209D01*
X150009729Y-64579991D01*
X149779197Y-64675245D01*
X149602665Y-64851469D01*
X149507009Y-65081835D01*
X149506791Y-65331271D01*
X141536010Y-65331271D01*
X141596112Y-65291112D01*
X144505980Y-62381245D01*
X144684340Y-62455306D01*
X145127715Y-62455693D01*
X145537489Y-62286378D01*
X145851276Y-61973138D01*
X145906927Y-61839116D01*
X145961622Y-61971489D01*
X146274862Y-62285276D01*
X146684340Y-62455306D01*
X147127715Y-62455693D01*
X147537489Y-62286378D01*
X147851276Y-61973138D01*
X147906927Y-61839116D01*
X147961622Y-61971489D01*
X148274862Y-62285276D01*
X148684340Y-62455306D01*
X149127715Y-62455693D01*
X149537489Y-62286378D01*
X149851276Y-61973138D01*
X149906927Y-61839116D01*
X149961622Y-61971489D01*
X150274862Y-62285276D01*
X150684340Y-62455306D01*
X151127715Y-62455693D01*
X151537489Y-62286378D01*
X151851276Y-61973138D01*
X151906927Y-61839116D01*
X151961622Y-61971489D01*
X152274862Y-62285276D01*
X152684340Y-62455306D01*
X153127715Y-62455693D01*
X153537489Y-62286378D01*
X153786094Y-62038206D01*
X153786094Y-62128500D01*
X153811473Y-62256089D01*
X153883746Y-62364254D01*
X153991911Y-62436527D01*
X154119500Y-62461906D01*
X155694500Y-62461906D01*
X155822089Y-62436527D01*
X155930254Y-62364254D01*
X156002527Y-62256089D01*
X156027906Y-62128500D01*
X156027906Y-60553500D01*
X156002527Y-60425911D01*
X155930254Y-60317746D01*
X155822089Y-60245473D01*
X155694500Y-60220094D01*
X154119500Y-60220094D01*
X153991911Y-60245473D01*
X153883746Y-60317746D01*
X153811473Y-60425911D01*
X153786094Y-60553500D01*
X153786094Y-60644111D01*
X153539138Y-60396724D01*
X153129660Y-60226694D01*
X152686285Y-60226307D01*
X152276511Y-60395622D01*
X151962724Y-60708862D01*
X151907073Y-60842884D01*
X151852378Y-60710511D01*
X151539138Y-60396724D01*
X151129660Y-60226694D01*
X150686285Y-60226307D01*
X150276511Y-60395622D01*
X149962724Y-60708862D01*
X149907073Y-60842884D01*
X149852378Y-60710511D01*
X149539138Y-60396724D01*
X149129660Y-60226694D01*
X148686285Y-60226307D01*
X148276511Y-60395622D01*
X147962724Y-60708862D01*
X147907073Y-60842884D01*
X147852378Y-60710511D01*
X147539138Y-60396724D01*
X147129660Y-60226694D01*
X146686285Y-60226307D01*
X146276511Y-60395622D01*
X145962724Y-60708862D01*
X145907073Y-60842884D01*
X145852378Y-60710511D01*
X145539138Y-60396724D01*
X145129660Y-60226694D01*
X144686285Y-60226307D01*
X144276511Y-60395622D01*
X143962724Y-60708862D01*
X143907073Y-60842884D01*
X143852378Y-60710511D01*
X143539138Y-60396724D01*
X143129660Y-60226694D01*
X142686285Y-60226307D01*
X142276511Y-60395622D01*
X141962724Y-60708862D01*
X141907073Y-60842884D01*
X141852378Y-60710511D01*
X141539138Y-60396724D01*
X141129660Y-60226694D01*
X140686285Y-60226307D01*
X140276511Y-60395622D01*
X139962724Y-60708862D01*
X139907073Y-60842884D01*
X139852378Y-60710511D01*
X139539138Y-60396724D01*
X139129660Y-60226694D01*
X138686285Y-60226307D01*
X138276511Y-60395622D01*
X137962724Y-60708862D01*
X137907073Y-60842884D01*
X137852378Y-60710511D01*
X137539138Y-60396724D01*
X137129660Y-60226694D01*
X136686285Y-60226307D01*
X136276511Y-60395622D01*
X135962724Y-60708862D01*
X135792694Y-61118340D01*
X135792307Y-61561715D01*
X135961622Y-61971489D01*
X136274862Y-62285276D01*
X136684340Y-62455306D01*
X137127715Y-62455693D01*
X137537489Y-62286378D01*
X137851276Y-61973138D01*
X137906927Y-61839116D01*
X137961622Y-61971489D01*
X138274862Y-62285276D01*
X138684340Y-62455306D01*
X139127715Y-62455693D01*
X139537489Y-62286378D01*
X139851276Y-61973138D01*
X139906927Y-61839116D01*
X139961622Y-61971489D01*
X140274862Y-62285276D01*
X140684340Y-62455306D01*
X141127715Y-62455693D01*
X141537489Y-62286378D01*
X141851276Y-61973138D01*
X141906927Y-61839116D01*
X141961622Y-61971489D01*
X142274862Y-62285276D01*
X142684340Y-62455306D01*
X143127715Y-62455693D01*
X143170944Y-62437831D01*
X141089276Y-64519500D01*
X135632200Y-64519500D01*
X135459227Y-64553906D01*
X135312588Y-64651887D01*
X134351087Y-65613389D01*
X134239129Y-65613291D01*
X134008597Y-65708545D01*
X133832065Y-65884769D01*
X133736409Y-66115135D01*
X133736191Y-66364571D01*
X130312000Y-66364571D01*
X130312000Y-59816514D01*
X131326514Y-58802000D01*
X160493486Y-58802000D01*
X161508000Y-59816514D01*
M02*
