G04 #@! TF.GenerationSoftware,KiCad,Pcbnew,5.0.0-rc2-dev-unknown-2c85de3~62~ubuntu16.04.1*
G04 #@! TF.CreationDate,2018-03-03T01:16:51+03:00*
G04 #@! TF.ProjectId,din_meter_atm90e36,64696E5F6D657465725F61746D393065,rev?*
G04 #@! TF.SameCoordinates,Original*
G04 #@! TF.FileFunction,Copper,L3,Inr,Signal*
G04 #@! TF.FilePolarity,Positive*
%FSLAX46Y46*%
G04 Gerber Fmt 4.6, Leading zero omitted, Abs format (unit mm)*
G04 Created by KiCad (PCBNEW 5.0.0-rc2-dev-unknown-2c85de3~62~ubuntu16.04.1) date Sat Mar  3 01:16:51 2018*
%MOMM*%
%LPD*%
G01*
G04 APERTURE LIST*
%ADD10C,1.575000*%
%ADD11R,1.575000X1.575000*%
%ADD12C,0.600000*%
%ADD13C,0.250000*%
%ADD14C,0.254000*%
G04 APERTURE END LIST*
D10*
X136907000Y-61341000D03*
X138907000Y-61341000D03*
X140907000Y-61341000D03*
X142907000Y-61341000D03*
X144907000Y-61341000D03*
X146907000Y-61341000D03*
X148907000Y-61341000D03*
X150907000Y-61341000D03*
X152907000Y-61341000D03*
D11*
X154907000Y-61341000D03*
D12*
X134042000Y-71299300D03*
X148734300Y-72161600D03*
X132026000Y-64664300D03*
X149218500Y-67398600D03*
X135746200Y-68400600D03*
X134363300Y-66240400D03*
X149247700Y-66547600D03*
X154737800Y-67552600D03*
X140045200Y-66275900D03*
X139324400Y-70243200D03*
X153966200Y-69200000D03*
X153980400Y-70200000D03*
X140594600Y-71905800D03*
X155884700Y-71977300D03*
X140673800Y-73211800D03*
X138379200Y-68594300D03*
X138723100Y-67726800D03*
X135228800Y-67820800D03*
X150133900Y-65207100D03*
X150265600Y-69016400D03*
X150940800Y-69487200D03*
X154059300Y-73916100D03*
X155273600Y-77819600D03*
X153401400Y-71675200D03*
X150793100Y-77755100D03*
X152804100Y-74142900D03*
X155877600Y-76141100D03*
X147120600Y-77604956D03*
X136766000Y-81088000D03*
X135215978Y-81078165D03*
X148809000Y-77650600D03*
X137544236Y-81008286D03*
X153675100Y-77587000D03*
X140237823Y-81031676D03*
X157189300Y-77652100D03*
X139505867Y-81195253D03*
X158093100Y-77606700D03*
X138290000Y-81087992D03*
X152821900Y-77594900D03*
X149466000Y-81088000D03*
X136631300Y-75403800D03*
X136384200Y-74376500D03*
X135287800Y-76875100D03*
X138962300Y-71696200D03*
X137354500Y-77724600D03*
X138585262Y-78853987D03*
X154292000Y-81088000D03*
X142058211Y-79246423D03*
X152514010Y-81088000D03*
X139677373Y-77615473D03*
X138583900Y-73907000D03*
X138015100Y-71693200D03*
X142862000Y-75355300D03*
X141846000Y-80833978D03*
X144057745Y-80067388D03*
X137013100Y-73941500D03*
X138287200Y-77637600D03*
X151244000Y-81088000D03*
X138215800Y-75410900D03*
X143370000Y-81088000D03*
X132863900Y-77625800D03*
X144386000Y-81088000D03*
X134157000Y-78201100D03*
D13*
X132026100Y-64664300D02*
X132026000Y-64664300D01*
X132026100Y-68876200D02*
X132026100Y-64664300D01*
X134245600Y-71095700D02*
X132026100Y-68876200D01*
X134042000Y-71299300D02*
X134245600Y-71095700D01*
X147668400Y-71095700D02*
X148734300Y-72161600D01*
X134245600Y-71095700D02*
X147668400Y-71095700D01*
X135632200Y-64971500D02*
X134363300Y-66240400D01*
X141276500Y-64971500D02*
X135632200Y-64971500D01*
X144907000Y-61341000D02*
X141276500Y-64971500D01*
X154286100Y-68004300D02*
X154737800Y-67552600D01*
X141773600Y-68004300D02*
X154286100Y-68004300D01*
X140045200Y-66275900D02*
X141773600Y-68004300D01*
X154650200Y-73211800D02*
X140673800Y-73211800D01*
X155884700Y-71977300D02*
X154650200Y-73211800D01*
X154802300Y-76141100D02*
X152804100Y-74142900D01*
X155877600Y-76141100D02*
X154802300Y-76141100D01*
X146532789Y-77441409D02*
X146696336Y-77604956D01*
X146696336Y-77604956D02*
X147120600Y-77604956D01*
X141272724Y-77441409D02*
X146532789Y-77441409D01*
X136766000Y-81088000D02*
X136766000Y-80663736D01*
X137600728Y-79829008D02*
X138885125Y-79829008D01*
X136766000Y-80663736D02*
X137600728Y-79829008D01*
X138885125Y-79829008D02*
X141272724Y-77441409D01*
X139827048Y-78278986D02*
X138015157Y-78278986D01*
X148169818Y-77011418D02*
X141094616Y-77011418D01*
X148809000Y-77650600D02*
X148169818Y-77011418D01*
X141094616Y-77011418D02*
X139827048Y-78278986D01*
X138015157Y-78278986D02*
X135515977Y-80778166D01*
X135515977Y-80778166D02*
X135215978Y-81078165D01*
X138323503Y-80229019D02*
X137844235Y-80708287D01*
X142696545Y-77841420D02*
X141438413Y-77841420D01*
X149078500Y-78229100D02*
X148105366Y-78229100D01*
X153107700Y-77019600D02*
X150288000Y-77019600D01*
X148056232Y-78179966D02*
X143035091Y-78179966D01*
X141438413Y-77841420D02*
X139050814Y-80229019D01*
X150288000Y-77019600D02*
X149078500Y-78229100D01*
X139050814Y-80229019D02*
X138323503Y-80229019D01*
X143035091Y-78179966D02*
X142696545Y-77841420D01*
X153675100Y-77587000D02*
X153107700Y-77019600D01*
X137844235Y-80708287D02*
X137544236Y-81008286D01*
X148105366Y-78229100D02*
X148056232Y-78179966D01*
X147712435Y-79009968D02*
X146292565Y-79009968D01*
X157189300Y-77652100D02*
X155782298Y-79059102D01*
X146292565Y-79009968D02*
X146243431Y-79059102D01*
X141782210Y-78671422D02*
X140237823Y-80215809D01*
X155782298Y-79059102D02*
X147761569Y-79059102D01*
X142334212Y-78671422D02*
X141782210Y-78671422D01*
X146243431Y-79059102D02*
X142721892Y-79059102D01*
X140237823Y-80215809D02*
X140237823Y-80607412D01*
X147761569Y-79059102D02*
X147712435Y-79009968D01*
X142721892Y-79059102D02*
X142334212Y-78671422D01*
X140237823Y-80607412D02*
X140237823Y-81031676D01*
X148282010Y-82150000D02*
X148282010Y-80710943D01*
X155806506Y-79669606D02*
X154781130Y-80378490D01*
X152378998Y-82150000D02*
X148282010Y-82150000D01*
X148282010Y-80710943D02*
X147381057Y-79809990D01*
X139805866Y-81495252D02*
X139505867Y-81195253D01*
X145722990Y-82150000D02*
X140460614Y-82150000D01*
X154756582Y-80512999D02*
X154015999Y-80512999D01*
X146623943Y-79809990D02*
X145722990Y-80710943D01*
X147381057Y-79809990D02*
X146623943Y-79809990D01*
X158093100Y-77606700D02*
X156003810Y-79695990D01*
X156003810Y-79695990D02*
X155951079Y-79695990D01*
X155951079Y-79695990D02*
X155806506Y-79669606D01*
X154781130Y-80378490D02*
X154756582Y-80512999D01*
X154015999Y-80512999D02*
X152378998Y-82150000D01*
X145722990Y-80710943D02*
X145722990Y-82150000D01*
X140460614Y-82150000D02*
X139805866Y-81495252D01*
X138799940Y-81087992D02*
X138714264Y-81087992D01*
X141616521Y-78271411D02*
X138799940Y-81087992D01*
X147878124Y-78609957D02*
X146126876Y-78609957D01*
X142906117Y-78659091D02*
X142518437Y-78271411D01*
X146077742Y-78659091D02*
X142906117Y-78659091D01*
X146126876Y-78609957D02*
X146077742Y-78659091D01*
X142518437Y-78271411D02*
X141616521Y-78271411D01*
X152821900Y-77594900D02*
X151757709Y-78659091D01*
X147927258Y-78659091D02*
X147878124Y-78609957D01*
X138714264Y-81087992D02*
X138290000Y-81087992D01*
X151757709Y-78659091D02*
X147927258Y-78659091D01*
X142304174Y-79492386D02*
X142058211Y-79246423D01*
X147546746Y-79409979D02*
X146458254Y-79409979D01*
X146458254Y-79409979D02*
X146375847Y-79492386D01*
X150918396Y-79492386D02*
X147629153Y-79492386D01*
X146375847Y-79492386D02*
X142304174Y-79492386D01*
X147629153Y-79492386D02*
X147546746Y-79409979D01*
X152514010Y-81088000D02*
X150918396Y-79492386D01*
X139677373Y-77191209D02*
X139677373Y-77615473D01*
X139677373Y-75000473D02*
X139677373Y-77191209D01*
X138583900Y-73907000D02*
X139677373Y-75000473D01*
X141677200Y-75355300D02*
X138015100Y-71693200D01*
X142862000Y-75355300D02*
X141677200Y-75355300D01*
X142612590Y-80067388D02*
X142145999Y-80533979D01*
X144057745Y-80067388D02*
X142612590Y-80067388D01*
X142145999Y-80533979D02*
X141846000Y-80833978D01*
X137590700Y-74519100D02*
X137013100Y-73941500D01*
X137590700Y-76941100D02*
X137590700Y-74519100D01*
X138287200Y-77637600D02*
X137590700Y-76941100D01*
D14*
G36*
X161508001Y-59816515D02*
X161508000Y-79233486D01*
X160993487Y-79748000D01*
X156591024Y-79748000D01*
X158105324Y-78233700D01*
X158217818Y-78233700D01*
X158448267Y-78138245D01*
X158624645Y-77961867D01*
X158720100Y-77731418D01*
X158720100Y-77481982D01*
X158624645Y-77251533D01*
X158448267Y-77075155D01*
X158217818Y-76979700D01*
X157968382Y-76979700D01*
X157737933Y-77075155D01*
X157618500Y-77194588D01*
X157544467Y-77120555D01*
X157314018Y-77025100D01*
X157064582Y-77025100D01*
X156834133Y-77120555D01*
X156657755Y-77296933D01*
X156562300Y-77527382D01*
X156562300Y-77639875D01*
X155595074Y-78607102D01*
X152448922Y-78607102D01*
X152834125Y-78221900D01*
X152946618Y-78221900D01*
X153177067Y-78126445D01*
X153252450Y-78051062D01*
X153319933Y-78118545D01*
X153550382Y-78214000D01*
X153799818Y-78214000D01*
X154030267Y-78118545D01*
X154206645Y-77942167D01*
X154302100Y-77711718D01*
X154302100Y-77694882D01*
X154646600Y-77694882D01*
X154646600Y-77944318D01*
X154742055Y-78174767D01*
X154918433Y-78351145D01*
X155148882Y-78446600D01*
X155398318Y-78446600D01*
X155628767Y-78351145D01*
X155805145Y-78174767D01*
X155900600Y-77944318D01*
X155900600Y-77694882D01*
X155805145Y-77464433D01*
X155628767Y-77288055D01*
X155398318Y-77192600D01*
X155148882Y-77192600D01*
X154918433Y-77288055D01*
X154742055Y-77464433D01*
X154646600Y-77694882D01*
X154302100Y-77694882D01*
X154302100Y-77462282D01*
X154206645Y-77231833D01*
X154030267Y-77055455D01*
X153799818Y-76960000D01*
X153687324Y-76960000D01*
X153458793Y-76731469D01*
X153433574Y-76693726D01*
X153284062Y-76593825D01*
X153152218Y-76567600D01*
X153107700Y-76558745D01*
X153063182Y-76567600D01*
X150332516Y-76567600D01*
X150287999Y-76558745D01*
X150243483Y-76567600D01*
X150243482Y-76567600D01*
X150111638Y-76593825D01*
X149962126Y-76693726D01*
X149936909Y-76731467D01*
X149350034Y-77318342D01*
X149340545Y-77295433D01*
X149164167Y-77119055D01*
X148933718Y-77023600D01*
X148821225Y-77023600D01*
X148520911Y-76723287D01*
X148495692Y-76685544D01*
X148346180Y-76585643D01*
X148214336Y-76559418D01*
X148169818Y-76550563D01*
X148125300Y-76559418D01*
X141139134Y-76559418D01*
X141094616Y-76550563D01*
X141050098Y-76559418D01*
X140918254Y-76585643D01*
X140768742Y-76685544D01*
X140743525Y-76723285D01*
X140207711Y-77259099D01*
X140129373Y-77180761D01*
X140129373Y-75044989D01*
X140138228Y-75000472D01*
X140118899Y-74903300D01*
X140103148Y-74824111D01*
X140003247Y-74674599D01*
X139965504Y-74649380D01*
X139210900Y-73894776D01*
X139210900Y-73782282D01*
X139115445Y-73551833D01*
X138939067Y-73375455D01*
X138708618Y-73280000D01*
X138459182Y-73280000D01*
X138228733Y-73375455D01*
X138052355Y-73551833D01*
X137956900Y-73782282D01*
X137956900Y-74031718D01*
X138052355Y-74262167D01*
X138228733Y-74438545D01*
X138459182Y-74534000D01*
X138571676Y-74534000D01*
X139225373Y-75187697D01*
X139225374Y-77146687D01*
X139225373Y-77146692D01*
X139225373Y-77180761D01*
X139145828Y-77260306D01*
X139050373Y-77490755D01*
X139050373Y-77740191D01*
X139086325Y-77826986D01*
X138887414Y-77826986D01*
X138914200Y-77762318D01*
X138914200Y-77512882D01*
X138818745Y-77282433D01*
X138642367Y-77106055D01*
X138411918Y-77010600D01*
X138299425Y-77010600D01*
X138042700Y-76753876D01*
X138042700Y-76017860D01*
X138091082Y-76037900D01*
X138340518Y-76037900D01*
X138570967Y-75942445D01*
X138747345Y-75766067D01*
X138842800Y-75535618D01*
X138842800Y-75286182D01*
X138747345Y-75055733D01*
X138570967Y-74879355D01*
X138340518Y-74783900D01*
X138091082Y-74783900D01*
X138042700Y-74803940D01*
X138042700Y-74563618D01*
X138051555Y-74519100D01*
X138016475Y-74342738D01*
X137941791Y-74230966D01*
X137916574Y-74193226D01*
X137878833Y-74168008D01*
X137640100Y-73929275D01*
X137640100Y-73816782D01*
X137544645Y-73586333D01*
X137368267Y-73409955D01*
X137137818Y-73314500D01*
X136888382Y-73314500D01*
X136657933Y-73409955D01*
X136481555Y-73586333D01*
X136413969Y-73749500D01*
X136259482Y-73749500D01*
X136029033Y-73844955D01*
X135852655Y-74021333D01*
X135757200Y-74251782D01*
X135757200Y-74501218D01*
X135852655Y-74731667D01*
X136029033Y-74908045D01*
X136178452Y-74969936D01*
X136099755Y-75048633D01*
X136004300Y-75279082D01*
X136004300Y-75528518D01*
X136099755Y-75758967D01*
X136276133Y-75935345D01*
X136506582Y-76030800D01*
X136756018Y-76030800D01*
X136986467Y-75935345D01*
X137138700Y-75783112D01*
X137138700Y-76896582D01*
X137129845Y-76941100D01*
X137152591Y-77055455D01*
X137164925Y-77117461D01*
X137168590Y-77122946D01*
X136999333Y-77193055D01*
X136822955Y-77369433D01*
X136727500Y-77599882D01*
X136727500Y-77849318D01*
X136822955Y-78079767D01*
X136999333Y-78256145D01*
X137229782Y-78351600D01*
X137303318Y-78351600D01*
X135227846Y-80427073D01*
X135227843Y-80427075D01*
X135203753Y-80451165D01*
X135106661Y-80451165D01*
X135071771Y-80407476D01*
X135036825Y-80355175D01*
X134989003Y-80323221D01*
X134462642Y-79879357D01*
X134449825Y-79860175D01*
X134401998Y-79828218D01*
X134388886Y-79817161D01*
X134369159Y-79806276D01*
X134316852Y-79771325D01*
X134299602Y-79767894D01*
X134284206Y-79759398D01*
X134221703Y-79752399D01*
X134199590Y-79748000D01*
X134182425Y-79748000D01*
X134125275Y-79741600D01*
X134103116Y-79748000D01*
X130826514Y-79748000D01*
X130312000Y-79233487D01*
X130312000Y-77501082D01*
X132236900Y-77501082D01*
X132236900Y-77750518D01*
X132332355Y-77980967D01*
X132508733Y-78157345D01*
X132739182Y-78252800D01*
X132988618Y-78252800D01*
X133219067Y-78157345D01*
X133300030Y-78076382D01*
X133530000Y-78076382D01*
X133530000Y-78325818D01*
X133625455Y-78556267D01*
X133801833Y-78732645D01*
X134032282Y-78828100D01*
X134281718Y-78828100D01*
X134512167Y-78732645D01*
X134688545Y-78556267D01*
X134784000Y-78325818D01*
X134784000Y-78076382D01*
X134688545Y-77845933D01*
X134512167Y-77669555D01*
X134281718Y-77574100D01*
X134032282Y-77574100D01*
X133801833Y-77669555D01*
X133625455Y-77845933D01*
X133530000Y-78076382D01*
X133300030Y-78076382D01*
X133395445Y-77980967D01*
X133490900Y-77750518D01*
X133490900Y-77501082D01*
X133395445Y-77270633D01*
X133219067Y-77094255D01*
X132988618Y-76998800D01*
X132739182Y-76998800D01*
X132508733Y-77094255D01*
X132332355Y-77270633D01*
X132236900Y-77501082D01*
X130312000Y-77501082D01*
X130312000Y-76750382D01*
X134660800Y-76750382D01*
X134660800Y-76999818D01*
X134756255Y-77230267D01*
X134932633Y-77406645D01*
X135163082Y-77502100D01*
X135412518Y-77502100D01*
X135642967Y-77406645D01*
X135819345Y-77230267D01*
X135914800Y-76999818D01*
X135914800Y-76750382D01*
X135819345Y-76519933D01*
X135642967Y-76343555D01*
X135412518Y-76248100D01*
X135163082Y-76248100D01*
X134932633Y-76343555D01*
X134756255Y-76519933D01*
X134660800Y-76750382D01*
X130312000Y-76750382D01*
X130312000Y-71568482D01*
X137388100Y-71568482D01*
X137388100Y-71817918D01*
X137483555Y-72048367D01*
X137659933Y-72224745D01*
X137890382Y-72320200D01*
X138002876Y-72320200D01*
X141326107Y-75643431D01*
X141351326Y-75681174D01*
X141500838Y-75781075D01*
X141632682Y-75807300D01*
X141632683Y-75807300D01*
X141677199Y-75816155D01*
X141721716Y-75807300D01*
X142427288Y-75807300D01*
X142506833Y-75886845D01*
X142737282Y-75982300D01*
X142986718Y-75982300D01*
X143217167Y-75886845D01*
X143393545Y-75710467D01*
X143489000Y-75480018D01*
X143489000Y-75230582D01*
X143393545Y-75000133D01*
X143217167Y-74823755D01*
X142986718Y-74728300D01*
X142737282Y-74728300D01*
X142506833Y-74823755D01*
X142427288Y-74903300D01*
X141864424Y-74903300D01*
X140799512Y-73838388D01*
X141028967Y-73743345D01*
X141108512Y-73663800D01*
X152396488Y-73663800D01*
X152272555Y-73787733D01*
X152177100Y-74018182D01*
X152177100Y-74267618D01*
X152272555Y-74498067D01*
X152448933Y-74674445D01*
X152679382Y-74769900D01*
X152791876Y-74769900D01*
X154451207Y-76429231D01*
X154476426Y-76466974D01*
X154613771Y-76558745D01*
X154625938Y-76566875D01*
X154802300Y-76601955D01*
X154846818Y-76593100D01*
X155442888Y-76593100D01*
X155522433Y-76672645D01*
X155752882Y-76768100D01*
X156002318Y-76768100D01*
X156232767Y-76672645D01*
X156409145Y-76496267D01*
X156504600Y-76265818D01*
X156504600Y-76016382D01*
X156409145Y-75785933D01*
X156232767Y-75609555D01*
X156002318Y-75514100D01*
X155752882Y-75514100D01*
X155522433Y-75609555D01*
X155442888Y-75689100D01*
X154989524Y-75689100D01*
X153779136Y-74478712D01*
X153934582Y-74543100D01*
X154184018Y-74543100D01*
X154414467Y-74447645D01*
X154590845Y-74271267D01*
X154686300Y-74040818D01*
X154686300Y-73791382D01*
X154635947Y-73669820D01*
X154650200Y-73672655D01*
X154694718Y-73663800D01*
X154826562Y-73637575D01*
X154976074Y-73537674D01*
X155001293Y-73499931D01*
X155896925Y-72604300D01*
X156009418Y-72604300D01*
X156239867Y-72508845D01*
X156416245Y-72332467D01*
X156511700Y-72102018D01*
X156511700Y-71852582D01*
X156416245Y-71622133D01*
X156239867Y-71445755D01*
X156009418Y-71350300D01*
X155759982Y-71350300D01*
X155529533Y-71445755D01*
X155353155Y-71622133D01*
X155257700Y-71852582D01*
X155257700Y-71965075D01*
X154462976Y-72759800D01*
X141108512Y-72759800D01*
X141028967Y-72680255D01*
X140798518Y-72584800D01*
X140549082Y-72584800D01*
X140318633Y-72680255D01*
X140142255Y-72856633D01*
X140047212Y-73086088D01*
X139226534Y-72265410D01*
X139317467Y-72227745D01*
X139493845Y-72051367D01*
X139589300Y-71820918D01*
X139589300Y-71781082D01*
X139967600Y-71781082D01*
X139967600Y-72030518D01*
X140063055Y-72260967D01*
X140239433Y-72437345D01*
X140469882Y-72532800D01*
X140719318Y-72532800D01*
X140949767Y-72437345D01*
X141126145Y-72260967D01*
X141221600Y-72030518D01*
X141221600Y-71781082D01*
X141126145Y-71550633D01*
X141125994Y-71550482D01*
X152774400Y-71550482D01*
X152774400Y-71799918D01*
X152869855Y-72030367D01*
X153046233Y-72206745D01*
X153276682Y-72302200D01*
X153526118Y-72302200D01*
X153756567Y-72206745D01*
X153932945Y-72030367D01*
X154028400Y-71799918D01*
X154028400Y-71550482D01*
X153932945Y-71320033D01*
X153756567Y-71143655D01*
X153526118Y-71048200D01*
X153276682Y-71048200D01*
X153046233Y-71143655D01*
X152869855Y-71320033D01*
X152774400Y-71550482D01*
X141125994Y-71550482D01*
X140949767Y-71374255D01*
X140719318Y-71278800D01*
X140469882Y-71278800D01*
X140239433Y-71374255D01*
X140063055Y-71550633D01*
X139967600Y-71781082D01*
X139589300Y-71781082D01*
X139589300Y-71571482D01*
X139493845Y-71341033D01*
X139317467Y-71164655D01*
X139087018Y-71069200D01*
X138837582Y-71069200D01*
X138607133Y-71164655D01*
X138490200Y-71281588D01*
X138370267Y-71161655D01*
X138139818Y-71066200D01*
X137890382Y-71066200D01*
X137659933Y-71161655D01*
X137483555Y-71338033D01*
X137388100Y-71568482D01*
X130312000Y-71568482D01*
X130312000Y-70118482D01*
X138697400Y-70118482D01*
X138697400Y-70367918D01*
X138792855Y-70598367D01*
X138969233Y-70774745D01*
X139199682Y-70870200D01*
X139449118Y-70870200D01*
X139679567Y-70774745D01*
X139855945Y-70598367D01*
X139951400Y-70367918D01*
X139951400Y-70118482D01*
X139855945Y-69888033D01*
X139679567Y-69711655D01*
X139449118Y-69616200D01*
X139199682Y-69616200D01*
X138969233Y-69711655D01*
X138792855Y-69888033D01*
X138697400Y-70118482D01*
X130312000Y-70118482D01*
X130312000Y-69075282D01*
X153339200Y-69075282D01*
X153339200Y-69324718D01*
X153434655Y-69555167D01*
X153586588Y-69707100D01*
X153448855Y-69844833D01*
X153353400Y-70075282D01*
X153353400Y-70324718D01*
X153448855Y-70555167D01*
X153625233Y-70731545D01*
X153855682Y-70827000D01*
X154105118Y-70827000D01*
X154335567Y-70731545D01*
X154511945Y-70555167D01*
X154607400Y-70324718D01*
X154607400Y-70075282D01*
X154511945Y-69844833D01*
X154360012Y-69692900D01*
X154497745Y-69555167D01*
X154593200Y-69324718D01*
X154593200Y-69075282D01*
X154497745Y-68844833D01*
X154321367Y-68668455D01*
X154090918Y-68573000D01*
X153841482Y-68573000D01*
X153611033Y-68668455D01*
X153434655Y-68844833D01*
X153339200Y-69075282D01*
X130312000Y-69075282D01*
X130312000Y-67696082D01*
X134601800Y-67696082D01*
X134601800Y-67945518D01*
X134697255Y-68175967D01*
X134873633Y-68352345D01*
X135104082Y-68447800D01*
X135119200Y-68447800D01*
X135119200Y-68525318D01*
X135214655Y-68755767D01*
X135391033Y-68932145D01*
X135621482Y-69027600D01*
X135870918Y-69027600D01*
X136101367Y-68932145D01*
X136277745Y-68755767D01*
X136373200Y-68525318D01*
X136373200Y-68275882D01*
X136277745Y-68045433D01*
X136101367Y-67869055D01*
X135870918Y-67773600D01*
X135855800Y-67773600D01*
X135855800Y-67696082D01*
X135760345Y-67465633D01*
X135583967Y-67289255D01*
X135353518Y-67193800D01*
X135104082Y-67193800D01*
X134873633Y-67289255D01*
X134697255Y-67465633D01*
X134601800Y-67696082D01*
X130312000Y-67696082D01*
X130312000Y-66115682D01*
X133736300Y-66115682D01*
X133736300Y-66365118D01*
X133831755Y-66595567D01*
X134008133Y-66771945D01*
X134238582Y-66867400D01*
X134488018Y-66867400D01*
X134718467Y-66771945D01*
X134894845Y-66595567D01*
X134990300Y-66365118D01*
X134990300Y-66252624D01*
X135091742Y-66151182D01*
X139418200Y-66151182D01*
X139418200Y-66400618D01*
X139513655Y-66631067D01*
X139690033Y-66807445D01*
X139920482Y-66902900D01*
X140032976Y-66902900D01*
X141422509Y-68292433D01*
X141447726Y-68330174D01*
X141485466Y-68355391D01*
X141597238Y-68430075D01*
X141773600Y-68465155D01*
X141818118Y-68456300D01*
X154241582Y-68456300D01*
X154286100Y-68465155D01*
X154330618Y-68456300D01*
X154462462Y-68430075D01*
X154611974Y-68330174D01*
X154637193Y-68292431D01*
X154750024Y-68179600D01*
X154862518Y-68179600D01*
X155092967Y-68084145D01*
X155269345Y-67907767D01*
X155364800Y-67677318D01*
X155364800Y-67427882D01*
X155269345Y-67197433D01*
X155092967Y-67021055D01*
X154862518Y-66925600D01*
X154613082Y-66925600D01*
X154382633Y-67021055D01*
X154206255Y-67197433D01*
X154110800Y-67427882D01*
X154110800Y-67540376D01*
X154098876Y-67552300D01*
X149833495Y-67552300D01*
X149845500Y-67523318D01*
X149845500Y-67273882D01*
X149750045Y-67043433D01*
X149694312Y-66987700D01*
X149779245Y-66902767D01*
X149874700Y-66672318D01*
X149874700Y-66422882D01*
X149779245Y-66192433D01*
X149602867Y-66016055D01*
X149372418Y-65920600D01*
X149122982Y-65920600D01*
X148892533Y-66016055D01*
X148716155Y-66192433D01*
X148620700Y-66422882D01*
X148620700Y-66672318D01*
X148716155Y-66902767D01*
X148771888Y-66958500D01*
X148686955Y-67043433D01*
X148591500Y-67273882D01*
X148591500Y-67523318D01*
X148603505Y-67552300D01*
X141960825Y-67552300D01*
X140672200Y-66263676D01*
X140672200Y-66151182D01*
X140576745Y-65920733D01*
X140400367Y-65744355D01*
X140169918Y-65648900D01*
X139920482Y-65648900D01*
X139690033Y-65744355D01*
X139513655Y-65920733D01*
X139418200Y-66151182D01*
X135091742Y-66151182D01*
X135819424Y-65423500D01*
X141231982Y-65423500D01*
X141276500Y-65432355D01*
X141321018Y-65423500D01*
X141452862Y-65397275D01*
X141602374Y-65297374D01*
X141627593Y-65259631D01*
X141804842Y-65082382D01*
X149506900Y-65082382D01*
X149506900Y-65331818D01*
X149602355Y-65562267D01*
X149778733Y-65738645D01*
X150009182Y-65834100D01*
X150258618Y-65834100D01*
X150489067Y-65738645D01*
X150665445Y-65562267D01*
X150760900Y-65331818D01*
X150760900Y-65082382D01*
X150665445Y-64851933D01*
X150489067Y-64675555D01*
X150258618Y-64580100D01*
X150009182Y-64580100D01*
X149778733Y-64675555D01*
X149602355Y-64851933D01*
X149506900Y-65082382D01*
X141804842Y-65082382D01*
X144505999Y-62381226D01*
X144685312Y-62455500D01*
X145128688Y-62455500D01*
X145538313Y-62285827D01*
X145851827Y-61972313D01*
X145907000Y-61839114D01*
X145962173Y-61972313D01*
X146275687Y-62285827D01*
X146685312Y-62455500D01*
X147128688Y-62455500D01*
X147538313Y-62285827D01*
X147851827Y-61972313D01*
X147907000Y-61839114D01*
X147962173Y-61972313D01*
X148275687Y-62285827D01*
X148685312Y-62455500D01*
X149128688Y-62455500D01*
X149538313Y-62285827D01*
X149851827Y-61972313D01*
X149907000Y-61839114D01*
X149962173Y-61972313D01*
X150275687Y-62285827D01*
X150685312Y-62455500D01*
X151128688Y-62455500D01*
X151538313Y-62285827D01*
X151851827Y-61972313D01*
X151907000Y-61839114D01*
X151962173Y-61972313D01*
X152275687Y-62285827D01*
X152685312Y-62455500D01*
X153128688Y-62455500D01*
X153538313Y-62285827D01*
X153786094Y-62038046D01*
X153786094Y-62128500D01*
X153811473Y-62256089D01*
X153883746Y-62364254D01*
X153991911Y-62436527D01*
X154119500Y-62461906D01*
X155694500Y-62461906D01*
X155822089Y-62436527D01*
X155930254Y-62364254D01*
X156002527Y-62256089D01*
X156027906Y-62128500D01*
X156027906Y-60553500D01*
X156002527Y-60425911D01*
X155930254Y-60317746D01*
X155822089Y-60245473D01*
X155694500Y-60220094D01*
X154119500Y-60220094D01*
X153991911Y-60245473D01*
X153883746Y-60317746D01*
X153811473Y-60425911D01*
X153786094Y-60553500D01*
X153786094Y-60643954D01*
X153538313Y-60396173D01*
X153128688Y-60226500D01*
X152685312Y-60226500D01*
X152275687Y-60396173D01*
X151962173Y-60709687D01*
X151907000Y-60842886D01*
X151851827Y-60709687D01*
X151538313Y-60396173D01*
X151128688Y-60226500D01*
X150685312Y-60226500D01*
X150275687Y-60396173D01*
X149962173Y-60709687D01*
X149907000Y-60842886D01*
X149851827Y-60709687D01*
X149538313Y-60396173D01*
X149128688Y-60226500D01*
X148685312Y-60226500D01*
X148275687Y-60396173D01*
X147962173Y-60709687D01*
X147907000Y-60842886D01*
X147851827Y-60709687D01*
X147538313Y-60396173D01*
X147128688Y-60226500D01*
X146685312Y-60226500D01*
X146275687Y-60396173D01*
X145962173Y-60709687D01*
X145907000Y-60842886D01*
X145851827Y-60709687D01*
X145538313Y-60396173D01*
X145128688Y-60226500D01*
X144685312Y-60226500D01*
X144275687Y-60396173D01*
X143962173Y-60709687D01*
X143907000Y-60842886D01*
X143851827Y-60709687D01*
X143538313Y-60396173D01*
X143128688Y-60226500D01*
X142685312Y-60226500D01*
X142275687Y-60396173D01*
X141962173Y-60709687D01*
X141907000Y-60842886D01*
X141851827Y-60709687D01*
X141538313Y-60396173D01*
X141128688Y-60226500D01*
X140685312Y-60226500D01*
X140275687Y-60396173D01*
X139962173Y-60709687D01*
X139907000Y-60842886D01*
X139851827Y-60709687D01*
X139538313Y-60396173D01*
X139128688Y-60226500D01*
X138685312Y-60226500D01*
X138275687Y-60396173D01*
X137962173Y-60709687D01*
X137907000Y-60842886D01*
X137851827Y-60709687D01*
X137538313Y-60396173D01*
X137128688Y-60226500D01*
X136685312Y-60226500D01*
X136275687Y-60396173D01*
X135962173Y-60709687D01*
X135792500Y-61119312D01*
X135792500Y-61562688D01*
X135962173Y-61972313D01*
X136275687Y-62285827D01*
X136685312Y-62455500D01*
X137128688Y-62455500D01*
X137538313Y-62285827D01*
X137851827Y-61972313D01*
X137907000Y-61839114D01*
X137962173Y-61972313D01*
X138275687Y-62285827D01*
X138685312Y-62455500D01*
X139128688Y-62455500D01*
X139538313Y-62285827D01*
X139851827Y-61972313D01*
X139907000Y-61839114D01*
X139962173Y-61972313D01*
X140275687Y-62285827D01*
X140685312Y-62455500D01*
X141128688Y-62455500D01*
X141538313Y-62285827D01*
X141851827Y-61972313D01*
X141907000Y-61839114D01*
X141962173Y-61972313D01*
X142275687Y-62285827D01*
X142685312Y-62455500D01*
X143128688Y-62455500D01*
X143170661Y-62438114D01*
X141089276Y-64519500D01*
X135676718Y-64519500D01*
X135632200Y-64510645D01*
X135587682Y-64519500D01*
X135455838Y-64545725D01*
X135306326Y-64645626D01*
X135281107Y-64683369D01*
X134351076Y-65613400D01*
X134238582Y-65613400D01*
X134008133Y-65708855D01*
X133831755Y-65885233D01*
X133736300Y-66115682D01*
X130312000Y-66115682D01*
X130312000Y-59816513D01*
X131326514Y-58802000D01*
X160493487Y-58802000D01*
X161508001Y-59816515D01*
X161508001Y-59816515D01*
G37*
X161508001Y-59816515D02*
X161508000Y-79233486D01*
X160993487Y-79748000D01*
X156591024Y-79748000D01*
X158105324Y-78233700D01*
X158217818Y-78233700D01*
X158448267Y-78138245D01*
X158624645Y-77961867D01*
X158720100Y-77731418D01*
X158720100Y-77481982D01*
X158624645Y-77251533D01*
X158448267Y-77075155D01*
X158217818Y-76979700D01*
X157968382Y-76979700D01*
X157737933Y-77075155D01*
X157618500Y-77194588D01*
X157544467Y-77120555D01*
X157314018Y-77025100D01*
X157064582Y-77025100D01*
X156834133Y-77120555D01*
X156657755Y-77296933D01*
X156562300Y-77527382D01*
X156562300Y-77639875D01*
X155595074Y-78607102D01*
X152448922Y-78607102D01*
X152834125Y-78221900D01*
X152946618Y-78221900D01*
X153177067Y-78126445D01*
X153252450Y-78051062D01*
X153319933Y-78118545D01*
X153550382Y-78214000D01*
X153799818Y-78214000D01*
X154030267Y-78118545D01*
X154206645Y-77942167D01*
X154302100Y-77711718D01*
X154302100Y-77694882D01*
X154646600Y-77694882D01*
X154646600Y-77944318D01*
X154742055Y-78174767D01*
X154918433Y-78351145D01*
X155148882Y-78446600D01*
X155398318Y-78446600D01*
X155628767Y-78351145D01*
X155805145Y-78174767D01*
X155900600Y-77944318D01*
X155900600Y-77694882D01*
X155805145Y-77464433D01*
X155628767Y-77288055D01*
X155398318Y-77192600D01*
X155148882Y-77192600D01*
X154918433Y-77288055D01*
X154742055Y-77464433D01*
X154646600Y-77694882D01*
X154302100Y-77694882D01*
X154302100Y-77462282D01*
X154206645Y-77231833D01*
X154030267Y-77055455D01*
X153799818Y-76960000D01*
X153687324Y-76960000D01*
X153458793Y-76731469D01*
X153433574Y-76693726D01*
X153284062Y-76593825D01*
X153152218Y-76567600D01*
X153107700Y-76558745D01*
X153063182Y-76567600D01*
X150332516Y-76567600D01*
X150287999Y-76558745D01*
X150243483Y-76567600D01*
X150243482Y-76567600D01*
X150111638Y-76593825D01*
X149962126Y-76693726D01*
X149936909Y-76731467D01*
X149350034Y-77318342D01*
X149340545Y-77295433D01*
X149164167Y-77119055D01*
X148933718Y-77023600D01*
X148821225Y-77023600D01*
X148520911Y-76723287D01*
X148495692Y-76685544D01*
X148346180Y-76585643D01*
X148214336Y-76559418D01*
X148169818Y-76550563D01*
X148125300Y-76559418D01*
X141139134Y-76559418D01*
X141094616Y-76550563D01*
X141050098Y-76559418D01*
X140918254Y-76585643D01*
X140768742Y-76685544D01*
X140743525Y-76723285D01*
X140207711Y-77259099D01*
X140129373Y-77180761D01*
X140129373Y-75044989D01*
X140138228Y-75000472D01*
X140118899Y-74903300D01*
X140103148Y-74824111D01*
X140003247Y-74674599D01*
X139965504Y-74649380D01*
X139210900Y-73894776D01*
X139210900Y-73782282D01*
X139115445Y-73551833D01*
X138939067Y-73375455D01*
X138708618Y-73280000D01*
X138459182Y-73280000D01*
X138228733Y-73375455D01*
X138052355Y-73551833D01*
X137956900Y-73782282D01*
X137956900Y-74031718D01*
X138052355Y-74262167D01*
X138228733Y-74438545D01*
X138459182Y-74534000D01*
X138571676Y-74534000D01*
X139225373Y-75187697D01*
X139225374Y-77146687D01*
X139225373Y-77146692D01*
X139225373Y-77180761D01*
X139145828Y-77260306D01*
X139050373Y-77490755D01*
X139050373Y-77740191D01*
X139086325Y-77826986D01*
X138887414Y-77826986D01*
X138914200Y-77762318D01*
X138914200Y-77512882D01*
X138818745Y-77282433D01*
X138642367Y-77106055D01*
X138411918Y-77010600D01*
X138299425Y-77010600D01*
X138042700Y-76753876D01*
X138042700Y-76017860D01*
X138091082Y-76037900D01*
X138340518Y-76037900D01*
X138570967Y-75942445D01*
X138747345Y-75766067D01*
X138842800Y-75535618D01*
X138842800Y-75286182D01*
X138747345Y-75055733D01*
X138570967Y-74879355D01*
X138340518Y-74783900D01*
X138091082Y-74783900D01*
X138042700Y-74803940D01*
X138042700Y-74563618D01*
X138051555Y-74519100D01*
X138016475Y-74342738D01*
X137941791Y-74230966D01*
X137916574Y-74193226D01*
X137878833Y-74168008D01*
X137640100Y-73929275D01*
X137640100Y-73816782D01*
X137544645Y-73586333D01*
X137368267Y-73409955D01*
X137137818Y-73314500D01*
X136888382Y-73314500D01*
X136657933Y-73409955D01*
X136481555Y-73586333D01*
X136413969Y-73749500D01*
X136259482Y-73749500D01*
X136029033Y-73844955D01*
X135852655Y-74021333D01*
X135757200Y-74251782D01*
X135757200Y-74501218D01*
X135852655Y-74731667D01*
X136029033Y-74908045D01*
X136178452Y-74969936D01*
X136099755Y-75048633D01*
X136004300Y-75279082D01*
X136004300Y-75528518D01*
X136099755Y-75758967D01*
X136276133Y-75935345D01*
X136506582Y-76030800D01*
X136756018Y-76030800D01*
X136986467Y-75935345D01*
X137138700Y-75783112D01*
X137138700Y-76896582D01*
X137129845Y-76941100D01*
X137152591Y-77055455D01*
X137164925Y-77117461D01*
X137168590Y-77122946D01*
X136999333Y-77193055D01*
X136822955Y-77369433D01*
X136727500Y-77599882D01*
X136727500Y-77849318D01*
X136822955Y-78079767D01*
X136999333Y-78256145D01*
X137229782Y-78351600D01*
X137303318Y-78351600D01*
X135227846Y-80427073D01*
X135227843Y-80427075D01*
X135203753Y-80451165D01*
X135106661Y-80451165D01*
X135071771Y-80407476D01*
X135036825Y-80355175D01*
X134989003Y-80323221D01*
X134462642Y-79879357D01*
X134449825Y-79860175D01*
X134401998Y-79828218D01*
X134388886Y-79817161D01*
X134369159Y-79806276D01*
X134316852Y-79771325D01*
X134299602Y-79767894D01*
X134284206Y-79759398D01*
X134221703Y-79752399D01*
X134199590Y-79748000D01*
X134182425Y-79748000D01*
X134125275Y-79741600D01*
X134103116Y-79748000D01*
X130826514Y-79748000D01*
X130312000Y-79233487D01*
X130312000Y-77501082D01*
X132236900Y-77501082D01*
X132236900Y-77750518D01*
X132332355Y-77980967D01*
X132508733Y-78157345D01*
X132739182Y-78252800D01*
X132988618Y-78252800D01*
X133219067Y-78157345D01*
X133300030Y-78076382D01*
X133530000Y-78076382D01*
X133530000Y-78325818D01*
X133625455Y-78556267D01*
X133801833Y-78732645D01*
X134032282Y-78828100D01*
X134281718Y-78828100D01*
X134512167Y-78732645D01*
X134688545Y-78556267D01*
X134784000Y-78325818D01*
X134784000Y-78076382D01*
X134688545Y-77845933D01*
X134512167Y-77669555D01*
X134281718Y-77574100D01*
X134032282Y-77574100D01*
X133801833Y-77669555D01*
X133625455Y-77845933D01*
X133530000Y-78076382D01*
X133300030Y-78076382D01*
X133395445Y-77980967D01*
X133490900Y-77750518D01*
X133490900Y-77501082D01*
X133395445Y-77270633D01*
X133219067Y-77094255D01*
X132988618Y-76998800D01*
X132739182Y-76998800D01*
X132508733Y-77094255D01*
X132332355Y-77270633D01*
X132236900Y-77501082D01*
X130312000Y-77501082D01*
X130312000Y-76750382D01*
X134660800Y-76750382D01*
X134660800Y-76999818D01*
X134756255Y-77230267D01*
X134932633Y-77406645D01*
X135163082Y-77502100D01*
X135412518Y-77502100D01*
X135642967Y-77406645D01*
X135819345Y-77230267D01*
X135914800Y-76999818D01*
X135914800Y-76750382D01*
X135819345Y-76519933D01*
X135642967Y-76343555D01*
X135412518Y-76248100D01*
X135163082Y-76248100D01*
X134932633Y-76343555D01*
X134756255Y-76519933D01*
X134660800Y-76750382D01*
X130312000Y-76750382D01*
X130312000Y-71568482D01*
X137388100Y-71568482D01*
X137388100Y-71817918D01*
X137483555Y-72048367D01*
X137659933Y-72224745D01*
X137890382Y-72320200D01*
X138002876Y-72320200D01*
X141326107Y-75643431D01*
X141351326Y-75681174D01*
X141500838Y-75781075D01*
X141632682Y-75807300D01*
X141632683Y-75807300D01*
X141677199Y-75816155D01*
X141721716Y-75807300D01*
X142427288Y-75807300D01*
X142506833Y-75886845D01*
X142737282Y-75982300D01*
X142986718Y-75982300D01*
X143217167Y-75886845D01*
X143393545Y-75710467D01*
X143489000Y-75480018D01*
X143489000Y-75230582D01*
X143393545Y-75000133D01*
X143217167Y-74823755D01*
X142986718Y-74728300D01*
X142737282Y-74728300D01*
X142506833Y-74823755D01*
X142427288Y-74903300D01*
X141864424Y-74903300D01*
X140799512Y-73838388D01*
X141028967Y-73743345D01*
X141108512Y-73663800D01*
X152396488Y-73663800D01*
X152272555Y-73787733D01*
X152177100Y-74018182D01*
X152177100Y-74267618D01*
X152272555Y-74498067D01*
X152448933Y-74674445D01*
X152679382Y-74769900D01*
X152791876Y-74769900D01*
X154451207Y-76429231D01*
X154476426Y-76466974D01*
X154613771Y-76558745D01*
X154625938Y-76566875D01*
X154802300Y-76601955D01*
X154846818Y-76593100D01*
X155442888Y-76593100D01*
X155522433Y-76672645D01*
X155752882Y-76768100D01*
X156002318Y-76768100D01*
X156232767Y-76672645D01*
X156409145Y-76496267D01*
X156504600Y-76265818D01*
X156504600Y-76016382D01*
X156409145Y-75785933D01*
X156232767Y-75609555D01*
X156002318Y-75514100D01*
X155752882Y-75514100D01*
X155522433Y-75609555D01*
X155442888Y-75689100D01*
X154989524Y-75689100D01*
X153779136Y-74478712D01*
X153934582Y-74543100D01*
X154184018Y-74543100D01*
X154414467Y-74447645D01*
X154590845Y-74271267D01*
X154686300Y-74040818D01*
X154686300Y-73791382D01*
X154635947Y-73669820D01*
X154650200Y-73672655D01*
X154694718Y-73663800D01*
X154826562Y-73637575D01*
X154976074Y-73537674D01*
X155001293Y-73499931D01*
X155896925Y-72604300D01*
X156009418Y-72604300D01*
X156239867Y-72508845D01*
X156416245Y-72332467D01*
X156511700Y-72102018D01*
X156511700Y-71852582D01*
X156416245Y-71622133D01*
X156239867Y-71445755D01*
X156009418Y-71350300D01*
X155759982Y-71350300D01*
X155529533Y-71445755D01*
X155353155Y-71622133D01*
X155257700Y-71852582D01*
X155257700Y-71965075D01*
X154462976Y-72759800D01*
X141108512Y-72759800D01*
X141028967Y-72680255D01*
X140798518Y-72584800D01*
X140549082Y-72584800D01*
X140318633Y-72680255D01*
X140142255Y-72856633D01*
X140047212Y-73086088D01*
X139226534Y-72265410D01*
X139317467Y-72227745D01*
X139493845Y-72051367D01*
X139589300Y-71820918D01*
X139589300Y-71781082D01*
X139967600Y-71781082D01*
X139967600Y-72030518D01*
X140063055Y-72260967D01*
X140239433Y-72437345D01*
X140469882Y-72532800D01*
X140719318Y-72532800D01*
X140949767Y-72437345D01*
X141126145Y-72260967D01*
X141221600Y-72030518D01*
X141221600Y-71781082D01*
X141126145Y-71550633D01*
X141125994Y-71550482D01*
X152774400Y-71550482D01*
X152774400Y-71799918D01*
X152869855Y-72030367D01*
X153046233Y-72206745D01*
X153276682Y-72302200D01*
X153526118Y-72302200D01*
X153756567Y-72206745D01*
X153932945Y-72030367D01*
X154028400Y-71799918D01*
X154028400Y-71550482D01*
X153932945Y-71320033D01*
X153756567Y-71143655D01*
X153526118Y-71048200D01*
X153276682Y-71048200D01*
X153046233Y-71143655D01*
X152869855Y-71320033D01*
X152774400Y-71550482D01*
X141125994Y-71550482D01*
X140949767Y-71374255D01*
X140719318Y-71278800D01*
X140469882Y-71278800D01*
X140239433Y-71374255D01*
X140063055Y-71550633D01*
X139967600Y-71781082D01*
X139589300Y-71781082D01*
X139589300Y-71571482D01*
X139493845Y-71341033D01*
X139317467Y-71164655D01*
X139087018Y-71069200D01*
X138837582Y-71069200D01*
X138607133Y-71164655D01*
X138490200Y-71281588D01*
X138370267Y-71161655D01*
X138139818Y-71066200D01*
X137890382Y-71066200D01*
X137659933Y-71161655D01*
X137483555Y-71338033D01*
X137388100Y-71568482D01*
X130312000Y-71568482D01*
X130312000Y-70118482D01*
X138697400Y-70118482D01*
X138697400Y-70367918D01*
X138792855Y-70598367D01*
X138969233Y-70774745D01*
X139199682Y-70870200D01*
X139449118Y-70870200D01*
X139679567Y-70774745D01*
X139855945Y-70598367D01*
X139951400Y-70367918D01*
X139951400Y-70118482D01*
X139855945Y-69888033D01*
X139679567Y-69711655D01*
X139449118Y-69616200D01*
X139199682Y-69616200D01*
X138969233Y-69711655D01*
X138792855Y-69888033D01*
X138697400Y-70118482D01*
X130312000Y-70118482D01*
X130312000Y-69075282D01*
X153339200Y-69075282D01*
X153339200Y-69324718D01*
X153434655Y-69555167D01*
X153586588Y-69707100D01*
X153448855Y-69844833D01*
X153353400Y-70075282D01*
X153353400Y-70324718D01*
X153448855Y-70555167D01*
X153625233Y-70731545D01*
X153855682Y-70827000D01*
X154105118Y-70827000D01*
X154335567Y-70731545D01*
X154511945Y-70555167D01*
X154607400Y-70324718D01*
X154607400Y-70075282D01*
X154511945Y-69844833D01*
X154360012Y-69692900D01*
X154497745Y-69555167D01*
X154593200Y-69324718D01*
X154593200Y-69075282D01*
X154497745Y-68844833D01*
X154321367Y-68668455D01*
X154090918Y-68573000D01*
X153841482Y-68573000D01*
X153611033Y-68668455D01*
X153434655Y-68844833D01*
X153339200Y-69075282D01*
X130312000Y-69075282D01*
X130312000Y-67696082D01*
X134601800Y-67696082D01*
X134601800Y-67945518D01*
X134697255Y-68175967D01*
X134873633Y-68352345D01*
X135104082Y-68447800D01*
X135119200Y-68447800D01*
X135119200Y-68525318D01*
X135214655Y-68755767D01*
X135391033Y-68932145D01*
X135621482Y-69027600D01*
X135870918Y-69027600D01*
X136101367Y-68932145D01*
X136277745Y-68755767D01*
X136373200Y-68525318D01*
X136373200Y-68275882D01*
X136277745Y-68045433D01*
X136101367Y-67869055D01*
X135870918Y-67773600D01*
X135855800Y-67773600D01*
X135855800Y-67696082D01*
X135760345Y-67465633D01*
X135583967Y-67289255D01*
X135353518Y-67193800D01*
X135104082Y-67193800D01*
X134873633Y-67289255D01*
X134697255Y-67465633D01*
X134601800Y-67696082D01*
X130312000Y-67696082D01*
X130312000Y-66115682D01*
X133736300Y-66115682D01*
X133736300Y-66365118D01*
X133831755Y-66595567D01*
X134008133Y-66771945D01*
X134238582Y-66867400D01*
X134488018Y-66867400D01*
X134718467Y-66771945D01*
X134894845Y-66595567D01*
X134990300Y-66365118D01*
X134990300Y-66252624D01*
X135091742Y-66151182D01*
X139418200Y-66151182D01*
X139418200Y-66400618D01*
X139513655Y-66631067D01*
X139690033Y-66807445D01*
X139920482Y-66902900D01*
X140032976Y-66902900D01*
X141422509Y-68292433D01*
X141447726Y-68330174D01*
X141485466Y-68355391D01*
X141597238Y-68430075D01*
X141773600Y-68465155D01*
X141818118Y-68456300D01*
X154241582Y-68456300D01*
X154286100Y-68465155D01*
X154330618Y-68456300D01*
X154462462Y-68430075D01*
X154611974Y-68330174D01*
X154637193Y-68292431D01*
X154750024Y-68179600D01*
X154862518Y-68179600D01*
X155092967Y-68084145D01*
X155269345Y-67907767D01*
X155364800Y-67677318D01*
X155364800Y-67427882D01*
X155269345Y-67197433D01*
X155092967Y-67021055D01*
X154862518Y-66925600D01*
X154613082Y-66925600D01*
X154382633Y-67021055D01*
X154206255Y-67197433D01*
X154110800Y-67427882D01*
X154110800Y-67540376D01*
X154098876Y-67552300D01*
X149833495Y-67552300D01*
X149845500Y-67523318D01*
X149845500Y-67273882D01*
X149750045Y-67043433D01*
X149694312Y-66987700D01*
X149779245Y-66902767D01*
X149874700Y-66672318D01*
X149874700Y-66422882D01*
X149779245Y-66192433D01*
X149602867Y-66016055D01*
X149372418Y-65920600D01*
X149122982Y-65920600D01*
X148892533Y-66016055D01*
X148716155Y-66192433D01*
X148620700Y-66422882D01*
X148620700Y-66672318D01*
X148716155Y-66902767D01*
X148771888Y-66958500D01*
X148686955Y-67043433D01*
X148591500Y-67273882D01*
X148591500Y-67523318D01*
X148603505Y-67552300D01*
X141960825Y-67552300D01*
X140672200Y-66263676D01*
X140672200Y-66151182D01*
X140576745Y-65920733D01*
X140400367Y-65744355D01*
X140169918Y-65648900D01*
X139920482Y-65648900D01*
X139690033Y-65744355D01*
X139513655Y-65920733D01*
X139418200Y-66151182D01*
X135091742Y-66151182D01*
X135819424Y-65423500D01*
X141231982Y-65423500D01*
X141276500Y-65432355D01*
X141321018Y-65423500D01*
X141452862Y-65397275D01*
X141602374Y-65297374D01*
X141627593Y-65259631D01*
X141804842Y-65082382D01*
X149506900Y-65082382D01*
X149506900Y-65331818D01*
X149602355Y-65562267D01*
X149778733Y-65738645D01*
X150009182Y-65834100D01*
X150258618Y-65834100D01*
X150489067Y-65738645D01*
X150665445Y-65562267D01*
X150760900Y-65331818D01*
X150760900Y-65082382D01*
X150665445Y-64851933D01*
X150489067Y-64675555D01*
X150258618Y-64580100D01*
X150009182Y-64580100D01*
X149778733Y-64675555D01*
X149602355Y-64851933D01*
X149506900Y-65082382D01*
X141804842Y-65082382D01*
X144505999Y-62381226D01*
X144685312Y-62455500D01*
X145128688Y-62455500D01*
X145538313Y-62285827D01*
X145851827Y-61972313D01*
X145907000Y-61839114D01*
X145962173Y-61972313D01*
X146275687Y-62285827D01*
X146685312Y-62455500D01*
X147128688Y-62455500D01*
X147538313Y-62285827D01*
X147851827Y-61972313D01*
X147907000Y-61839114D01*
X147962173Y-61972313D01*
X148275687Y-62285827D01*
X148685312Y-62455500D01*
X149128688Y-62455500D01*
X149538313Y-62285827D01*
X149851827Y-61972313D01*
X149907000Y-61839114D01*
X149962173Y-61972313D01*
X150275687Y-62285827D01*
X150685312Y-62455500D01*
X151128688Y-62455500D01*
X151538313Y-62285827D01*
X151851827Y-61972313D01*
X151907000Y-61839114D01*
X151962173Y-61972313D01*
X152275687Y-62285827D01*
X152685312Y-62455500D01*
X153128688Y-62455500D01*
X153538313Y-62285827D01*
X153786094Y-62038046D01*
X153786094Y-62128500D01*
X153811473Y-62256089D01*
X153883746Y-62364254D01*
X153991911Y-62436527D01*
X154119500Y-62461906D01*
X155694500Y-62461906D01*
X155822089Y-62436527D01*
X155930254Y-62364254D01*
X156002527Y-62256089D01*
X156027906Y-62128500D01*
X156027906Y-60553500D01*
X156002527Y-60425911D01*
X155930254Y-60317746D01*
X155822089Y-60245473D01*
X155694500Y-60220094D01*
X154119500Y-60220094D01*
X153991911Y-60245473D01*
X153883746Y-60317746D01*
X153811473Y-60425911D01*
X153786094Y-60553500D01*
X153786094Y-60643954D01*
X153538313Y-60396173D01*
X153128688Y-60226500D01*
X152685312Y-60226500D01*
X152275687Y-60396173D01*
X151962173Y-60709687D01*
X151907000Y-60842886D01*
X151851827Y-60709687D01*
X151538313Y-60396173D01*
X151128688Y-60226500D01*
X150685312Y-60226500D01*
X150275687Y-60396173D01*
X149962173Y-60709687D01*
X149907000Y-60842886D01*
X149851827Y-60709687D01*
X149538313Y-60396173D01*
X149128688Y-60226500D01*
X148685312Y-60226500D01*
X148275687Y-60396173D01*
X147962173Y-60709687D01*
X147907000Y-60842886D01*
X147851827Y-60709687D01*
X147538313Y-60396173D01*
X147128688Y-60226500D01*
X146685312Y-60226500D01*
X146275687Y-60396173D01*
X145962173Y-60709687D01*
X145907000Y-60842886D01*
X145851827Y-60709687D01*
X145538313Y-60396173D01*
X145128688Y-60226500D01*
X144685312Y-60226500D01*
X144275687Y-60396173D01*
X143962173Y-60709687D01*
X143907000Y-60842886D01*
X143851827Y-60709687D01*
X143538313Y-60396173D01*
X143128688Y-60226500D01*
X142685312Y-60226500D01*
X142275687Y-60396173D01*
X141962173Y-60709687D01*
X141907000Y-60842886D01*
X141851827Y-60709687D01*
X141538313Y-60396173D01*
X141128688Y-60226500D01*
X140685312Y-60226500D01*
X140275687Y-60396173D01*
X139962173Y-60709687D01*
X139907000Y-60842886D01*
X139851827Y-60709687D01*
X139538313Y-60396173D01*
X139128688Y-60226500D01*
X138685312Y-60226500D01*
X138275687Y-60396173D01*
X137962173Y-60709687D01*
X137907000Y-60842886D01*
X137851827Y-60709687D01*
X137538313Y-60396173D01*
X137128688Y-60226500D01*
X136685312Y-60226500D01*
X136275687Y-60396173D01*
X135962173Y-60709687D01*
X135792500Y-61119312D01*
X135792500Y-61562688D01*
X135962173Y-61972313D01*
X136275687Y-62285827D01*
X136685312Y-62455500D01*
X137128688Y-62455500D01*
X137538313Y-62285827D01*
X137851827Y-61972313D01*
X137907000Y-61839114D01*
X137962173Y-61972313D01*
X138275687Y-62285827D01*
X138685312Y-62455500D01*
X139128688Y-62455500D01*
X139538313Y-62285827D01*
X139851827Y-61972313D01*
X139907000Y-61839114D01*
X139962173Y-61972313D01*
X140275687Y-62285827D01*
X140685312Y-62455500D01*
X141128688Y-62455500D01*
X141538313Y-62285827D01*
X141851827Y-61972313D01*
X141907000Y-61839114D01*
X141962173Y-61972313D01*
X142275687Y-62285827D01*
X142685312Y-62455500D01*
X143128688Y-62455500D01*
X143170661Y-62438114D01*
X141089276Y-64519500D01*
X135676718Y-64519500D01*
X135632200Y-64510645D01*
X135587682Y-64519500D01*
X135455838Y-64545725D01*
X135306326Y-64645626D01*
X135281107Y-64683369D01*
X134351076Y-65613400D01*
X134238582Y-65613400D01*
X134008133Y-65708855D01*
X133831755Y-65885233D01*
X133736300Y-66115682D01*
X130312000Y-66115682D01*
X130312000Y-59816513D01*
X131326514Y-58802000D01*
X160493487Y-58802000D01*
X161508001Y-59816515D01*
M02*
